%TF.GenerationSoftware,KiCad,Pcbnew,7.0.7*%
%TF.CreationDate,2024-02-05T11:20:16-08:00*%
%TF.ProjectId,Macro Pad 2 PCB,4d616372-6f20-4506-9164-203220504342,rev?*%
%TF.SameCoordinates,Original*%
%TF.FileFunction,Drillmap*%
%TF.FilePolarity,Positive*%
%FSLAX45Y45*%
G04 Gerber Fmt 4.5, Leading zero omitted, Abs format (unit mm)*
G04 Created by KiCad (PCBNEW 7.0.7) date 2024-02-05 11:20:16*
%MOMM*%
%LPD*%
G01*
G04 APERTURE LIST*
%ADD10C,0.100000*%
%ADD11C,0.200000*%
%ADD12C,0.040000*%
%ADD13C,0.080000*%
G04 APERTURE END LIST*
D10*
X21900000Y-11500000D02*
G75*
G03*
X22100000Y-11300000I0J200000D01*
G01*
X7700000Y-11225000D02*
G75*
G03*
X7700000Y-11225000I-125000J0D01*
G01*
X22100000Y-5300000D02*
X22100000Y-11300000D01*
X13525000Y-11225000D02*
G75*
G03*
X13525000Y-11225000I-125000J0D01*
G01*
X7500000Y-5100000D02*
X21900000Y-5100000D01*
X21900000Y-11500000D02*
X7500000Y-11500000D01*
X7300000Y-11300000D02*
X7300000Y-5300000D01*
X7500000Y-5100000D02*
G75*
G03*
X7300000Y-5300000I0J-200000D01*
G01*
X16125000Y-11225000D02*
G75*
G03*
X16125000Y-11225000I-125000J0D01*
G01*
X13525000Y-5375000D02*
G75*
G03*
X13525000Y-5375000I-125000J0D01*
G01*
X21950000Y-11225000D02*
G75*
G03*
X21950000Y-11225000I-125000J0D01*
G01*
X7300000Y-11300000D02*
G75*
G03*
X7500000Y-11500000I200000J0D01*
G01*
X22100000Y-5300000D02*
G75*
G03*
X21900000Y-5100000I-200000J0D01*
G01*
X7700000Y-5375000D02*
G75*
G03*
X7700000Y-5375000I-125000J0D01*
G01*
X21950000Y-5375000D02*
G75*
G03*
X21950000Y-5375000I-125000J0D01*
G01*
X16100000Y-5375000D02*
G75*
G03*
X16100000Y-5375000I-100000J0D01*
G01*
D11*
D12*
X13430000Y-10180000D02*
X13470000Y-10220000D01*
X13470000Y-10180000D02*
X13430000Y-10220000D01*
X13530000Y-8980000D02*
X13570000Y-9020000D01*
X13570000Y-8980000D02*
X13530000Y-9020000D01*
X13630000Y-7780000D02*
X13670000Y-7820000D01*
X13670000Y-7780000D02*
X13630000Y-7820000D01*
X14117000Y-6029000D02*
X14157000Y-6069000D01*
X14157000Y-6029000D02*
X14117000Y-6069000D01*
X14129000Y-5777000D02*
X14169000Y-5817000D01*
X14169000Y-5777000D02*
X14129000Y-5817000D01*
X14130000Y-6880000D02*
X14170000Y-6920000D01*
X14170000Y-6880000D02*
X14130000Y-6920000D01*
X14181000Y-5572000D02*
X14221000Y-5612000D01*
X14221000Y-5572000D02*
X14181000Y-5612000D01*
X14672000Y-5872000D02*
X14712000Y-5912000D01*
X14712000Y-5872000D02*
X14672000Y-5912000D01*
X14672000Y-6848000D02*
X14712000Y-6888000D01*
X14712000Y-6848000D02*
X14672000Y-6888000D01*
X15225000Y-6338000D02*
X15265000Y-6378000D01*
X15265000Y-6338000D02*
X15225000Y-6378000D01*
X15236000Y-5510000D02*
X15276000Y-5550000D01*
X15276000Y-5510000D02*
X15236000Y-5550000D01*
X15238000Y-6797000D02*
X15278000Y-6837000D01*
X15278000Y-6797000D02*
X15238000Y-6837000D01*
X15246000Y-6551000D02*
X15286000Y-6591000D01*
X15286000Y-6551000D02*
X15246000Y-6591000D01*
X15256000Y-5781000D02*
X15296000Y-5821000D01*
X15296000Y-5781000D02*
X15256000Y-5821000D01*
X15263000Y-6053000D02*
X15303000Y-6093000D01*
X15303000Y-6053000D02*
X15263000Y-6093000D01*
D13*
X13906000Y-7800000D02*
G75*
G03*
X13906000Y-7800000I-40000J0D01*
G01*
X13906000Y-8200000D02*
G75*
G03*
X13906000Y-8200000I-40000J0D01*
G01*
X13906000Y-8600000D02*
G75*
G03*
X13906000Y-8600000I-40000J0D01*
G01*
X13906000Y-9000000D02*
G75*
G03*
X13906000Y-9000000I-40000J0D01*
G01*
X13906000Y-9400000D02*
G75*
G03*
X13906000Y-9400000I-40000J0D01*
G01*
X13906000Y-9800000D02*
G75*
G03*
X13906000Y-9800000I-40000J0D01*
G01*
X13906000Y-10200000D02*
G75*
G03*
X13906000Y-10200000I-40000J0D01*
G01*
X13906000Y-10600000D02*
G75*
G03*
X13906000Y-10600000I-40000J0D01*
G01*
X13906000Y-11000000D02*
G75*
G03*
X13906000Y-11000000I-40000J0D01*
G01*
X14668000Y-7800000D02*
G75*
G03*
X14668000Y-7800000I-40000J0D01*
G01*
X14668000Y-8200000D02*
G75*
G03*
X14668000Y-8200000I-40000J0D01*
G01*
X14668000Y-8600000D02*
G75*
G03*
X14668000Y-8600000I-40000J0D01*
G01*
X14668000Y-9000000D02*
G75*
G03*
X14668000Y-9000000I-40000J0D01*
G01*
X14668000Y-9400000D02*
G75*
G03*
X14668000Y-9400000I-40000J0D01*
G01*
X14668000Y-9800000D02*
G75*
G03*
X14668000Y-9800000I-40000J0D01*
G01*
X14668000Y-10200000D02*
G75*
G03*
X14668000Y-10200000I-40000J0D01*
G01*
X14668000Y-10600000D02*
G75*
G03*
X14668000Y-10600000I-40000J0D01*
G01*
X14668000Y-11000000D02*
G75*
G03*
X14668000Y-11000000I-40000J0D01*
G01*
X15140000Y-8684000D02*
G75*
G03*
X15140000Y-8684000I-40000J0D01*
G01*
X15140000Y-9700000D02*
G75*
G03*
X15140000Y-9700000I-40000J0D01*
G01*
X15140000Y-9984000D02*
G75*
G03*
X15140000Y-9984000I-40000J0D01*
G01*
X15140000Y-11000000D02*
G75*
G03*
X15140000Y-11000000I-40000J0D01*
G01*
X15540000Y-8684000D02*
G75*
G03*
X15540000Y-8684000I-40000J0D01*
G01*
X15540000Y-9700000D02*
G75*
G03*
X15540000Y-9700000I-40000J0D01*
G01*
X15540000Y-9984000D02*
G75*
G03*
X15540000Y-9984000I-40000J0D01*
G01*
X15540000Y-11000000D02*
G75*
G03*
X15540000Y-11000000I-40000J0D01*
G01*
D10*
X14975000Y-7725000D02*
X14975000Y-7825000D01*
X14925000Y-7775000D02*
X15025000Y-7775000D01*
X14975000Y-8175000D02*
X14975000Y-8275000D01*
X14925000Y-8225000D02*
X15025000Y-8225000D01*
X15625000Y-7725000D02*
X15625000Y-7825000D01*
X15575000Y-7775000D02*
X15675000Y-7775000D01*
X15625000Y-8175000D02*
X15625000Y-8275000D01*
X15575000Y-8225000D02*
X15675000Y-8225000D01*
D11*
X7555777Y-11816484D02*
X7555777Y-11616484D01*
X7555777Y-11616484D02*
X7603396Y-11616484D01*
X7603396Y-11616484D02*
X7631967Y-11626008D01*
X7631967Y-11626008D02*
X7651015Y-11645055D01*
X7651015Y-11645055D02*
X7660539Y-11664103D01*
X7660539Y-11664103D02*
X7670062Y-11702198D01*
X7670062Y-11702198D02*
X7670062Y-11730769D01*
X7670062Y-11730769D02*
X7660539Y-11768865D01*
X7660539Y-11768865D02*
X7651015Y-11787912D01*
X7651015Y-11787912D02*
X7631967Y-11806960D01*
X7631967Y-11806960D02*
X7603396Y-11816484D01*
X7603396Y-11816484D02*
X7555777Y-11816484D01*
X7755777Y-11816484D02*
X7755777Y-11683150D01*
X7755777Y-11721246D02*
X7765301Y-11702198D01*
X7765301Y-11702198D02*
X7774824Y-11692674D01*
X7774824Y-11692674D02*
X7793872Y-11683150D01*
X7793872Y-11683150D02*
X7812920Y-11683150D01*
X7879586Y-11816484D02*
X7879586Y-11683150D01*
X7879586Y-11616484D02*
X7870062Y-11626008D01*
X7870062Y-11626008D02*
X7879586Y-11635531D01*
X7879586Y-11635531D02*
X7889110Y-11626008D01*
X7889110Y-11626008D02*
X7879586Y-11616484D01*
X7879586Y-11616484D02*
X7879586Y-11635531D01*
X8003396Y-11816484D02*
X7984348Y-11806960D01*
X7984348Y-11806960D02*
X7974824Y-11787912D01*
X7974824Y-11787912D02*
X7974824Y-11616484D01*
X8108158Y-11816484D02*
X8089110Y-11806960D01*
X8089110Y-11806960D02*
X8079586Y-11787912D01*
X8079586Y-11787912D02*
X8079586Y-11616484D01*
X8336729Y-11816484D02*
X8336729Y-11616484D01*
X8336729Y-11616484D02*
X8403396Y-11759341D01*
X8403396Y-11759341D02*
X8470063Y-11616484D01*
X8470063Y-11616484D02*
X8470063Y-11816484D01*
X8651015Y-11816484D02*
X8651015Y-11711722D01*
X8651015Y-11711722D02*
X8641491Y-11692674D01*
X8641491Y-11692674D02*
X8622444Y-11683150D01*
X8622444Y-11683150D02*
X8584348Y-11683150D01*
X8584348Y-11683150D02*
X8565301Y-11692674D01*
X8651015Y-11806960D02*
X8631967Y-11816484D01*
X8631967Y-11816484D02*
X8584348Y-11816484D01*
X8584348Y-11816484D02*
X8565301Y-11806960D01*
X8565301Y-11806960D02*
X8555777Y-11787912D01*
X8555777Y-11787912D02*
X8555777Y-11768865D01*
X8555777Y-11768865D02*
X8565301Y-11749817D01*
X8565301Y-11749817D02*
X8584348Y-11740293D01*
X8584348Y-11740293D02*
X8631967Y-11740293D01*
X8631967Y-11740293D02*
X8651015Y-11730769D01*
X8746253Y-11683150D02*
X8746253Y-11883150D01*
X8746253Y-11692674D02*
X8765301Y-11683150D01*
X8765301Y-11683150D02*
X8803396Y-11683150D01*
X8803396Y-11683150D02*
X8822444Y-11692674D01*
X8822444Y-11692674D02*
X8831967Y-11702198D01*
X8831967Y-11702198D02*
X8841491Y-11721246D01*
X8841491Y-11721246D02*
X8841491Y-11778388D01*
X8841491Y-11778388D02*
X8831967Y-11797436D01*
X8831967Y-11797436D02*
X8822444Y-11806960D01*
X8822444Y-11806960D02*
X8803396Y-11816484D01*
X8803396Y-11816484D02*
X8765301Y-11816484D01*
X8765301Y-11816484D02*
X8746253Y-11806960D01*
X8927205Y-11797436D02*
X8936729Y-11806960D01*
X8936729Y-11806960D02*
X8927205Y-11816484D01*
X8927205Y-11816484D02*
X8917682Y-11806960D01*
X8917682Y-11806960D02*
X8927205Y-11797436D01*
X8927205Y-11797436D02*
X8927205Y-11816484D01*
X8927205Y-11692674D02*
X8936729Y-11702198D01*
X8936729Y-11702198D02*
X8927205Y-11711722D01*
X8927205Y-11711722D02*
X8917682Y-11702198D01*
X8917682Y-11702198D02*
X8927205Y-11692674D01*
X8927205Y-11692674D02*
X8927205Y-11711722D01*
D12*
X7255000Y-12125000D02*
X7295000Y-12165000D01*
X7295000Y-12125000D02*
X7255000Y-12165000D01*
D11*
X7593872Y-12036484D02*
X7612920Y-12036484D01*
X7612920Y-12036484D02*
X7631967Y-12046008D01*
X7631967Y-12046008D02*
X7641491Y-12055531D01*
X7641491Y-12055531D02*
X7651015Y-12074579D01*
X7651015Y-12074579D02*
X7660539Y-12112674D01*
X7660539Y-12112674D02*
X7660539Y-12160293D01*
X7660539Y-12160293D02*
X7651015Y-12198388D01*
X7651015Y-12198388D02*
X7641491Y-12217436D01*
X7641491Y-12217436D02*
X7631967Y-12226960D01*
X7631967Y-12226960D02*
X7612920Y-12236484D01*
X7612920Y-12236484D02*
X7593872Y-12236484D01*
X7593872Y-12236484D02*
X7574824Y-12226960D01*
X7574824Y-12226960D02*
X7565301Y-12217436D01*
X7565301Y-12217436D02*
X7555777Y-12198388D01*
X7555777Y-12198388D02*
X7546253Y-12160293D01*
X7546253Y-12160293D02*
X7546253Y-12112674D01*
X7546253Y-12112674D02*
X7555777Y-12074579D01*
X7555777Y-12074579D02*
X7565301Y-12055531D01*
X7565301Y-12055531D02*
X7574824Y-12046008D01*
X7574824Y-12046008D02*
X7593872Y-12036484D01*
X7746253Y-12217436D02*
X7755777Y-12226960D01*
X7755777Y-12226960D02*
X7746253Y-12236484D01*
X7746253Y-12236484D02*
X7736729Y-12226960D01*
X7736729Y-12226960D02*
X7746253Y-12217436D01*
X7746253Y-12217436D02*
X7746253Y-12236484D01*
X7927205Y-12103150D02*
X7927205Y-12236484D01*
X7879586Y-12026960D02*
X7831967Y-12169817D01*
X7831967Y-12169817D02*
X7955777Y-12169817D01*
X8070062Y-12036484D02*
X8089110Y-12036484D01*
X8089110Y-12036484D02*
X8108158Y-12046008D01*
X8108158Y-12046008D02*
X8117682Y-12055531D01*
X8117682Y-12055531D02*
X8127205Y-12074579D01*
X8127205Y-12074579D02*
X8136729Y-12112674D01*
X8136729Y-12112674D02*
X8136729Y-12160293D01*
X8136729Y-12160293D02*
X8127205Y-12198388D01*
X8127205Y-12198388D02*
X8117682Y-12217436D01*
X8117682Y-12217436D02*
X8108158Y-12226960D01*
X8108158Y-12226960D02*
X8089110Y-12236484D01*
X8089110Y-12236484D02*
X8070062Y-12236484D01*
X8070062Y-12236484D02*
X8051015Y-12226960D01*
X8051015Y-12226960D02*
X8041491Y-12217436D01*
X8041491Y-12217436D02*
X8031967Y-12198388D01*
X8031967Y-12198388D02*
X8022443Y-12160293D01*
X8022443Y-12160293D02*
X8022443Y-12112674D01*
X8022443Y-12112674D02*
X8031967Y-12074579D01*
X8031967Y-12074579D02*
X8041491Y-12055531D01*
X8041491Y-12055531D02*
X8051015Y-12046008D01*
X8051015Y-12046008D02*
X8070062Y-12036484D01*
X8260539Y-12036484D02*
X8279586Y-12036484D01*
X8279586Y-12036484D02*
X8298634Y-12046008D01*
X8298634Y-12046008D02*
X8308158Y-12055531D01*
X8308158Y-12055531D02*
X8317682Y-12074579D01*
X8317682Y-12074579D02*
X8327205Y-12112674D01*
X8327205Y-12112674D02*
X8327205Y-12160293D01*
X8327205Y-12160293D02*
X8317682Y-12198388D01*
X8317682Y-12198388D02*
X8308158Y-12217436D01*
X8308158Y-12217436D02*
X8298634Y-12226960D01*
X8298634Y-12226960D02*
X8279586Y-12236484D01*
X8279586Y-12236484D02*
X8260539Y-12236484D01*
X8260539Y-12236484D02*
X8241491Y-12226960D01*
X8241491Y-12226960D02*
X8231967Y-12217436D01*
X8231967Y-12217436D02*
X8222443Y-12198388D01*
X8222443Y-12198388D02*
X8212920Y-12160293D01*
X8212920Y-12160293D02*
X8212920Y-12112674D01*
X8212920Y-12112674D02*
X8222443Y-12074579D01*
X8222443Y-12074579D02*
X8231967Y-12055531D01*
X8231967Y-12055531D02*
X8241491Y-12046008D01*
X8241491Y-12046008D02*
X8260539Y-12036484D01*
X8412920Y-12236484D02*
X8412920Y-12103150D01*
X8412920Y-12122198D02*
X8422444Y-12112674D01*
X8422444Y-12112674D02*
X8441491Y-12103150D01*
X8441491Y-12103150D02*
X8470063Y-12103150D01*
X8470063Y-12103150D02*
X8489110Y-12112674D01*
X8489110Y-12112674D02*
X8498634Y-12131722D01*
X8498634Y-12131722D02*
X8498634Y-12236484D01*
X8498634Y-12131722D02*
X8508158Y-12112674D01*
X8508158Y-12112674D02*
X8527205Y-12103150D01*
X8527205Y-12103150D02*
X8555777Y-12103150D01*
X8555777Y-12103150D02*
X8574825Y-12112674D01*
X8574825Y-12112674D02*
X8584348Y-12131722D01*
X8584348Y-12131722D02*
X8584348Y-12236484D01*
X8679586Y-12236484D02*
X8679586Y-12103150D01*
X8679586Y-12122198D02*
X8689110Y-12112674D01*
X8689110Y-12112674D02*
X8708158Y-12103150D01*
X8708158Y-12103150D02*
X8736729Y-12103150D01*
X8736729Y-12103150D02*
X8755777Y-12112674D01*
X8755777Y-12112674D02*
X8765301Y-12131722D01*
X8765301Y-12131722D02*
X8765301Y-12236484D01*
X8765301Y-12131722D02*
X8774825Y-12112674D01*
X8774825Y-12112674D02*
X8793872Y-12103150D01*
X8793872Y-12103150D02*
X8822444Y-12103150D01*
X8822444Y-12103150D02*
X8841491Y-12112674D01*
X8841491Y-12112674D02*
X8851015Y-12131722D01*
X8851015Y-12131722D02*
X8851015Y-12236484D01*
X9241491Y-12026960D02*
X9070063Y-12284103D01*
X9498634Y-12036484D02*
X9517682Y-12036484D01*
X9517682Y-12036484D02*
X9536729Y-12046008D01*
X9536729Y-12046008D02*
X9546253Y-12055531D01*
X9546253Y-12055531D02*
X9555777Y-12074579D01*
X9555777Y-12074579D02*
X9565301Y-12112674D01*
X9565301Y-12112674D02*
X9565301Y-12160293D01*
X9565301Y-12160293D02*
X9555777Y-12198388D01*
X9555777Y-12198388D02*
X9546253Y-12217436D01*
X9546253Y-12217436D02*
X9536729Y-12226960D01*
X9536729Y-12226960D02*
X9517682Y-12236484D01*
X9517682Y-12236484D02*
X9498634Y-12236484D01*
X9498634Y-12236484D02*
X9479587Y-12226960D01*
X9479587Y-12226960D02*
X9470063Y-12217436D01*
X9470063Y-12217436D02*
X9460539Y-12198388D01*
X9460539Y-12198388D02*
X9451015Y-12160293D01*
X9451015Y-12160293D02*
X9451015Y-12112674D01*
X9451015Y-12112674D02*
X9460539Y-12074579D01*
X9460539Y-12074579D02*
X9470063Y-12055531D01*
X9470063Y-12055531D02*
X9479587Y-12046008D01*
X9479587Y-12046008D02*
X9498634Y-12036484D01*
X9651015Y-12217436D02*
X9660539Y-12226960D01*
X9660539Y-12226960D02*
X9651015Y-12236484D01*
X9651015Y-12236484D02*
X9641491Y-12226960D01*
X9641491Y-12226960D02*
X9651015Y-12217436D01*
X9651015Y-12217436D02*
X9651015Y-12236484D01*
X9784348Y-12036484D02*
X9803396Y-12036484D01*
X9803396Y-12036484D02*
X9822444Y-12046008D01*
X9822444Y-12046008D02*
X9831968Y-12055531D01*
X9831968Y-12055531D02*
X9841491Y-12074579D01*
X9841491Y-12074579D02*
X9851015Y-12112674D01*
X9851015Y-12112674D02*
X9851015Y-12160293D01*
X9851015Y-12160293D02*
X9841491Y-12198388D01*
X9841491Y-12198388D02*
X9831968Y-12217436D01*
X9831968Y-12217436D02*
X9822444Y-12226960D01*
X9822444Y-12226960D02*
X9803396Y-12236484D01*
X9803396Y-12236484D02*
X9784348Y-12236484D01*
X9784348Y-12236484D02*
X9765301Y-12226960D01*
X9765301Y-12226960D02*
X9755777Y-12217436D01*
X9755777Y-12217436D02*
X9746253Y-12198388D01*
X9746253Y-12198388D02*
X9736729Y-12160293D01*
X9736729Y-12160293D02*
X9736729Y-12112674D01*
X9736729Y-12112674D02*
X9746253Y-12074579D01*
X9746253Y-12074579D02*
X9755777Y-12055531D01*
X9755777Y-12055531D02*
X9765301Y-12046008D01*
X9765301Y-12046008D02*
X9784348Y-12036484D01*
X10041491Y-12236484D02*
X9927206Y-12236484D01*
X9984348Y-12236484D02*
X9984348Y-12036484D01*
X9984348Y-12036484D02*
X9965301Y-12065055D01*
X9965301Y-12065055D02*
X9946253Y-12084103D01*
X9946253Y-12084103D02*
X9927206Y-12093627D01*
X10222444Y-12036484D02*
X10127206Y-12036484D01*
X10127206Y-12036484D02*
X10117682Y-12131722D01*
X10117682Y-12131722D02*
X10127206Y-12122198D01*
X10127206Y-12122198D02*
X10146253Y-12112674D01*
X10146253Y-12112674D02*
X10193872Y-12112674D01*
X10193872Y-12112674D02*
X10212920Y-12122198D01*
X10212920Y-12122198D02*
X10222444Y-12131722D01*
X10222444Y-12131722D02*
X10231968Y-12150769D01*
X10231968Y-12150769D02*
X10231968Y-12198388D01*
X10231968Y-12198388D02*
X10222444Y-12217436D01*
X10222444Y-12217436D02*
X10212920Y-12226960D01*
X10212920Y-12226960D02*
X10193872Y-12236484D01*
X10193872Y-12236484D02*
X10146253Y-12236484D01*
X10146253Y-12236484D02*
X10127206Y-12226960D01*
X10127206Y-12226960D02*
X10117682Y-12217436D01*
X10298634Y-12036484D02*
X10431968Y-12036484D01*
X10431968Y-12036484D02*
X10346253Y-12236484D01*
X10498634Y-12036484D02*
X10498634Y-12074579D01*
X10574825Y-12036484D02*
X10574825Y-12074579D01*
X10870063Y-12312674D02*
X10860539Y-12303150D01*
X10860539Y-12303150D02*
X10841491Y-12274579D01*
X10841491Y-12274579D02*
X10831968Y-12255531D01*
X10831968Y-12255531D02*
X10822444Y-12226960D01*
X10822444Y-12226960D02*
X10812920Y-12179341D01*
X10812920Y-12179341D02*
X10812920Y-12141246D01*
X10812920Y-12141246D02*
X10822444Y-12093627D01*
X10822444Y-12093627D02*
X10831968Y-12065055D01*
X10831968Y-12065055D02*
X10841491Y-12046008D01*
X10841491Y-12046008D02*
X10860539Y-12017436D01*
X10860539Y-12017436D02*
X10870063Y-12007912D01*
X11051015Y-12236484D02*
X10936730Y-12236484D01*
X10993872Y-12236484D02*
X10993872Y-12036484D01*
X10993872Y-12036484D02*
X10974825Y-12065055D01*
X10974825Y-12065055D02*
X10955777Y-12084103D01*
X10955777Y-12084103D02*
X10936730Y-12093627D01*
X11231968Y-12036484D02*
X11136730Y-12036484D01*
X11136730Y-12036484D02*
X11127206Y-12131722D01*
X11127206Y-12131722D02*
X11136730Y-12122198D01*
X11136730Y-12122198D02*
X11155777Y-12112674D01*
X11155777Y-12112674D02*
X11203396Y-12112674D01*
X11203396Y-12112674D02*
X11222444Y-12122198D01*
X11222444Y-12122198D02*
X11231968Y-12131722D01*
X11231968Y-12131722D02*
X11241491Y-12150769D01*
X11241491Y-12150769D02*
X11241491Y-12198388D01*
X11241491Y-12198388D02*
X11231968Y-12217436D01*
X11231968Y-12217436D02*
X11222444Y-12226960D01*
X11222444Y-12226960D02*
X11203396Y-12236484D01*
X11203396Y-12236484D02*
X11155777Y-12236484D01*
X11155777Y-12236484D02*
X11136730Y-12226960D01*
X11136730Y-12226960D02*
X11127206Y-12217436D01*
X11479587Y-12236484D02*
X11479587Y-12036484D01*
X11565301Y-12236484D02*
X11565301Y-12131722D01*
X11565301Y-12131722D02*
X11555777Y-12112674D01*
X11555777Y-12112674D02*
X11536730Y-12103150D01*
X11536730Y-12103150D02*
X11508158Y-12103150D01*
X11508158Y-12103150D02*
X11489110Y-12112674D01*
X11489110Y-12112674D02*
X11479587Y-12122198D01*
X11689110Y-12236484D02*
X11670063Y-12226960D01*
X11670063Y-12226960D02*
X11660539Y-12217436D01*
X11660539Y-12217436D02*
X11651015Y-12198388D01*
X11651015Y-12198388D02*
X11651015Y-12141246D01*
X11651015Y-12141246D02*
X11660539Y-12122198D01*
X11660539Y-12122198D02*
X11670063Y-12112674D01*
X11670063Y-12112674D02*
X11689110Y-12103150D01*
X11689110Y-12103150D02*
X11717682Y-12103150D01*
X11717682Y-12103150D02*
X11736730Y-12112674D01*
X11736730Y-12112674D02*
X11746253Y-12122198D01*
X11746253Y-12122198D02*
X11755777Y-12141246D01*
X11755777Y-12141246D02*
X11755777Y-12198388D01*
X11755777Y-12198388D02*
X11746253Y-12217436D01*
X11746253Y-12217436D02*
X11736730Y-12226960D01*
X11736730Y-12226960D02*
X11717682Y-12236484D01*
X11717682Y-12236484D02*
X11689110Y-12236484D01*
X11870063Y-12236484D02*
X11851015Y-12226960D01*
X11851015Y-12226960D02*
X11841491Y-12207912D01*
X11841491Y-12207912D02*
X11841491Y-12036484D01*
X12022444Y-12226960D02*
X12003396Y-12236484D01*
X12003396Y-12236484D02*
X11965301Y-12236484D01*
X11965301Y-12236484D02*
X11946253Y-12226960D01*
X11946253Y-12226960D02*
X11936730Y-12207912D01*
X11936730Y-12207912D02*
X11936730Y-12131722D01*
X11936730Y-12131722D02*
X11946253Y-12112674D01*
X11946253Y-12112674D02*
X11965301Y-12103150D01*
X11965301Y-12103150D02*
X12003396Y-12103150D01*
X12003396Y-12103150D02*
X12022444Y-12112674D01*
X12022444Y-12112674D02*
X12031968Y-12131722D01*
X12031968Y-12131722D02*
X12031968Y-12150769D01*
X12031968Y-12150769D02*
X11936730Y-12169817D01*
X12108158Y-12226960D02*
X12127206Y-12236484D01*
X12127206Y-12236484D02*
X12165301Y-12236484D01*
X12165301Y-12236484D02*
X12184349Y-12226960D01*
X12184349Y-12226960D02*
X12193872Y-12207912D01*
X12193872Y-12207912D02*
X12193872Y-12198388D01*
X12193872Y-12198388D02*
X12184349Y-12179341D01*
X12184349Y-12179341D02*
X12165301Y-12169817D01*
X12165301Y-12169817D02*
X12136730Y-12169817D01*
X12136730Y-12169817D02*
X12117682Y-12160293D01*
X12117682Y-12160293D02*
X12108158Y-12141246D01*
X12108158Y-12141246D02*
X12108158Y-12131722D01*
X12108158Y-12131722D02*
X12117682Y-12112674D01*
X12117682Y-12112674D02*
X12136730Y-12103150D01*
X12136730Y-12103150D02*
X12165301Y-12103150D01*
X12165301Y-12103150D02*
X12184349Y-12112674D01*
X12260539Y-12312674D02*
X12270063Y-12303150D01*
X12270063Y-12303150D02*
X12289111Y-12274579D01*
X12289111Y-12274579D02*
X12298634Y-12255531D01*
X12298634Y-12255531D02*
X12308158Y-12226960D01*
X12308158Y-12226960D02*
X12317682Y-12179341D01*
X12317682Y-12179341D02*
X12317682Y-12141246D01*
X12317682Y-12141246D02*
X12308158Y-12093627D01*
X12308158Y-12093627D02*
X12298634Y-12065055D01*
X12298634Y-12065055D02*
X12289111Y-12046008D01*
X12289111Y-12046008D02*
X12270063Y-12017436D01*
X12270063Y-12017436D02*
X12260539Y-12007912D01*
D13*
X7295000Y-12409000D02*
G75*
G03*
X7295000Y-12409000I-40000J0D01*
G01*
D11*
X7593872Y-12300484D02*
X7612920Y-12300484D01*
X7612920Y-12300484D02*
X7631967Y-12310008D01*
X7631967Y-12310008D02*
X7641491Y-12319531D01*
X7641491Y-12319531D02*
X7651015Y-12338579D01*
X7651015Y-12338579D02*
X7660539Y-12376674D01*
X7660539Y-12376674D02*
X7660539Y-12424293D01*
X7660539Y-12424293D02*
X7651015Y-12462388D01*
X7651015Y-12462388D02*
X7641491Y-12481436D01*
X7641491Y-12481436D02*
X7631967Y-12490960D01*
X7631967Y-12490960D02*
X7612920Y-12500484D01*
X7612920Y-12500484D02*
X7593872Y-12500484D01*
X7593872Y-12500484D02*
X7574824Y-12490960D01*
X7574824Y-12490960D02*
X7565301Y-12481436D01*
X7565301Y-12481436D02*
X7555777Y-12462388D01*
X7555777Y-12462388D02*
X7546253Y-12424293D01*
X7546253Y-12424293D02*
X7546253Y-12376674D01*
X7546253Y-12376674D02*
X7555777Y-12338579D01*
X7555777Y-12338579D02*
X7565301Y-12319531D01*
X7565301Y-12319531D02*
X7574824Y-12310008D01*
X7574824Y-12310008D02*
X7593872Y-12300484D01*
X7746253Y-12481436D02*
X7755777Y-12490960D01*
X7755777Y-12490960D02*
X7746253Y-12500484D01*
X7746253Y-12500484D02*
X7736729Y-12490960D01*
X7736729Y-12490960D02*
X7746253Y-12481436D01*
X7746253Y-12481436D02*
X7746253Y-12500484D01*
X7870062Y-12386198D02*
X7851015Y-12376674D01*
X7851015Y-12376674D02*
X7841491Y-12367150D01*
X7841491Y-12367150D02*
X7831967Y-12348103D01*
X7831967Y-12348103D02*
X7831967Y-12338579D01*
X7831967Y-12338579D02*
X7841491Y-12319531D01*
X7841491Y-12319531D02*
X7851015Y-12310008D01*
X7851015Y-12310008D02*
X7870062Y-12300484D01*
X7870062Y-12300484D02*
X7908158Y-12300484D01*
X7908158Y-12300484D02*
X7927205Y-12310008D01*
X7927205Y-12310008D02*
X7936729Y-12319531D01*
X7936729Y-12319531D02*
X7946253Y-12338579D01*
X7946253Y-12338579D02*
X7946253Y-12348103D01*
X7946253Y-12348103D02*
X7936729Y-12367150D01*
X7936729Y-12367150D02*
X7927205Y-12376674D01*
X7927205Y-12376674D02*
X7908158Y-12386198D01*
X7908158Y-12386198D02*
X7870062Y-12386198D01*
X7870062Y-12386198D02*
X7851015Y-12395722D01*
X7851015Y-12395722D02*
X7841491Y-12405246D01*
X7841491Y-12405246D02*
X7831967Y-12424293D01*
X7831967Y-12424293D02*
X7831967Y-12462388D01*
X7831967Y-12462388D02*
X7841491Y-12481436D01*
X7841491Y-12481436D02*
X7851015Y-12490960D01*
X7851015Y-12490960D02*
X7870062Y-12500484D01*
X7870062Y-12500484D02*
X7908158Y-12500484D01*
X7908158Y-12500484D02*
X7927205Y-12490960D01*
X7927205Y-12490960D02*
X7936729Y-12481436D01*
X7936729Y-12481436D02*
X7946253Y-12462388D01*
X7946253Y-12462388D02*
X7946253Y-12424293D01*
X7946253Y-12424293D02*
X7936729Y-12405246D01*
X7936729Y-12405246D02*
X7927205Y-12395722D01*
X7927205Y-12395722D02*
X7908158Y-12386198D01*
X8070062Y-12300484D02*
X8089110Y-12300484D01*
X8089110Y-12300484D02*
X8108158Y-12310008D01*
X8108158Y-12310008D02*
X8117682Y-12319531D01*
X8117682Y-12319531D02*
X8127205Y-12338579D01*
X8127205Y-12338579D02*
X8136729Y-12376674D01*
X8136729Y-12376674D02*
X8136729Y-12424293D01*
X8136729Y-12424293D02*
X8127205Y-12462388D01*
X8127205Y-12462388D02*
X8117682Y-12481436D01*
X8117682Y-12481436D02*
X8108158Y-12490960D01*
X8108158Y-12490960D02*
X8089110Y-12500484D01*
X8089110Y-12500484D02*
X8070062Y-12500484D01*
X8070062Y-12500484D02*
X8051015Y-12490960D01*
X8051015Y-12490960D02*
X8041491Y-12481436D01*
X8041491Y-12481436D02*
X8031967Y-12462388D01*
X8031967Y-12462388D02*
X8022443Y-12424293D01*
X8022443Y-12424293D02*
X8022443Y-12376674D01*
X8022443Y-12376674D02*
X8031967Y-12338579D01*
X8031967Y-12338579D02*
X8041491Y-12319531D01*
X8041491Y-12319531D02*
X8051015Y-12310008D01*
X8051015Y-12310008D02*
X8070062Y-12300484D01*
X8260539Y-12300484D02*
X8279586Y-12300484D01*
X8279586Y-12300484D02*
X8298634Y-12310008D01*
X8298634Y-12310008D02*
X8308158Y-12319531D01*
X8308158Y-12319531D02*
X8317682Y-12338579D01*
X8317682Y-12338579D02*
X8327205Y-12376674D01*
X8327205Y-12376674D02*
X8327205Y-12424293D01*
X8327205Y-12424293D02*
X8317682Y-12462388D01*
X8317682Y-12462388D02*
X8308158Y-12481436D01*
X8308158Y-12481436D02*
X8298634Y-12490960D01*
X8298634Y-12490960D02*
X8279586Y-12500484D01*
X8279586Y-12500484D02*
X8260539Y-12500484D01*
X8260539Y-12500484D02*
X8241491Y-12490960D01*
X8241491Y-12490960D02*
X8231967Y-12481436D01*
X8231967Y-12481436D02*
X8222443Y-12462388D01*
X8222443Y-12462388D02*
X8212920Y-12424293D01*
X8212920Y-12424293D02*
X8212920Y-12376674D01*
X8212920Y-12376674D02*
X8222443Y-12338579D01*
X8222443Y-12338579D02*
X8231967Y-12319531D01*
X8231967Y-12319531D02*
X8241491Y-12310008D01*
X8241491Y-12310008D02*
X8260539Y-12300484D01*
X8412920Y-12500484D02*
X8412920Y-12367150D01*
X8412920Y-12386198D02*
X8422444Y-12376674D01*
X8422444Y-12376674D02*
X8441491Y-12367150D01*
X8441491Y-12367150D02*
X8470063Y-12367150D01*
X8470063Y-12367150D02*
X8489110Y-12376674D01*
X8489110Y-12376674D02*
X8498634Y-12395722D01*
X8498634Y-12395722D02*
X8498634Y-12500484D01*
X8498634Y-12395722D02*
X8508158Y-12376674D01*
X8508158Y-12376674D02*
X8527205Y-12367150D01*
X8527205Y-12367150D02*
X8555777Y-12367150D01*
X8555777Y-12367150D02*
X8574825Y-12376674D01*
X8574825Y-12376674D02*
X8584348Y-12395722D01*
X8584348Y-12395722D02*
X8584348Y-12500484D01*
X8679586Y-12500484D02*
X8679586Y-12367150D01*
X8679586Y-12386198D02*
X8689110Y-12376674D01*
X8689110Y-12376674D02*
X8708158Y-12367150D01*
X8708158Y-12367150D02*
X8736729Y-12367150D01*
X8736729Y-12367150D02*
X8755777Y-12376674D01*
X8755777Y-12376674D02*
X8765301Y-12395722D01*
X8765301Y-12395722D02*
X8765301Y-12500484D01*
X8765301Y-12395722D02*
X8774825Y-12376674D01*
X8774825Y-12376674D02*
X8793872Y-12367150D01*
X8793872Y-12367150D02*
X8822444Y-12367150D01*
X8822444Y-12367150D02*
X8841491Y-12376674D01*
X8841491Y-12376674D02*
X8851015Y-12395722D01*
X8851015Y-12395722D02*
X8851015Y-12500484D01*
X9241491Y-12290960D02*
X9070063Y-12548103D01*
X9498634Y-12300484D02*
X9517682Y-12300484D01*
X9517682Y-12300484D02*
X9536729Y-12310008D01*
X9536729Y-12310008D02*
X9546253Y-12319531D01*
X9546253Y-12319531D02*
X9555777Y-12338579D01*
X9555777Y-12338579D02*
X9565301Y-12376674D01*
X9565301Y-12376674D02*
X9565301Y-12424293D01*
X9565301Y-12424293D02*
X9555777Y-12462388D01*
X9555777Y-12462388D02*
X9546253Y-12481436D01*
X9546253Y-12481436D02*
X9536729Y-12490960D01*
X9536729Y-12490960D02*
X9517682Y-12500484D01*
X9517682Y-12500484D02*
X9498634Y-12500484D01*
X9498634Y-12500484D02*
X9479587Y-12490960D01*
X9479587Y-12490960D02*
X9470063Y-12481436D01*
X9470063Y-12481436D02*
X9460539Y-12462388D01*
X9460539Y-12462388D02*
X9451015Y-12424293D01*
X9451015Y-12424293D02*
X9451015Y-12376674D01*
X9451015Y-12376674D02*
X9460539Y-12338579D01*
X9460539Y-12338579D02*
X9470063Y-12319531D01*
X9470063Y-12319531D02*
X9479587Y-12310008D01*
X9479587Y-12310008D02*
X9498634Y-12300484D01*
X9651015Y-12481436D02*
X9660539Y-12490960D01*
X9660539Y-12490960D02*
X9651015Y-12500484D01*
X9651015Y-12500484D02*
X9641491Y-12490960D01*
X9641491Y-12490960D02*
X9651015Y-12481436D01*
X9651015Y-12481436D02*
X9651015Y-12500484D01*
X9784348Y-12300484D02*
X9803396Y-12300484D01*
X9803396Y-12300484D02*
X9822444Y-12310008D01*
X9822444Y-12310008D02*
X9831968Y-12319531D01*
X9831968Y-12319531D02*
X9841491Y-12338579D01*
X9841491Y-12338579D02*
X9851015Y-12376674D01*
X9851015Y-12376674D02*
X9851015Y-12424293D01*
X9851015Y-12424293D02*
X9841491Y-12462388D01*
X9841491Y-12462388D02*
X9831968Y-12481436D01*
X9831968Y-12481436D02*
X9822444Y-12490960D01*
X9822444Y-12490960D02*
X9803396Y-12500484D01*
X9803396Y-12500484D02*
X9784348Y-12500484D01*
X9784348Y-12500484D02*
X9765301Y-12490960D01*
X9765301Y-12490960D02*
X9755777Y-12481436D01*
X9755777Y-12481436D02*
X9746253Y-12462388D01*
X9746253Y-12462388D02*
X9736729Y-12424293D01*
X9736729Y-12424293D02*
X9736729Y-12376674D01*
X9736729Y-12376674D02*
X9746253Y-12338579D01*
X9746253Y-12338579D02*
X9755777Y-12319531D01*
X9755777Y-12319531D02*
X9765301Y-12310008D01*
X9765301Y-12310008D02*
X9784348Y-12300484D01*
X9917682Y-12300484D02*
X10041491Y-12300484D01*
X10041491Y-12300484D02*
X9974825Y-12376674D01*
X9974825Y-12376674D02*
X10003396Y-12376674D01*
X10003396Y-12376674D02*
X10022444Y-12386198D01*
X10022444Y-12386198D02*
X10031968Y-12395722D01*
X10031968Y-12395722D02*
X10041491Y-12414769D01*
X10041491Y-12414769D02*
X10041491Y-12462388D01*
X10041491Y-12462388D02*
X10031968Y-12481436D01*
X10031968Y-12481436D02*
X10022444Y-12490960D01*
X10022444Y-12490960D02*
X10003396Y-12500484D01*
X10003396Y-12500484D02*
X9946253Y-12500484D01*
X9946253Y-12500484D02*
X9927206Y-12490960D01*
X9927206Y-12490960D02*
X9917682Y-12481436D01*
X10231968Y-12500484D02*
X10117682Y-12500484D01*
X10174825Y-12500484D02*
X10174825Y-12300484D01*
X10174825Y-12300484D02*
X10155777Y-12329055D01*
X10155777Y-12329055D02*
X10136729Y-12348103D01*
X10136729Y-12348103D02*
X10117682Y-12357627D01*
X10412920Y-12300484D02*
X10317682Y-12300484D01*
X10317682Y-12300484D02*
X10308158Y-12395722D01*
X10308158Y-12395722D02*
X10317682Y-12386198D01*
X10317682Y-12386198D02*
X10336729Y-12376674D01*
X10336729Y-12376674D02*
X10384349Y-12376674D01*
X10384349Y-12376674D02*
X10403396Y-12386198D01*
X10403396Y-12386198D02*
X10412920Y-12395722D01*
X10412920Y-12395722D02*
X10422444Y-12414769D01*
X10422444Y-12414769D02*
X10422444Y-12462388D01*
X10422444Y-12462388D02*
X10412920Y-12481436D01*
X10412920Y-12481436D02*
X10403396Y-12490960D01*
X10403396Y-12490960D02*
X10384349Y-12500484D01*
X10384349Y-12500484D02*
X10336729Y-12500484D01*
X10336729Y-12500484D02*
X10317682Y-12490960D01*
X10317682Y-12490960D02*
X10308158Y-12481436D01*
X10498634Y-12300484D02*
X10498634Y-12338579D01*
X10574825Y-12300484D02*
X10574825Y-12338579D01*
X10870063Y-12576674D02*
X10860539Y-12567150D01*
X10860539Y-12567150D02*
X10841491Y-12538579D01*
X10841491Y-12538579D02*
X10831968Y-12519531D01*
X10831968Y-12519531D02*
X10822444Y-12490960D01*
X10822444Y-12490960D02*
X10812920Y-12443341D01*
X10812920Y-12443341D02*
X10812920Y-12405246D01*
X10812920Y-12405246D02*
X10822444Y-12357627D01*
X10822444Y-12357627D02*
X10831968Y-12329055D01*
X10831968Y-12329055D02*
X10841491Y-12310008D01*
X10841491Y-12310008D02*
X10860539Y-12281436D01*
X10860539Y-12281436D02*
X10870063Y-12271912D01*
X10936730Y-12319531D02*
X10946253Y-12310008D01*
X10946253Y-12310008D02*
X10965301Y-12300484D01*
X10965301Y-12300484D02*
X11012920Y-12300484D01*
X11012920Y-12300484D02*
X11031968Y-12310008D01*
X11031968Y-12310008D02*
X11041491Y-12319531D01*
X11041491Y-12319531D02*
X11051015Y-12338579D01*
X11051015Y-12338579D02*
X11051015Y-12357627D01*
X11051015Y-12357627D02*
X11041491Y-12386198D01*
X11041491Y-12386198D02*
X10927206Y-12500484D01*
X10927206Y-12500484D02*
X11051015Y-12500484D01*
X11222444Y-12300484D02*
X11184349Y-12300484D01*
X11184349Y-12300484D02*
X11165301Y-12310008D01*
X11165301Y-12310008D02*
X11155777Y-12319531D01*
X11155777Y-12319531D02*
X11136730Y-12348103D01*
X11136730Y-12348103D02*
X11127206Y-12386198D01*
X11127206Y-12386198D02*
X11127206Y-12462388D01*
X11127206Y-12462388D02*
X11136730Y-12481436D01*
X11136730Y-12481436D02*
X11146253Y-12490960D01*
X11146253Y-12490960D02*
X11165301Y-12500484D01*
X11165301Y-12500484D02*
X11203396Y-12500484D01*
X11203396Y-12500484D02*
X11222444Y-12490960D01*
X11222444Y-12490960D02*
X11231968Y-12481436D01*
X11231968Y-12481436D02*
X11241491Y-12462388D01*
X11241491Y-12462388D02*
X11241491Y-12414769D01*
X11241491Y-12414769D02*
X11231968Y-12395722D01*
X11231968Y-12395722D02*
X11222444Y-12386198D01*
X11222444Y-12386198D02*
X11203396Y-12376674D01*
X11203396Y-12376674D02*
X11165301Y-12376674D01*
X11165301Y-12376674D02*
X11146253Y-12386198D01*
X11146253Y-12386198D02*
X11136730Y-12395722D01*
X11136730Y-12395722D02*
X11127206Y-12414769D01*
X11479587Y-12500484D02*
X11479587Y-12300484D01*
X11565301Y-12500484D02*
X11565301Y-12395722D01*
X11565301Y-12395722D02*
X11555777Y-12376674D01*
X11555777Y-12376674D02*
X11536730Y-12367150D01*
X11536730Y-12367150D02*
X11508158Y-12367150D01*
X11508158Y-12367150D02*
X11489110Y-12376674D01*
X11489110Y-12376674D02*
X11479587Y-12386198D01*
X11689110Y-12500484D02*
X11670063Y-12490960D01*
X11670063Y-12490960D02*
X11660539Y-12481436D01*
X11660539Y-12481436D02*
X11651015Y-12462388D01*
X11651015Y-12462388D02*
X11651015Y-12405246D01*
X11651015Y-12405246D02*
X11660539Y-12386198D01*
X11660539Y-12386198D02*
X11670063Y-12376674D01*
X11670063Y-12376674D02*
X11689110Y-12367150D01*
X11689110Y-12367150D02*
X11717682Y-12367150D01*
X11717682Y-12367150D02*
X11736730Y-12376674D01*
X11736730Y-12376674D02*
X11746253Y-12386198D01*
X11746253Y-12386198D02*
X11755777Y-12405246D01*
X11755777Y-12405246D02*
X11755777Y-12462388D01*
X11755777Y-12462388D02*
X11746253Y-12481436D01*
X11746253Y-12481436D02*
X11736730Y-12490960D01*
X11736730Y-12490960D02*
X11717682Y-12500484D01*
X11717682Y-12500484D02*
X11689110Y-12500484D01*
X11870063Y-12500484D02*
X11851015Y-12490960D01*
X11851015Y-12490960D02*
X11841491Y-12471912D01*
X11841491Y-12471912D02*
X11841491Y-12300484D01*
X12022444Y-12490960D02*
X12003396Y-12500484D01*
X12003396Y-12500484D02*
X11965301Y-12500484D01*
X11965301Y-12500484D02*
X11946253Y-12490960D01*
X11946253Y-12490960D02*
X11936730Y-12471912D01*
X11936730Y-12471912D02*
X11936730Y-12395722D01*
X11936730Y-12395722D02*
X11946253Y-12376674D01*
X11946253Y-12376674D02*
X11965301Y-12367150D01*
X11965301Y-12367150D02*
X12003396Y-12367150D01*
X12003396Y-12367150D02*
X12022444Y-12376674D01*
X12022444Y-12376674D02*
X12031968Y-12395722D01*
X12031968Y-12395722D02*
X12031968Y-12414769D01*
X12031968Y-12414769D02*
X11936730Y-12433817D01*
X12108158Y-12490960D02*
X12127206Y-12500484D01*
X12127206Y-12500484D02*
X12165301Y-12500484D01*
X12165301Y-12500484D02*
X12184349Y-12490960D01*
X12184349Y-12490960D02*
X12193872Y-12471912D01*
X12193872Y-12471912D02*
X12193872Y-12462388D01*
X12193872Y-12462388D02*
X12184349Y-12443341D01*
X12184349Y-12443341D02*
X12165301Y-12433817D01*
X12165301Y-12433817D02*
X12136730Y-12433817D01*
X12136730Y-12433817D02*
X12117682Y-12424293D01*
X12117682Y-12424293D02*
X12108158Y-12405246D01*
X12108158Y-12405246D02*
X12108158Y-12395722D01*
X12108158Y-12395722D02*
X12117682Y-12376674D01*
X12117682Y-12376674D02*
X12136730Y-12367150D01*
X12136730Y-12367150D02*
X12165301Y-12367150D01*
X12165301Y-12367150D02*
X12184349Y-12376674D01*
X12260539Y-12576674D02*
X12270063Y-12567150D01*
X12270063Y-12567150D02*
X12289111Y-12538579D01*
X12289111Y-12538579D02*
X12298634Y-12519531D01*
X12298634Y-12519531D02*
X12308158Y-12490960D01*
X12308158Y-12490960D02*
X12317682Y-12443341D01*
X12317682Y-12443341D02*
X12317682Y-12405246D01*
X12317682Y-12405246D02*
X12308158Y-12357627D01*
X12308158Y-12357627D02*
X12298634Y-12329055D01*
X12298634Y-12329055D02*
X12289111Y-12310008D01*
X12289111Y-12310008D02*
X12270063Y-12281436D01*
X12270063Y-12281436D02*
X12260539Y-12271912D01*
D10*
X7245000Y-12623000D02*
X7245000Y-12723000D01*
X7195000Y-12673000D02*
X7295000Y-12673000D01*
D11*
X7660539Y-12764484D02*
X7546253Y-12764484D01*
X7603396Y-12764484D02*
X7603396Y-12564484D01*
X7603396Y-12564484D02*
X7584348Y-12593055D01*
X7584348Y-12593055D02*
X7565301Y-12612103D01*
X7565301Y-12612103D02*
X7546253Y-12621627D01*
X7746253Y-12745436D02*
X7755777Y-12754960D01*
X7755777Y-12754960D02*
X7746253Y-12764484D01*
X7746253Y-12764484D02*
X7736729Y-12754960D01*
X7736729Y-12754960D02*
X7746253Y-12745436D01*
X7746253Y-12745436D02*
X7746253Y-12764484D01*
X7879586Y-12564484D02*
X7898634Y-12564484D01*
X7898634Y-12564484D02*
X7917682Y-12574008D01*
X7917682Y-12574008D02*
X7927205Y-12583531D01*
X7927205Y-12583531D02*
X7936729Y-12602579D01*
X7936729Y-12602579D02*
X7946253Y-12640674D01*
X7946253Y-12640674D02*
X7946253Y-12688293D01*
X7946253Y-12688293D02*
X7936729Y-12726388D01*
X7936729Y-12726388D02*
X7927205Y-12745436D01*
X7927205Y-12745436D02*
X7917682Y-12754960D01*
X7917682Y-12754960D02*
X7898634Y-12764484D01*
X7898634Y-12764484D02*
X7879586Y-12764484D01*
X7879586Y-12764484D02*
X7860539Y-12754960D01*
X7860539Y-12754960D02*
X7851015Y-12745436D01*
X7851015Y-12745436D02*
X7841491Y-12726388D01*
X7841491Y-12726388D02*
X7831967Y-12688293D01*
X7831967Y-12688293D02*
X7831967Y-12640674D01*
X7831967Y-12640674D02*
X7841491Y-12602579D01*
X7841491Y-12602579D02*
X7851015Y-12583531D01*
X7851015Y-12583531D02*
X7860539Y-12574008D01*
X7860539Y-12574008D02*
X7879586Y-12564484D01*
X8070062Y-12564484D02*
X8089110Y-12564484D01*
X8089110Y-12564484D02*
X8108158Y-12574008D01*
X8108158Y-12574008D02*
X8117682Y-12583531D01*
X8117682Y-12583531D02*
X8127205Y-12602579D01*
X8127205Y-12602579D02*
X8136729Y-12640674D01*
X8136729Y-12640674D02*
X8136729Y-12688293D01*
X8136729Y-12688293D02*
X8127205Y-12726388D01*
X8127205Y-12726388D02*
X8117682Y-12745436D01*
X8117682Y-12745436D02*
X8108158Y-12754960D01*
X8108158Y-12754960D02*
X8089110Y-12764484D01*
X8089110Y-12764484D02*
X8070062Y-12764484D01*
X8070062Y-12764484D02*
X8051015Y-12754960D01*
X8051015Y-12754960D02*
X8041491Y-12745436D01*
X8041491Y-12745436D02*
X8031967Y-12726388D01*
X8031967Y-12726388D02*
X8022443Y-12688293D01*
X8022443Y-12688293D02*
X8022443Y-12640674D01*
X8022443Y-12640674D02*
X8031967Y-12602579D01*
X8031967Y-12602579D02*
X8041491Y-12583531D01*
X8041491Y-12583531D02*
X8051015Y-12574008D01*
X8051015Y-12574008D02*
X8070062Y-12564484D01*
X8260539Y-12564484D02*
X8279586Y-12564484D01*
X8279586Y-12564484D02*
X8298634Y-12574008D01*
X8298634Y-12574008D02*
X8308158Y-12583531D01*
X8308158Y-12583531D02*
X8317682Y-12602579D01*
X8317682Y-12602579D02*
X8327205Y-12640674D01*
X8327205Y-12640674D02*
X8327205Y-12688293D01*
X8327205Y-12688293D02*
X8317682Y-12726388D01*
X8317682Y-12726388D02*
X8308158Y-12745436D01*
X8308158Y-12745436D02*
X8298634Y-12754960D01*
X8298634Y-12754960D02*
X8279586Y-12764484D01*
X8279586Y-12764484D02*
X8260539Y-12764484D01*
X8260539Y-12764484D02*
X8241491Y-12754960D01*
X8241491Y-12754960D02*
X8231967Y-12745436D01*
X8231967Y-12745436D02*
X8222443Y-12726388D01*
X8222443Y-12726388D02*
X8212920Y-12688293D01*
X8212920Y-12688293D02*
X8212920Y-12640674D01*
X8212920Y-12640674D02*
X8222443Y-12602579D01*
X8222443Y-12602579D02*
X8231967Y-12583531D01*
X8231967Y-12583531D02*
X8241491Y-12574008D01*
X8241491Y-12574008D02*
X8260539Y-12564484D01*
X8412920Y-12764484D02*
X8412920Y-12631150D01*
X8412920Y-12650198D02*
X8422444Y-12640674D01*
X8422444Y-12640674D02*
X8441491Y-12631150D01*
X8441491Y-12631150D02*
X8470063Y-12631150D01*
X8470063Y-12631150D02*
X8489110Y-12640674D01*
X8489110Y-12640674D02*
X8498634Y-12659722D01*
X8498634Y-12659722D02*
X8498634Y-12764484D01*
X8498634Y-12659722D02*
X8508158Y-12640674D01*
X8508158Y-12640674D02*
X8527205Y-12631150D01*
X8527205Y-12631150D02*
X8555777Y-12631150D01*
X8555777Y-12631150D02*
X8574825Y-12640674D01*
X8574825Y-12640674D02*
X8584348Y-12659722D01*
X8584348Y-12659722D02*
X8584348Y-12764484D01*
X8679586Y-12764484D02*
X8679586Y-12631150D01*
X8679586Y-12650198D02*
X8689110Y-12640674D01*
X8689110Y-12640674D02*
X8708158Y-12631150D01*
X8708158Y-12631150D02*
X8736729Y-12631150D01*
X8736729Y-12631150D02*
X8755777Y-12640674D01*
X8755777Y-12640674D02*
X8765301Y-12659722D01*
X8765301Y-12659722D02*
X8765301Y-12764484D01*
X8765301Y-12659722D02*
X8774825Y-12640674D01*
X8774825Y-12640674D02*
X8793872Y-12631150D01*
X8793872Y-12631150D02*
X8822444Y-12631150D01*
X8822444Y-12631150D02*
X8841491Y-12640674D01*
X8841491Y-12640674D02*
X8851015Y-12659722D01*
X8851015Y-12659722D02*
X8851015Y-12764484D01*
X9241491Y-12554960D02*
X9070063Y-12812103D01*
X9498634Y-12564484D02*
X9517682Y-12564484D01*
X9517682Y-12564484D02*
X9536729Y-12574008D01*
X9536729Y-12574008D02*
X9546253Y-12583531D01*
X9546253Y-12583531D02*
X9555777Y-12602579D01*
X9555777Y-12602579D02*
X9565301Y-12640674D01*
X9565301Y-12640674D02*
X9565301Y-12688293D01*
X9565301Y-12688293D02*
X9555777Y-12726388D01*
X9555777Y-12726388D02*
X9546253Y-12745436D01*
X9546253Y-12745436D02*
X9536729Y-12754960D01*
X9536729Y-12754960D02*
X9517682Y-12764484D01*
X9517682Y-12764484D02*
X9498634Y-12764484D01*
X9498634Y-12764484D02*
X9479587Y-12754960D01*
X9479587Y-12754960D02*
X9470063Y-12745436D01*
X9470063Y-12745436D02*
X9460539Y-12726388D01*
X9460539Y-12726388D02*
X9451015Y-12688293D01*
X9451015Y-12688293D02*
X9451015Y-12640674D01*
X9451015Y-12640674D02*
X9460539Y-12602579D01*
X9460539Y-12602579D02*
X9470063Y-12583531D01*
X9470063Y-12583531D02*
X9479587Y-12574008D01*
X9479587Y-12574008D02*
X9498634Y-12564484D01*
X9651015Y-12745436D02*
X9660539Y-12754960D01*
X9660539Y-12754960D02*
X9651015Y-12764484D01*
X9651015Y-12764484D02*
X9641491Y-12754960D01*
X9641491Y-12754960D02*
X9651015Y-12745436D01*
X9651015Y-12745436D02*
X9651015Y-12764484D01*
X9784348Y-12564484D02*
X9803396Y-12564484D01*
X9803396Y-12564484D02*
X9822444Y-12574008D01*
X9822444Y-12574008D02*
X9831968Y-12583531D01*
X9831968Y-12583531D02*
X9841491Y-12602579D01*
X9841491Y-12602579D02*
X9851015Y-12640674D01*
X9851015Y-12640674D02*
X9851015Y-12688293D01*
X9851015Y-12688293D02*
X9841491Y-12726388D01*
X9841491Y-12726388D02*
X9831968Y-12745436D01*
X9831968Y-12745436D02*
X9822444Y-12754960D01*
X9822444Y-12754960D02*
X9803396Y-12764484D01*
X9803396Y-12764484D02*
X9784348Y-12764484D01*
X9784348Y-12764484D02*
X9765301Y-12754960D01*
X9765301Y-12754960D02*
X9755777Y-12745436D01*
X9755777Y-12745436D02*
X9746253Y-12726388D01*
X9746253Y-12726388D02*
X9736729Y-12688293D01*
X9736729Y-12688293D02*
X9736729Y-12640674D01*
X9736729Y-12640674D02*
X9746253Y-12602579D01*
X9746253Y-12602579D02*
X9755777Y-12583531D01*
X9755777Y-12583531D02*
X9765301Y-12574008D01*
X9765301Y-12574008D02*
X9784348Y-12564484D01*
X9917682Y-12564484D02*
X10041491Y-12564484D01*
X10041491Y-12564484D02*
X9974825Y-12640674D01*
X9974825Y-12640674D02*
X10003396Y-12640674D01*
X10003396Y-12640674D02*
X10022444Y-12650198D01*
X10022444Y-12650198D02*
X10031968Y-12659722D01*
X10031968Y-12659722D02*
X10041491Y-12678769D01*
X10041491Y-12678769D02*
X10041491Y-12726388D01*
X10041491Y-12726388D02*
X10031968Y-12745436D01*
X10031968Y-12745436D02*
X10022444Y-12754960D01*
X10022444Y-12754960D02*
X10003396Y-12764484D01*
X10003396Y-12764484D02*
X9946253Y-12764484D01*
X9946253Y-12764484D02*
X9927206Y-12754960D01*
X9927206Y-12754960D02*
X9917682Y-12745436D01*
X10136729Y-12764484D02*
X10174825Y-12764484D01*
X10174825Y-12764484D02*
X10193872Y-12754960D01*
X10193872Y-12754960D02*
X10203396Y-12745436D01*
X10203396Y-12745436D02*
X10222444Y-12716865D01*
X10222444Y-12716865D02*
X10231968Y-12678769D01*
X10231968Y-12678769D02*
X10231968Y-12602579D01*
X10231968Y-12602579D02*
X10222444Y-12583531D01*
X10222444Y-12583531D02*
X10212920Y-12574008D01*
X10212920Y-12574008D02*
X10193872Y-12564484D01*
X10193872Y-12564484D02*
X10155777Y-12564484D01*
X10155777Y-12564484D02*
X10136729Y-12574008D01*
X10136729Y-12574008D02*
X10127206Y-12583531D01*
X10127206Y-12583531D02*
X10117682Y-12602579D01*
X10117682Y-12602579D02*
X10117682Y-12650198D01*
X10117682Y-12650198D02*
X10127206Y-12669246D01*
X10127206Y-12669246D02*
X10136729Y-12678769D01*
X10136729Y-12678769D02*
X10155777Y-12688293D01*
X10155777Y-12688293D02*
X10193872Y-12688293D01*
X10193872Y-12688293D02*
X10212920Y-12678769D01*
X10212920Y-12678769D02*
X10222444Y-12669246D01*
X10222444Y-12669246D02*
X10231968Y-12650198D01*
X10403396Y-12631150D02*
X10403396Y-12764484D01*
X10355777Y-12554960D02*
X10308158Y-12697817D01*
X10308158Y-12697817D02*
X10431968Y-12697817D01*
X10498634Y-12564484D02*
X10498634Y-12602579D01*
X10574825Y-12564484D02*
X10574825Y-12602579D01*
X10870063Y-12840674D02*
X10860539Y-12831150D01*
X10860539Y-12831150D02*
X10841491Y-12802579D01*
X10841491Y-12802579D02*
X10831968Y-12783531D01*
X10831968Y-12783531D02*
X10822444Y-12754960D01*
X10822444Y-12754960D02*
X10812920Y-12707341D01*
X10812920Y-12707341D02*
X10812920Y-12669246D01*
X10812920Y-12669246D02*
X10822444Y-12621627D01*
X10822444Y-12621627D02*
X10831968Y-12593055D01*
X10831968Y-12593055D02*
X10841491Y-12574008D01*
X10841491Y-12574008D02*
X10860539Y-12545436D01*
X10860539Y-12545436D02*
X10870063Y-12535912D01*
X11031968Y-12631150D02*
X11031968Y-12764484D01*
X10984349Y-12554960D02*
X10936730Y-12697817D01*
X10936730Y-12697817D02*
X11060539Y-12697817D01*
X11289110Y-12764484D02*
X11289110Y-12564484D01*
X11374825Y-12764484D02*
X11374825Y-12659722D01*
X11374825Y-12659722D02*
X11365301Y-12640674D01*
X11365301Y-12640674D02*
X11346253Y-12631150D01*
X11346253Y-12631150D02*
X11317682Y-12631150D01*
X11317682Y-12631150D02*
X11298634Y-12640674D01*
X11298634Y-12640674D02*
X11289110Y-12650198D01*
X11498634Y-12764484D02*
X11479587Y-12754960D01*
X11479587Y-12754960D02*
X11470063Y-12745436D01*
X11470063Y-12745436D02*
X11460539Y-12726388D01*
X11460539Y-12726388D02*
X11460539Y-12669246D01*
X11460539Y-12669246D02*
X11470063Y-12650198D01*
X11470063Y-12650198D02*
X11479587Y-12640674D01*
X11479587Y-12640674D02*
X11498634Y-12631150D01*
X11498634Y-12631150D02*
X11527206Y-12631150D01*
X11527206Y-12631150D02*
X11546253Y-12640674D01*
X11546253Y-12640674D02*
X11555777Y-12650198D01*
X11555777Y-12650198D02*
X11565301Y-12669246D01*
X11565301Y-12669246D02*
X11565301Y-12726388D01*
X11565301Y-12726388D02*
X11555777Y-12745436D01*
X11555777Y-12745436D02*
X11546253Y-12754960D01*
X11546253Y-12754960D02*
X11527206Y-12764484D01*
X11527206Y-12764484D02*
X11498634Y-12764484D01*
X11679587Y-12764484D02*
X11660539Y-12754960D01*
X11660539Y-12754960D02*
X11651015Y-12735912D01*
X11651015Y-12735912D02*
X11651015Y-12564484D01*
X11831968Y-12754960D02*
X11812920Y-12764484D01*
X11812920Y-12764484D02*
X11774825Y-12764484D01*
X11774825Y-12764484D02*
X11755777Y-12754960D01*
X11755777Y-12754960D02*
X11746253Y-12735912D01*
X11746253Y-12735912D02*
X11746253Y-12659722D01*
X11746253Y-12659722D02*
X11755777Y-12640674D01*
X11755777Y-12640674D02*
X11774825Y-12631150D01*
X11774825Y-12631150D02*
X11812920Y-12631150D01*
X11812920Y-12631150D02*
X11831968Y-12640674D01*
X11831968Y-12640674D02*
X11841491Y-12659722D01*
X11841491Y-12659722D02*
X11841491Y-12678769D01*
X11841491Y-12678769D02*
X11746253Y-12697817D01*
X11917682Y-12754960D02*
X11936730Y-12764484D01*
X11936730Y-12764484D02*
X11974825Y-12764484D01*
X11974825Y-12764484D02*
X11993872Y-12754960D01*
X11993872Y-12754960D02*
X12003396Y-12735912D01*
X12003396Y-12735912D02*
X12003396Y-12726388D01*
X12003396Y-12726388D02*
X11993872Y-12707341D01*
X11993872Y-12707341D02*
X11974825Y-12697817D01*
X11974825Y-12697817D02*
X11946253Y-12697817D01*
X11946253Y-12697817D02*
X11927206Y-12688293D01*
X11927206Y-12688293D02*
X11917682Y-12669246D01*
X11917682Y-12669246D02*
X11917682Y-12659722D01*
X11917682Y-12659722D02*
X11927206Y-12640674D01*
X11927206Y-12640674D02*
X11946253Y-12631150D01*
X11946253Y-12631150D02*
X11974825Y-12631150D01*
X11974825Y-12631150D02*
X11993872Y-12640674D01*
X12070063Y-12840674D02*
X12079587Y-12831150D01*
X12079587Y-12831150D02*
X12098634Y-12802579D01*
X12098634Y-12802579D02*
X12108158Y-12783531D01*
X12108158Y-12783531D02*
X12117682Y-12754960D01*
X12117682Y-12754960D02*
X12127206Y-12707341D01*
X12127206Y-12707341D02*
X12127206Y-12669246D01*
X12127206Y-12669246D02*
X12117682Y-12621627D01*
X12117682Y-12621627D02*
X12108158Y-12593055D01*
X12108158Y-12593055D02*
X12098634Y-12574008D01*
X12098634Y-12574008D02*
X12079587Y-12545436D01*
X12079587Y-12545436D02*
X12070063Y-12535912D01*
M02*
