%TF.GenerationSoftware,KiCad,Pcbnew,7.0.7*%
%TF.CreationDate,2024-02-05T11:41:39-08:00*%
%TF.ProjectId,Macro Pad 2 PCB,4d616372-6f20-4506-9164-203220504342,rev?*%
%TF.SameCoordinates,Original*%
%TF.FileFunction,Soldermask,Top*%
%TF.FilePolarity,Negative*%
%FSLAX46Y46*%
G04 Gerber Fmt 4.6, Leading zero omitted, Abs format (unit mm)*
G04 Created by KiCad (PCBNEW 7.0.7) date 2024-02-05 11:41:39*
%MOMM*%
%LPD*%
G01*
G04 APERTURE LIST*
%ADD10R,1.600000X1.600000*%
%ADD11O,1.600000X1.600000*%
%ADD12C,1.600000*%
%ADD13O,2.748280X1.998980*%
%ADD14O,1.016000X2.032000*%
%ADD15C,1.143000*%
G04 APERTURE END LIST*
D10*
%TO.C,D7*%
X146280000Y-102000000D03*
D11*
X138660000Y-102000000D03*
%TD*%
D10*
%TO.C,D8*%
X146280000Y-90000000D03*
D11*
X138660000Y-90000000D03*
%TD*%
D10*
%TO.C,D9*%
X146280000Y-78000000D03*
D11*
X138660000Y-78000000D03*
%TD*%
D12*
%TO.C,R2*%
X151000000Y-97000000D03*
D11*
X151000000Y-86840000D03*
%TD*%
D13*
%TO.C,U1*%
X138920000Y-54190000D03*
X138920000Y-56730000D03*
X138920000Y-59270000D03*
X138920000Y-61810000D03*
X138920000Y-64350000D03*
X138920000Y-66890000D03*
X138920000Y-69430000D03*
X155084560Y-69430000D03*
X155084560Y-66890000D03*
X155084560Y-64350000D03*
X155084560Y-61810000D03*
X155084560Y-59270000D03*
X155084560Y-56730000D03*
X155084560Y-54190000D03*
D14*
X145786880Y-70507820D03*
X148336880Y-70507820D03*
D15*
X145785683Y-53503633D03*
X148325683Y-53503633D03*
X145785683Y-56043633D03*
X148325683Y-56043633D03*
%TD*%
D10*
%TO.C,D2*%
X146280000Y-98000000D03*
D11*
X138660000Y-98000000D03*
%TD*%
D10*
%TO.C,D1*%
X146280000Y-110000000D03*
D11*
X138660000Y-110000000D03*
%TD*%
D10*
%TO.C,D6*%
X146280000Y-82000000D03*
D11*
X138660000Y-82000000D03*
%TD*%
D10*
%TO.C,D3*%
X146280000Y-86000000D03*
D11*
X138660000Y-86000000D03*
%TD*%
D10*
%TO.C,D4*%
X146280000Y-106000000D03*
D11*
X138660000Y-106000000D03*
%TD*%
D12*
%TO.C,R1*%
X155000000Y-97000000D03*
D11*
X155000000Y-86840000D03*
%TD*%
D12*
%TO.C,R3*%
X151000000Y-110000000D03*
D11*
X151000000Y-99840000D03*
%TD*%
D12*
%TO.C,R5*%
X155000000Y-110000000D03*
D11*
X155000000Y-99840000D03*
%TD*%
D10*
%TO.C,D5*%
X146280000Y-94000000D03*
D11*
X138660000Y-94000000D03*
%TD*%
M02*
