%TF.GenerationSoftware,KiCad,Pcbnew,7.0.7*%
%TF.CreationDate,2024-02-05T11:41:39-08:00*%
%TF.ProjectId,Macro Pad 2 PCB,4d616372-6f20-4506-9164-203220504342,rev?*%
%TF.SameCoordinates,Original*%
%TF.FileFunction,Legend,Bot*%
%TF.FilePolarity,Positive*%
%FSLAX46Y46*%
G04 Gerber Fmt 4.6, Leading zero omitted, Abs format (unit mm)*
G04 Created by KiCad (PCBNEW 7.0.7) date 2024-02-05 11:41:39*
%MOMM*%
%LPD*%
G01*
G04 APERTURE LIST*
%ADD10C,0.150000*%
%ADD11R,2.000000X2.000000*%
%ADD12R,1.600000X1.600000*%
%ADD13O,1.600000X1.600000*%
%ADD14C,1.800000*%
%ADD15C,1.600000*%
%ADD16R,3.150000X1.000000*%
G04 APERTURE END LIST*
D10*
X142416666Y-108454819D02*
X142749999Y-107978628D01*
X142988094Y-108454819D02*
X142988094Y-107454819D01*
X142988094Y-107454819D02*
X142607142Y-107454819D01*
X142607142Y-107454819D02*
X142511904Y-107502438D01*
X142511904Y-107502438D02*
X142464285Y-107550057D01*
X142464285Y-107550057D02*
X142416666Y-107645295D01*
X142416666Y-107645295D02*
X142416666Y-107788152D01*
X142416666Y-107788152D02*
X142464285Y-107883390D01*
X142464285Y-107883390D02*
X142511904Y-107931009D01*
X142511904Y-107931009D02*
X142607142Y-107978628D01*
X142607142Y-107978628D02*
X142988094Y-107978628D01*
X141797618Y-107454819D02*
X141702380Y-107454819D01*
X141702380Y-107454819D02*
X141607142Y-107502438D01*
X141607142Y-107502438D02*
X141559523Y-107550057D01*
X141559523Y-107550057D02*
X141511904Y-107645295D01*
X141511904Y-107645295D02*
X141464285Y-107835771D01*
X141464285Y-107835771D02*
X141464285Y-108073866D01*
X141464285Y-108073866D02*
X141511904Y-108264342D01*
X141511904Y-108264342D02*
X141559523Y-108359580D01*
X141559523Y-108359580D02*
X141607142Y-108407200D01*
X141607142Y-108407200D02*
X141702380Y-108454819D01*
X141702380Y-108454819D02*
X141797618Y-108454819D01*
X141797618Y-108454819D02*
X141892856Y-108407200D01*
X141892856Y-108407200D02*
X141940475Y-108359580D01*
X141940475Y-108359580D02*
X141988094Y-108264342D01*
X141988094Y-108264342D02*
X142035713Y-108073866D01*
X142035713Y-108073866D02*
X142035713Y-107835771D01*
X142035713Y-107835771D02*
X141988094Y-107645295D01*
X141988094Y-107645295D02*
X141940475Y-107550057D01*
X141940475Y-107550057D02*
X141892856Y-107502438D01*
X141892856Y-107502438D02*
X141797618Y-107454819D01*
X142416666Y-104454819D02*
X142749999Y-103978628D01*
X142988094Y-104454819D02*
X142988094Y-103454819D01*
X142988094Y-103454819D02*
X142607142Y-103454819D01*
X142607142Y-103454819D02*
X142511904Y-103502438D01*
X142511904Y-103502438D02*
X142464285Y-103550057D01*
X142464285Y-103550057D02*
X142416666Y-103645295D01*
X142416666Y-103645295D02*
X142416666Y-103788152D01*
X142416666Y-103788152D02*
X142464285Y-103883390D01*
X142464285Y-103883390D02*
X142511904Y-103931009D01*
X142511904Y-103931009D02*
X142607142Y-103978628D01*
X142607142Y-103978628D02*
X142988094Y-103978628D01*
X141797618Y-103454819D02*
X141702380Y-103454819D01*
X141702380Y-103454819D02*
X141607142Y-103502438D01*
X141607142Y-103502438D02*
X141559523Y-103550057D01*
X141559523Y-103550057D02*
X141511904Y-103645295D01*
X141511904Y-103645295D02*
X141464285Y-103835771D01*
X141464285Y-103835771D02*
X141464285Y-104073866D01*
X141464285Y-104073866D02*
X141511904Y-104264342D01*
X141511904Y-104264342D02*
X141559523Y-104359580D01*
X141559523Y-104359580D02*
X141607142Y-104407200D01*
X141607142Y-104407200D02*
X141702380Y-104454819D01*
X141702380Y-104454819D02*
X141797618Y-104454819D01*
X141797618Y-104454819D02*
X141892856Y-104407200D01*
X141892856Y-104407200D02*
X141940475Y-104359580D01*
X141940475Y-104359580D02*
X141988094Y-104264342D01*
X141988094Y-104264342D02*
X142035713Y-104073866D01*
X142035713Y-104073866D02*
X142035713Y-103835771D01*
X142035713Y-103835771D02*
X141988094Y-103645295D01*
X141988094Y-103645295D02*
X141940475Y-103550057D01*
X141940475Y-103550057D02*
X141892856Y-103502438D01*
X141892856Y-103502438D02*
X141797618Y-103454819D01*
X142416666Y-100454819D02*
X142749999Y-99978628D01*
X142988094Y-100454819D02*
X142988094Y-99454819D01*
X142988094Y-99454819D02*
X142607142Y-99454819D01*
X142607142Y-99454819D02*
X142511904Y-99502438D01*
X142511904Y-99502438D02*
X142464285Y-99550057D01*
X142464285Y-99550057D02*
X142416666Y-99645295D01*
X142416666Y-99645295D02*
X142416666Y-99788152D01*
X142416666Y-99788152D02*
X142464285Y-99883390D01*
X142464285Y-99883390D02*
X142511904Y-99931009D01*
X142511904Y-99931009D02*
X142607142Y-99978628D01*
X142607142Y-99978628D02*
X142988094Y-99978628D01*
X141797618Y-99454819D02*
X141702380Y-99454819D01*
X141702380Y-99454819D02*
X141607142Y-99502438D01*
X141607142Y-99502438D02*
X141559523Y-99550057D01*
X141559523Y-99550057D02*
X141511904Y-99645295D01*
X141511904Y-99645295D02*
X141464285Y-99835771D01*
X141464285Y-99835771D02*
X141464285Y-100073866D01*
X141464285Y-100073866D02*
X141511904Y-100264342D01*
X141511904Y-100264342D02*
X141559523Y-100359580D01*
X141559523Y-100359580D02*
X141607142Y-100407200D01*
X141607142Y-100407200D02*
X141702380Y-100454819D01*
X141702380Y-100454819D02*
X141797618Y-100454819D01*
X141797618Y-100454819D02*
X141892856Y-100407200D01*
X141892856Y-100407200D02*
X141940475Y-100359580D01*
X141940475Y-100359580D02*
X141988094Y-100264342D01*
X141988094Y-100264342D02*
X142035713Y-100073866D01*
X142035713Y-100073866D02*
X142035713Y-99835771D01*
X142035713Y-99835771D02*
X141988094Y-99645295D01*
X141988094Y-99645295D02*
X141940475Y-99550057D01*
X141940475Y-99550057D02*
X141892856Y-99502438D01*
X141892856Y-99502438D02*
X141797618Y-99454819D01*
X142416666Y-96454819D02*
X142749999Y-95978628D01*
X142988094Y-96454819D02*
X142988094Y-95454819D01*
X142988094Y-95454819D02*
X142607142Y-95454819D01*
X142607142Y-95454819D02*
X142511904Y-95502438D01*
X142511904Y-95502438D02*
X142464285Y-95550057D01*
X142464285Y-95550057D02*
X142416666Y-95645295D01*
X142416666Y-95645295D02*
X142416666Y-95788152D01*
X142416666Y-95788152D02*
X142464285Y-95883390D01*
X142464285Y-95883390D02*
X142511904Y-95931009D01*
X142511904Y-95931009D02*
X142607142Y-95978628D01*
X142607142Y-95978628D02*
X142988094Y-95978628D01*
X141464285Y-96454819D02*
X142035713Y-96454819D01*
X141749999Y-96454819D02*
X141749999Y-95454819D01*
X141749999Y-95454819D02*
X141845237Y-95597676D01*
X141845237Y-95597676D02*
X141940475Y-95692914D01*
X141940475Y-95692914D02*
X142035713Y-95740533D01*
X142416666Y-92454819D02*
X142749999Y-91978628D01*
X142988094Y-92454819D02*
X142988094Y-91454819D01*
X142988094Y-91454819D02*
X142607142Y-91454819D01*
X142607142Y-91454819D02*
X142511904Y-91502438D01*
X142511904Y-91502438D02*
X142464285Y-91550057D01*
X142464285Y-91550057D02*
X142416666Y-91645295D01*
X142416666Y-91645295D02*
X142416666Y-91788152D01*
X142416666Y-91788152D02*
X142464285Y-91883390D01*
X142464285Y-91883390D02*
X142511904Y-91931009D01*
X142511904Y-91931009D02*
X142607142Y-91978628D01*
X142607142Y-91978628D02*
X142988094Y-91978628D01*
X141464285Y-92454819D02*
X142035713Y-92454819D01*
X141749999Y-92454819D02*
X141749999Y-91454819D01*
X141749999Y-91454819D02*
X141845237Y-91597676D01*
X141845237Y-91597676D02*
X141940475Y-91692914D01*
X141940475Y-91692914D02*
X142035713Y-91740533D01*
X142416666Y-88454819D02*
X142749999Y-87978628D01*
X142988094Y-88454819D02*
X142988094Y-87454819D01*
X142988094Y-87454819D02*
X142607142Y-87454819D01*
X142607142Y-87454819D02*
X142511904Y-87502438D01*
X142511904Y-87502438D02*
X142464285Y-87550057D01*
X142464285Y-87550057D02*
X142416666Y-87645295D01*
X142416666Y-87645295D02*
X142416666Y-87788152D01*
X142416666Y-87788152D02*
X142464285Y-87883390D01*
X142464285Y-87883390D02*
X142511904Y-87931009D01*
X142511904Y-87931009D02*
X142607142Y-87978628D01*
X142607142Y-87978628D02*
X142988094Y-87978628D01*
X141464285Y-88454819D02*
X142035713Y-88454819D01*
X141749999Y-88454819D02*
X141749999Y-87454819D01*
X141749999Y-87454819D02*
X141845237Y-87597676D01*
X141845237Y-87597676D02*
X141940475Y-87692914D01*
X141940475Y-87692914D02*
X142035713Y-87740533D01*
X142416666Y-84454819D02*
X142749999Y-83978628D01*
X142988094Y-84454819D02*
X142988094Y-83454819D01*
X142988094Y-83454819D02*
X142607142Y-83454819D01*
X142607142Y-83454819D02*
X142511904Y-83502438D01*
X142511904Y-83502438D02*
X142464285Y-83550057D01*
X142464285Y-83550057D02*
X142416666Y-83645295D01*
X142416666Y-83645295D02*
X142416666Y-83788152D01*
X142416666Y-83788152D02*
X142464285Y-83883390D01*
X142464285Y-83883390D02*
X142511904Y-83931009D01*
X142511904Y-83931009D02*
X142607142Y-83978628D01*
X142607142Y-83978628D02*
X142988094Y-83978628D01*
X142035713Y-83550057D02*
X141988094Y-83502438D01*
X141988094Y-83502438D02*
X141892856Y-83454819D01*
X141892856Y-83454819D02*
X141654761Y-83454819D01*
X141654761Y-83454819D02*
X141559523Y-83502438D01*
X141559523Y-83502438D02*
X141511904Y-83550057D01*
X141511904Y-83550057D02*
X141464285Y-83645295D01*
X141464285Y-83645295D02*
X141464285Y-83740533D01*
X141464285Y-83740533D02*
X141511904Y-83883390D01*
X141511904Y-83883390D02*
X142083332Y-84454819D01*
X142083332Y-84454819D02*
X141464285Y-84454819D01*
X142416666Y-80454819D02*
X142749999Y-79978628D01*
X142988094Y-80454819D02*
X142988094Y-79454819D01*
X142988094Y-79454819D02*
X142607142Y-79454819D01*
X142607142Y-79454819D02*
X142511904Y-79502438D01*
X142511904Y-79502438D02*
X142464285Y-79550057D01*
X142464285Y-79550057D02*
X142416666Y-79645295D01*
X142416666Y-79645295D02*
X142416666Y-79788152D01*
X142416666Y-79788152D02*
X142464285Y-79883390D01*
X142464285Y-79883390D02*
X142511904Y-79931009D01*
X142511904Y-79931009D02*
X142607142Y-79978628D01*
X142607142Y-79978628D02*
X142988094Y-79978628D01*
X142035713Y-79550057D02*
X141988094Y-79502438D01*
X141988094Y-79502438D02*
X141892856Y-79454819D01*
X141892856Y-79454819D02*
X141654761Y-79454819D01*
X141654761Y-79454819D02*
X141559523Y-79502438D01*
X141559523Y-79502438D02*
X141511904Y-79550057D01*
X141511904Y-79550057D02*
X141464285Y-79645295D01*
X141464285Y-79645295D02*
X141464285Y-79740533D01*
X141464285Y-79740533D02*
X141511904Y-79883390D01*
X141511904Y-79883390D02*
X142083332Y-80454819D01*
X142083332Y-80454819D02*
X141464285Y-80454819D01*
X142416666Y-76454819D02*
X142749999Y-75978628D01*
X142988094Y-76454819D02*
X142988094Y-75454819D01*
X142988094Y-75454819D02*
X142607142Y-75454819D01*
X142607142Y-75454819D02*
X142511904Y-75502438D01*
X142511904Y-75502438D02*
X142464285Y-75550057D01*
X142464285Y-75550057D02*
X142416666Y-75645295D01*
X142416666Y-75645295D02*
X142416666Y-75788152D01*
X142416666Y-75788152D02*
X142464285Y-75883390D01*
X142464285Y-75883390D02*
X142511904Y-75931009D01*
X142511904Y-75931009D02*
X142607142Y-75978628D01*
X142607142Y-75978628D02*
X142988094Y-75978628D01*
X142035713Y-75550057D02*
X141988094Y-75502438D01*
X141988094Y-75502438D02*
X141892856Y-75454819D01*
X141892856Y-75454819D02*
X141654761Y-75454819D01*
X141654761Y-75454819D02*
X141559523Y-75502438D01*
X141559523Y-75502438D02*
X141511904Y-75550057D01*
X141511904Y-75550057D02*
X141464285Y-75645295D01*
X141464285Y-75645295D02*
X141464285Y-75740533D01*
X141464285Y-75740533D02*
X141511904Y-75883390D01*
X141511904Y-75883390D02*
X142083332Y-76454819D01*
X142083332Y-76454819D02*
X141464285Y-76454819D01*
X144566666Y-61819580D02*
X144614285Y-61867200D01*
X144614285Y-61867200D02*
X144757142Y-61914819D01*
X144757142Y-61914819D02*
X144852380Y-61914819D01*
X144852380Y-61914819D02*
X144995237Y-61867200D01*
X144995237Y-61867200D02*
X145090475Y-61771961D01*
X145090475Y-61771961D02*
X145138094Y-61676723D01*
X145138094Y-61676723D02*
X145185713Y-61486247D01*
X145185713Y-61486247D02*
X145185713Y-61343390D01*
X145185713Y-61343390D02*
X145138094Y-61152914D01*
X145138094Y-61152914D02*
X145090475Y-61057676D01*
X145090475Y-61057676D02*
X144995237Y-60962438D01*
X144995237Y-60962438D02*
X144852380Y-60914819D01*
X144852380Y-60914819D02*
X144757142Y-60914819D01*
X144757142Y-60914819D02*
X144614285Y-60962438D01*
X144614285Y-60962438D02*
X144566666Y-61010057D01*
X144185713Y-61010057D02*
X144138094Y-60962438D01*
X144138094Y-60962438D02*
X144042856Y-60914819D01*
X144042856Y-60914819D02*
X143804761Y-60914819D01*
X143804761Y-60914819D02*
X143709523Y-60962438D01*
X143709523Y-60962438D02*
X143661904Y-61010057D01*
X143661904Y-61010057D02*
X143614285Y-61105295D01*
X143614285Y-61105295D02*
X143614285Y-61200533D01*
X143614285Y-61200533D02*
X143661904Y-61343390D01*
X143661904Y-61343390D02*
X144233332Y-61914819D01*
X144233332Y-61914819D02*
X143614285Y-61914819D01*
X144566666Y-59279580D02*
X144614285Y-59327200D01*
X144614285Y-59327200D02*
X144757142Y-59374819D01*
X144757142Y-59374819D02*
X144852380Y-59374819D01*
X144852380Y-59374819D02*
X144995237Y-59327200D01*
X144995237Y-59327200D02*
X145090475Y-59231961D01*
X145090475Y-59231961D02*
X145138094Y-59136723D01*
X145138094Y-59136723D02*
X145185713Y-58946247D01*
X145185713Y-58946247D02*
X145185713Y-58803390D01*
X145185713Y-58803390D02*
X145138094Y-58612914D01*
X145138094Y-58612914D02*
X145090475Y-58517676D01*
X145090475Y-58517676D02*
X144995237Y-58422438D01*
X144995237Y-58422438D02*
X144852380Y-58374819D01*
X144852380Y-58374819D02*
X144757142Y-58374819D01*
X144757142Y-58374819D02*
X144614285Y-58422438D01*
X144614285Y-58422438D02*
X144566666Y-58470057D01*
X143614285Y-59374819D02*
X144185713Y-59374819D01*
X143899999Y-59374819D02*
X143899999Y-58374819D01*
X143899999Y-58374819D02*
X143995237Y-58517676D01*
X143995237Y-58517676D02*
X144090475Y-58612914D01*
X144090475Y-58612914D02*
X144185713Y-58660533D01*
X150314285Y-66709104D02*
X149838095Y-66709104D01*
X150409523Y-66994819D02*
X150076190Y-65994819D01*
X150076190Y-65994819D02*
X149742857Y-66994819D01*
X148885714Y-66994819D02*
X149457142Y-66994819D01*
X149171428Y-66994819D02*
X149171428Y-65994819D01*
X149171428Y-65994819D02*
X149266666Y-66137676D01*
X149266666Y-66137676D02*
X149361904Y-66232914D01*
X149361904Y-66232914D02*
X149457142Y-66280533D01*
X150361904Y-60962438D02*
X150457142Y-60914819D01*
X150457142Y-60914819D02*
X150599999Y-60914819D01*
X150599999Y-60914819D02*
X150742856Y-60962438D01*
X150742856Y-60962438D02*
X150838094Y-61057676D01*
X150838094Y-61057676D02*
X150885713Y-61152914D01*
X150885713Y-61152914D02*
X150933332Y-61343390D01*
X150933332Y-61343390D02*
X150933332Y-61486247D01*
X150933332Y-61486247D02*
X150885713Y-61676723D01*
X150885713Y-61676723D02*
X150838094Y-61771961D01*
X150838094Y-61771961D02*
X150742856Y-61867200D01*
X150742856Y-61867200D02*
X150599999Y-61914819D01*
X150599999Y-61914819D02*
X150504761Y-61914819D01*
X150504761Y-61914819D02*
X150361904Y-61867200D01*
X150361904Y-61867200D02*
X150314285Y-61819580D01*
X150314285Y-61819580D02*
X150314285Y-61486247D01*
X150314285Y-61486247D02*
X150504761Y-61486247D01*
X149885713Y-61914819D02*
X149885713Y-60914819D01*
X149885713Y-60914819D02*
X149314285Y-61914819D01*
X149314285Y-61914819D02*
X149314285Y-60914819D01*
X148838094Y-61914819D02*
X148838094Y-60914819D01*
X148838094Y-60914819D02*
X148599999Y-60914819D01*
X148599999Y-60914819D02*
X148457142Y-60962438D01*
X148457142Y-60962438D02*
X148361904Y-61057676D01*
X148361904Y-61057676D02*
X148314285Y-61152914D01*
X148314285Y-61152914D02*
X148266666Y-61343390D01*
X148266666Y-61343390D02*
X148266666Y-61486247D01*
X148266666Y-61486247D02*
X148314285Y-61676723D01*
X148314285Y-61676723D02*
X148361904Y-61771961D01*
X148361904Y-61771961D02*
X148457142Y-61867200D01*
X148457142Y-61867200D02*
X148599999Y-61914819D01*
X148599999Y-61914819D02*
X148838094Y-61914819D01*
X149790476Y-58374819D02*
X150266666Y-58374819D01*
X150266666Y-58374819D02*
X150314285Y-58851009D01*
X150314285Y-58851009D02*
X150266666Y-58803390D01*
X150266666Y-58803390D02*
X150171428Y-58755771D01*
X150171428Y-58755771D02*
X149933333Y-58755771D01*
X149933333Y-58755771D02*
X149838095Y-58803390D01*
X149838095Y-58803390D02*
X149790476Y-58851009D01*
X149790476Y-58851009D02*
X149742857Y-58946247D01*
X149742857Y-58946247D02*
X149742857Y-59184342D01*
X149742857Y-59184342D02*
X149790476Y-59279580D01*
X149790476Y-59279580D02*
X149838095Y-59327200D01*
X149838095Y-59327200D02*
X149933333Y-59374819D01*
X149933333Y-59374819D02*
X150171428Y-59374819D01*
X150171428Y-59374819D02*
X150266666Y-59327200D01*
X150266666Y-59327200D02*
X150314285Y-59279580D01*
X149457142Y-58374819D02*
X149123809Y-59374819D01*
X149123809Y-59374819D02*
X148790476Y-58374819D01*
X146019047Y-66994819D02*
X146019047Y-65994819D01*
X146019047Y-65994819D02*
X145780952Y-65994819D01*
X145780952Y-65994819D02*
X145638095Y-66042438D01*
X145638095Y-66042438D02*
X145542857Y-66137676D01*
X145542857Y-66137676D02*
X145495238Y-66232914D01*
X145495238Y-66232914D02*
X145447619Y-66423390D01*
X145447619Y-66423390D02*
X145447619Y-66566247D01*
X145447619Y-66566247D02*
X145495238Y-66756723D01*
X145495238Y-66756723D02*
X145542857Y-66851961D01*
X145542857Y-66851961D02*
X145638095Y-66947200D01*
X145638095Y-66947200D02*
X145780952Y-66994819D01*
X145780952Y-66994819D02*
X146019047Y-66994819D01*
X144542857Y-66994819D02*
X145019047Y-66994819D01*
X145019047Y-66994819D02*
X145019047Y-65994819D01*
X144209523Y-66471009D02*
X143876190Y-66471009D01*
X143733333Y-66994819D02*
X144209523Y-66994819D01*
X144209523Y-66994819D02*
X144209523Y-65994819D01*
X144209523Y-65994819D02*
X143733333Y-65994819D01*
X143304761Y-66994819D02*
X143304761Y-65994819D01*
X143304761Y-65994819D02*
X143066666Y-65994819D01*
X143066666Y-65994819D02*
X142923809Y-66042438D01*
X142923809Y-66042438D02*
X142828571Y-66137676D01*
X142828571Y-66137676D02*
X142780952Y-66232914D01*
X142780952Y-66232914D02*
X142733333Y-66423390D01*
X142733333Y-66423390D02*
X142733333Y-66566247D01*
X142733333Y-66566247D02*
X142780952Y-66756723D01*
X142780952Y-66756723D02*
X142828571Y-66851961D01*
X142828571Y-66851961D02*
X142923809Y-66947200D01*
X142923809Y-66947200D02*
X143066666Y-66994819D01*
X143066666Y-66994819D02*
X143304761Y-66994819D01*
X144666666Y-56859580D02*
X144714285Y-56907200D01*
X144714285Y-56907200D02*
X144857142Y-56954819D01*
X144857142Y-56954819D02*
X144952380Y-56954819D01*
X144952380Y-56954819D02*
X145095237Y-56907200D01*
X145095237Y-56907200D02*
X145190475Y-56811961D01*
X145190475Y-56811961D02*
X145238094Y-56716723D01*
X145238094Y-56716723D02*
X145285713Y-56526247D01*
X145285713Y-56526247D02*
X145285713Y-56383390D01*
X145285713Y-56383390D02*
X145238094Y-56192914D01*
X145238094Y-56192914D02*
X145190475Y-56097676D01*
X145190475Y-56097676D02*
X145095237Y-56002438D01*
X145095237Y-56002438D02*
X144952380Y-55954819D01*
X144952380Y-55954819D02*
X144857142Y-55954819D01*
X144857142Y-55954819D02*
X144714285Y-56002438D01*
X144714285Y-56002438D02*
X144666666Y-56050057D01*
X144047618Y-55954819D02*
X143952380Y-55954819D01*
X143952380Y-55954819D02*
X143857142Y-56002438D01*
X143857142Y-56002438D02*
X143809523Y-56050057D01*
X143809523Y-56050057D02*
X143761904Y-56145295D01*
X143761904Y-56145295D02*
X143714285Y-56335771D01*
X143714285Y-56335771D02*
X143714285Y-56573866D01*
X143714285Y-56573866D02*
X143761904Y-56764342D01*
X143761904Y-56764342D02*
X143809523Y-56859580D01*
X143809523Y-56859580D02*
X143857142Y-56907200D01*
X143857142Y-56907200D02*
X143952380Y-56954819D01*
X143952380Y-56954819D02*
X144047618Y-56954819D01*
X144047618Y-56954819D02*
X144142856Y-56907200D01*
X144142856Y-56907200D02*
X144190475Y-56859580D01*
X144190475Y-56859580D02*
X144238094Y-56764342D01*
X144238094Y-56764342D02*
X144285713Y-56573866D01*
X144285713Y-56573866D02*
X144285713Y-56335771D01*
X144285713Y-56335771D02*
X144238094Y-56145295D01*
X144238094Y-56145295D02*
X144190475Y-56050057D01*
X144190475Y-56050057D02*
X144142856Y-56002438D01*
X144142856Y-56002438D02*
X144047618Y-55954819D01*
X150314285Y-64169104D02*
X149838095Y-64169104D01*
X150409523Y-64454819D02*
X150076190Y-63454819D01*
X150076190Y-63454819D02*
X149742857Y-64454819D01*
X149219047Y-63454819D02*
X149123809Y-63454819D01*
X149123809Y-63454819D02*
X149028571Y-63502438D01*
X149028571Y-63502438D02*
X148980952Y-63550057D01*
X148980952Y-63550057D02*
X148933333Y-63645295D01*
X148933333Y-63645295D02*
X148885714Y-63835771D01*
X148885714Y-63835771D02*
X148885714Y-64073866D01*
X148885714Y-64073866D02*
X148933333Y-64264342D01*
X148933333Y-64264342D02*
X148980952Y-64359580D01*
X148980952Y-64359580D02*
X149028571Y-64407200D01*
X149028571Y-64407200D02*
X149123809Y-64454819D01*
X149123809Y-64454819D02*
X149219047Y-64454819D01*
X149219047Y-64454819D02*
X149314285Y-64407200D01*
X149314285Y-64407200D02*
X149361904Y-64359580D01*
X149361904Y-64359580D02*
X149409523Y-64264342D01*
X149409523Y-64264342D02*
X149457142Y-64073866D01*
X149457142Y-64073866D02*
X149457142Y-63835771D01*
X149457142Y-63835771D02*
X149409523Y-63645295D01*
X149409523Y-63645295D02*
X149361904Y-63550057D01*
X149361904Y-63550057D02*
X149314285Y-63502438D01*
X149314285Y-63502438D02*
X149219047Y-63454819D01*
X151076189Y-55774819D02*
X150457142Y-55774819D01*
X150457142Y-55774819D02*
X150790475Y-56155771D01*
X150790475Y-56155771D02*
X150647618Y-56155771D01*
X150647618Y-56155771D02*
X150552380Y-56203390D01*
X150552380Y-56203390D02*
X150504761Y-56251009D01*
X150504761Y-56251009D02*
X150457142Y-56346247D01*
X150457142Y-56346247D02*
X150457142Y-56584342D01*
X150457142Y-56584342D02*
X150504761Y-56679580D01*
X150504761Y-56679580D02*
X150552380Y-56727200D01*
X150552380Y-56727200D02*
X150647618Y-56774819D01*
X150647618Y-56774819D02*
X150933332Y-56774819D01*
X150933332Y-56774819D02*
X151028570Y-56727200D01*
X151028570Y-56727200D02*
X151076189Y-56679580D01*
X150028570Y-56679580D02*
X149980951Y-56727200D01*
X149980951Y-56727200D02*
X150028570Y-56774819D01*
X150028570Y-56774819D02*
X150076189Y-56727200D01*
X150076189Y-56727200D02*
X150028570Y-56679580D01*
X150028570Y-56679580D02*
X150028570Y-56774819D01*
X149647618Y-55774819D02*
X149028571Y-55774819D01*
X149028571Y-55774819D02*
X149361904Y-56155771D01*
X149361904Y-56155771D02*
X149219047Y-56155771D01*
X149219047Y-56155771D02*
X149123809Y-56203390D01*
X149123809Y-56203390D02*
X149076190Y-56251009D01*
X149076190Y-56251009D02*
X149028571Y-56346247D01*
X149028571Y-56346247D02*
X149028571Y-56584342D01*
X149028571Y-56584342D02*
X149076190Y-56679580D01*
X149076190Y-56679580D02*
X149123809Y-56727200D01*
X149123809Y-56727200D02*
X149219047Y-56774819D01*
X149219047Y-56774819D02*
X149504761Y-56774819D01*
X149504761Y-56774819D02*
X149599999Y-56727200D01*
X149599999Y-56727200D02*
X149647618Y-56679580D01*
X148742856Y-55774819D02*
X148409523Y-56774819D01*
X148409523Y-56774819D02*
X148076190Y-55774819D01*
X150314285Y-69249104D02*
X149838095Y-69249104D01*
X150409523Y-69534819D02*
X150076190Y-68534819D01*
X150076190Y-68534819D02*
X149742857Y-69534819D01*
X149457142Y-68630057D02*
X149409523Y-68582438D01*
X149409523Y-68582438D02*
X149314285Y-68534819D01*
X149314285Y-68534819D02*
X149076190Y-68534819D01*
X149076190Y-68534819D02*
X148980952Y-68582438D01*
X148980952Y-68582438D02*
X148933333Y-68630057D01*
X148933333Y-68630057D02*
X148885714Y-68725295D01*
X148885714Y-68725295D02*
X148885714Y-68820533D01*
X148885714Y-68820533D02*
X148933333Y-68963390D01*
X148933333Y-68963390D02*
X149504761Y-69534819D01*
X149504761Y-69534819D02*
X148885714Y-69534819D01*
X145161904Y-63502438D02*
X145257142Y-63454819D01*
X145257142Y-63454819D02*
X145399999Y-63454819D01*
X145399999Y-63454819D02*
X145542856Y-63502438D01*
X145542856Y-63502438D02*
X145638094Y-63597676D01*
X145638094Y-63597676D02*
X145685713Y-63692914D01*
X145685713Y-63692914D02*
X145733332Y-63883390D01*
X145733332Y-63883390D02*
X145733332Y-64026247D01*
X145733332Y-64026247D02*
X145685713Y-64216723D01*
X145685713Y-64216723D02*
X145638094Y-64311961D01*
X145638094Y-64311961D02*
X145542856Y-64407200D01*
X145542856Y-64407200D02*
X145399999Y-64454819D01*
X145399999Y-64454819D02*
X145304761Y-64454819D01*
X145304761Y-64454819D02*
X145161904Y-64407200D01*
X145161904Y-64407200D02*
X145114285Y-64359580D01*
X145114285Y-64359580D02*
X145114285Y-64026247D01*
X145114285Y-64026247D02*
X145304761Y-64026247D01*
X144685713Y-64454819D02*
X144685713Y-63454819D01*
X144685713Y-63454819D02*
X144114285Y-64454819D01*
X144114285Y-64454819D02*
X144114285Y-63454819D01*
X143638094Y-64454819D02*
X143638094Y-63454819D01*
X143638094Y-63454819D02*
X143399999Y-63454819D01*
X143399999Y-63454819D02*
X143257142Y-63502438D01*
X143257142Y-63502438D02*
X143161904Y-63597676D01*
X143161904Y-63597676D02*
X143114285Y-63692914D01*
X143114285Y-63692914D02*
X143066666Y-63883390D01*
X143066666Y-63883390D02*
X143066666Y-64026247D01*
X143066666Y-64026247D02*
X143114285Y-64216723D01*
X143114285Y-64216723D02*
X143161904Y-64311961D01*
X143161904Y-64311961D02*
X143257142Y-64407200D01*
X143257142Y-64407200D02*
X143399999Y-64454819D01*
X143399999Y-64454819D02*
X143638094Y-64454819D01*
X144590476Y-68534819D02*
X145066666Y-68534819D01*
X145066666Y-68534819D02*
X145114285Y-69011009D01*
X145114285Y-69011009D02*
X145066666Y-68963390D01*
X145066666Y-68963390D02*
X144971428Y-68915771D01*
X144971428Y-68915771D02*
X144733333Y-68915771D01*
X144733333Y-68915771D02*
X144638095Y-68963390D01*
X144638095Y-68963390D02*
X144590476Y-69011009D01*
X144590476Y-69011009D02*
X144542857Y-69106247D01*
X144542857Y-69106247D02*
X144542857Y-69344342D01*
X144542857Y-69344342D02*
X144590476Y-69439580D01*
X144590476Y-69439580D02*
X144638095Y-69487200D01*
X144638095Y-69487200D02*
X144733333Y-69534819D01*
X144733333Y-69534819D02*
X144971428Y-69534819D01*
X144971428Y-69534819D02*
X145066666Y-69487200D01*
X145066666Y-69487200D02*
X145114285Y-69439580D01*
X144257142Y-68534819D02*
X143923809Y-69534819D01*
X143923809Y-69534819D02*
X143590476Y-68534819D01*
%LPC*%
D11*
%TO.C,J2*%
X142200000Y-110000000D03*
%TD*%
%TO.C,J5*%
X142200000Y-106000000D03*
%TD*%
%TO.C,J9*%
X142200000Y-102000000D03*
%TD*%
%TO.C,J3*%
X142200000Y-98000000D03*
%TD*%
%TO.C,J6*%
X142200000Y-94000000D03*
%TD*%
%TO.C,J10*%
X142200000Y-90000000D03*
%TD*%
%TO.C,J4*%
X142200000Y-86000000D03*
%TD*%
%TO.C,J7*%
X142200000Y-82000000D03*
%TD*%
%TO.C,J8*%
X142200000Y-78000000D03*
%TD*%
D12*
%TO.C,D7*%
X146280000Y-102000000D03*
D13*
X138660000Y-102000000D03*
%TD*%
D12*
%TO.C,D8*%
X146280000Y-90000000D03*
D13*
X138660000Y-90000000D03*
%TD*%
D14*
%TO.C,SW1*%
X156250000Y-77750000D03*
X149750000Y-82250000D03*
X156250000Y-82250000D03*
X149750000Y-77750000D03*
%TD*%
D12*
%TO.C,D9*%
X146280000Y-78000000D03*
D13*
X138660000Y-78000000D03*
%TD*%
D15*
%TO.C,R2*%
X151000000Y-97000000D03*
D13*
X151000000Y-86840000D03*
%TD*%
D12*
%TO.C,D2*%
X146280000Y-98000000D03*
D13*
X138660000Y-98000000D03*
%TD*%
D12*
%TO.C,D1*%
X146280000Y-110000000D03*
D13*
X138660000Y-110000000D03*
%TD*%
D12*
%TO.C,D6*%
X146280000Y-82000000D03*
D13*
X138660000Y-82000000D03*
%TD*%
D12*
%TO.C,D3*%
X146280000Y-86000000D03*
D13*
X138660000Y-86000000D03*
%TD*%
D12*
%TO.C,D4*%
X146280000Y-106000000D03*
D13*
X138660000Y-106000000D03*
%TD*%
D15*
%TO.C,R1*%
X155000000Y-97000000D03*
D13*
X155000000Y-86840000D03*
%TD*%
D15*
%TO.C,R3*%
X151000000Y-110000000D03*
D13*
X151000000Y-99840000D03*
%TD*%
D15*
%TO.C,R5*%
X155000000Y-110000000D03*
D13*
X155000000Y-99840000D03*
%TD*%
D12*
%TO.C,D5*%
X146280000Y-94000000D03*
D13*
X138660000Y-94000000D03*
%TD*%
D16*
%TO.C,J1*%
X149525000Y-57650000D03*
X144475000Y-57650000D03*
X149525000Y-60190000D03*
X144475000Y-60190000D03*
X149525000Y-62730000D03*
X144475000Y-62730000D03*
X149525000Y-65270000D03*
X144475000Y-65270000D03*
X149525000Y-67810000D03*
X144475000Y-67810000D03*
X149525000Y-70350000D03*
X144475000Y-70350000D03*
%TD*%
%LPD*%
M02*
