%TF.GenerationSoftware,KiCad,Pcbnew,7.0.7*%
%TF.CreationDate,2024-02-05T11:19:36-08:00*%
%TF.ProjectId,Macro Pad 2 PCB,4d616372-6f20-4506-9164-203220504342,rev?*%
%TF.SameCoordinates,Original*%
%TF.FileFunction,Legend,Bot*%
%TF.FilePolarity,Positive*%
%FSLAX46Y46*%
G04 Gerber Fmt 4.6, Leading zero omitted, Abs format (unit mm)*
G04 Created by KiCad (PCBNEW 7.0.7) date 2024-02-05 11:19:36*
%MOMM*%
%LPD*%
G01*
G04 APERTURE LIST*
%ADD10C,0.150000*%
%ADD11C,0.120000*%
%ADD12R,1.600000X1.600000*%
%ADD13O,1.600000X1.600000*%
%ADD14C,1.800000*%
%ADD15C,1.600000*%
%ADD16R,2.000000X2.000000*%
%ADD17R,3.150000X1.000000*%
G04 APERTURE END LIST*
D10*
X144566666Y-61819580D02*
X144614285Y-61867200D01*
X144614285Y-61867200D02*
X144757142Y-61914819D01*
X144757142Y-61914819D02*
X144852380Y-61914819D01*
X144852380Y-61914819D02*
X144995237Y-61867200D01*
X144995237Y-61867200D02*
X145090475Y-61771961D01*
X145090475Y-61771961D02*
X145138094Y-61676723D01*
X145138094Y-61676723D02*
X145185713Y-61486247D01*
X145185713Y-61486247D02*
X145185713Y-61343390D01*
X145185713Y-61343390D02*
X145138094Y-61152914D01*
X145138094Y-61152914D02*
X145090475Y-61057676D01*
X145090475Y-61057676D02*
X144995237Y-60962438D01*
X144995237Y-60962438D02*
X144852380Y-60914819D01*
X144852380Y-60914819D02*
X144757142Y-60914819D01*
X144757142Y-60914819D02*
X144614285Y-60962438D01*
X144614285Y-60962438D02*
X144566666Y-61010057D01*
X144185713Y-61010057D02*
X144138094Y-60962438D01*
X144138094Y-60962438D02*
X144042856Y-60914819D01*
X144042856Y-60914819D02*
X143804761Y-60914819D01*
X143804761Y-60914819D02*
X143709523Y-60962438D01*
X143709523Y-60962438D02*
X143661904Y-61010057D01*
X143661904Y-61010057D02*
X143614285Y-61105295D01*
X143614285Y-61105295D02*
X143614285Y-61200533D01*
X143614285Y-61200533D02*
X143661904Y-61343390D01*
X143661904Y-61343390D02*
X144233332Y-61914819D01*
X144233332Y-61914819D02*
X143614285Y-61914819D01*
X144566666Y-59279580D02*
X144614285Y-59327200D01*
X144614285Y-59327200D02*
X144757142Y-59374819D01*
X144757142Y-59374819D02*
X144852380Y-59374819D01*
X144852380Y-59374819D02*
X144995237Y-59327200D01*
X144995237Y-59327200D02*
X145090475Y-59231961D01*
X145090475Y-59231961D02*
X145138094Y-59136723D01*
X145138094Y-59136723D02*
X145185713Y-58946247D01*
X145185713Y-58946247D02*
X145185713Y-58803390D01*
X145185713Y-58803390D02*
X145138094Y-58612914D01*
X145138094Y-58612914D02*
X145090475Y-58517676D01*
X145090475Y-58517676D02*
X144995237Y-58422438D01*
X144995237Y-58422438D02*
X144852380Y-58374819D01*
X144852380Y-58374819D02*
X144757142Y-58374819D01*
X144757142Y-58374819D02*
X144614285Y-58422438D01*
X144614285Y-58422438D02*
X144566666Y-58470057D01*
X143614285Y-59374819D02*
X144185713Y-59374819D01*
X143899999Y-59374819D02*
X143899999Y-58374819D01*
X143899999Y-58374819D02*
X143995237Y-58517676D01*
X143995237Y-58517676D02*
X144090475Y-58612914D01*
X144090475Y-58612914D02*
X144185713Y-58660533D01*
X150314285Y-66709104D02*
X149838095Y-66709104D01*
X150409523Y-66994819D02*
X150076190Y-65994819D01*
X150076190Y-65994819D02*
X149742857Y-66994819D01*
X148885714Y-66994819D02*
X149457142Y-66994819D01*
X149171428Y-66994819D02*
X149171428Y-65994819D01*
X149171428Y-65994819D02*
X149266666Y-66137676D01*
X149266666Y-66137676D02*
X149361904Y-66232914D01*
X149361904Y-66232914D02*
X149457142Y-66280533D01*
X150361904Y-60962438D02*
X150457142Y-60914819D01*
X150457142Y-60914819D02*
X150599999Y-60914819D01*
X150599999Y-60914819D02*
X150742856Y-60962438D01*
X150742856Y-60962438D02*
X150838094Y-61057676D01*
X150838094Y-61057676D02*
X150885713Y-61152914D01*
X150885713Y-61152914D02*
X150933332Y-61343390D01*
X150933332Y-61343390D02*
X150933332Y-61486247D01*
X150933332Y-61486247D02*
X150885713Y-61676723D01*
X150885713Y-61676723D02*
X150838094Y-61771961D01*
X150838094Y-61771961D02*
X150742856Y-61867200D01*
X150742856Y-61867200D02*
X150599999Y-61914819D01*
X150599999Y-61914819D02*
X150504761Y-61914819D01*
X150504761Y-61914819D02*
X150361904Y-61867200D01*
X150361904Y-61867200D02*
X150314285Y-61819580D01*
X150314285Y-61819580D02*
X150314285Y-61486247D01*
X150314285Y-61486247D02*
X150504761Y-61486247D01*
X149885713Y-61914819D02*
X149885713Y-60914819D01*
X149885713Y-60914819D02*
X149314285Y-61914819D01*
X149314285Y-61914819D02*
X149314285Y-60914819D01*
X148838094Y-61914819D02*
X148838094Y-60914819D01*
X148838094Y-60914819D02*
X148599999Y-60914819D01*
X148599999Y-60914819D02*
X148457142Y-60962438D01*
X148457142Y-60962438D02*
X148361904Y-61057676D01*
X148361904Y-61057676D02*
X148314285Y-61152914D01*
X148314285Y-61152914D02*
X148266666Y-61343390D01*
X148266666Y-61343390D02*
X148266666Y-61486247D01*
X148266666Y-61486247D02*
X148314285Y-61676723D01*
X148314285Y-61676723D02*
X148361904Y-61771961D01*
X148361904Y-61771961D02*
X148457142Y-61867200D01*
X148457142Y-61867200D02*
X148599999Y-61914819D01*
X148599999Y-61914819D02*
X148838094Y-61914819D01*
X149790476Y-58374819D02*
X150266666Y-58374819D01*
X150266666Y-58374819D02*
X150314285Y-58851009D01*
X150314285Y-58851009D02*
X150266666Y-58803390D01*
X150266666Y-58803390D02*
X150171428Y-58755771D01*
X150171428Y-58755771D02*
X149933333Y-58755771D01*
X149933333Y-58755771D02*
X149838095Y-58803390D01*
X149838095Y-58803390D02*
X149790476Y-58851009D01*
X149790476Y-58851009D02*
X149742857Y-58946247D01*
X149742857Y-58946247D02*
X149742857Y-59184342D01*
X149742857Y-59184342D02*
X149790476Y-59279580D01*
X149790476Y-59279580D02*
X149838095Y-59327200D01*
X149838095Y-59327200D02*
X149933333Y-59374819D01*
X149933333Y-59374819D02*
X150171428Y-59374819D01*
X150171428Y-59374819D02*
X150266666Y-59327200D01*
X150266666Y-59327200D02*
X150314285Y-59279580D01*
X149457142Y-58374819D02*
X149123809Y-59374819D01*
X149123809Y-59374819D02*
X148790476Y-58374819D01*
X146019047Y-66994819D02*
X146019047Y-65994819D01*
X146019047Y-65994819D02*
X145780952Y-65994819D01*
X145780952Y-65994819D02*
X145638095Y-66042438D01*
X145638095Y-66042438D02*
X145542857Y-66137676D01*
X145542857Y-66137676D02*
X145495238Y-66232914D01*
X145495238Y-66232914D02*
X145447619Y-66423390D01*
X145447619Y-66423390D02*
X145447619Y-66566247D01*
X145447619Y-66566247D02*
X145495238Y-66756723D01*
X145495238Y-66756723D02*
X145542857Y-66851961D01*
X145542857Y-66851961D02*
X145638095Y-66947200D01*
X145638095Y-66947200D02*
X145780952Y-66994819D01*
X145780952Y-66994819D02*
X146019047Y-66994819D01*
X144542857Y-66994819D02*
X145019047Y-66994819D01*
X145019047Y-66994819D02*
X145019047Y-65994819D01*
X144209523Y-66471009D02*
X143876190Y-66471009D01*
X143733333Y-66994819D02*
X144209523Y-66994819D01*
X144209523Y-66994819D02*
X144209523Y-65994819D01*
X144209523Y-65994819D02*
X143733333Y-65994819D01*
X143304761Y-66994819D02*
X143304761Y-65994819D01*
X143304761Y-65994819D02*
X143066666Y-65994819D01*
X143066666Y-65994819D02*
X142923809Y-66042438D01*
X142923809Y-66042438D02*
X142828571Y-66137676D01*
X142828571Y-66137676D02*
X142780952Y-66232914D01*
X142780952Y-66232914D02*
X142733333Y-66423390D01*
X142733333Y-66423390D02*
X142733333Y-66566247D01*
X142733333Y-66566247D02*
X142780952Y-66756723D01*
X142780952Y-66756723D02*
X142828571Y-66851961D01*
X142828571Y-66851961D02*
X142923809Y-66947200D01*
X142923809Y-66947200D02*
X143066666Y-66994819D01*
X143066666Y-66994819D02*
X143304761Y-66994819D01*
X144666666Y-56859580D02*
X144714285Y-56907200D01*
X144714285Y-56907200D02*
X144857142Y-56954819D01*
X144857142Y-56954819D02*
X144952380Y-56954819D01*
X144952380Y-56954819D02*
X145095237Y-56907200D01*
X145095237Y-56907200D02*
X145190475Y-56811961D01*
X145190475Y-56811961D02*
X145238094Y-56716723D01*
X145238094Y-56716723D02*
X145285713Y-56526247D01*
X145285713Y-56526247D02*
X145285713Y-56383390D01*
X145285713Y-56383390D02*
X145238094Y-56192914D01*
X145238094Y-56192914D02*
X145190475Y-56097676D01*
X145190475Y-56097676D02*
X145095237Y-56002438D01*
X145095237Y-56002438D02*
X144952380Y-55954819D01*
X144952380Y-55954819D02*
X144857142Y-55954819D01*
X144857142Y-55954819D02*
X144714285Y-56002438D01*
X144714285Y-56002438D02*
X144666666Y-56050057D01*
X144047618Y-55954819D02*
X143952380Y-55954819D01*
X143952380Y-55954819D02*
X143857142Y-56002438D01*
X143857142Y-56002438D02*
X143809523Y-56050057D01*
X143809523Y-56050057D02*
X143761904Y-56145295D01*
X143761904Y-56145295D02*
X143714285Y-56335771D01*
X143714285Y-56335771D02*
X143714285Y-56573866D01*
X143714285Y-56573866D02*
X143761904Y-56764342D01*
X143761904Y-56764342D02*
X143809523Y-56859580D01*
X143809523Y-56859580D02*
X143857142Y-56907200D01*
X143857142Y-56907200D02*
X143952380Y-56954819D01*
X143952380Y-56954819D02*
X144047618Y-56954819D01*
X144047618Y-56954819D02*
X144142856Y-56907200D01*
X144142856Y-56907200D02*
X144190475Y-56859580D01*
X144190475Y-56859580D02*
X144238094Y-56764342D01*
X144238094Y-56764342D02*
X144285713Y-56573866D01*
X144285713Y-56573866D02*
X144285713Y-56335771D01*
X144285713Y-56335771D02*
X144238094Y-56145295D01*
X144238094Y-56145295D02*
X144190475Y-56050057D01*
X144190475Y-56050057D02*
X144142856Y-56002438D01*
X144142856Y-56002438D02*
X144047618Y-55954819D01*
X150314285Y-64169104D02*
X149838095Y-64169104D01*
X150409523Y-64454819D02*
X150076190Y-63454819D01*
X150076190Y-63454819D02*
X149742857Y-64454819D01*
X149219047Y-63454819D02*
X149123809Y-63454819D01*
X149123809Y-63454819D02*
X149028571Y-63502438D01*
X149028571Y-63502438D02*
X148980952Y-63550057D01*
X148980952Y-63550057D02*
X148933333Y-63645295D01*
X148933333Y-63645295D02*
X148885714Y-63835771D01*
X148885714Y-63835771D02*
X148885714Y-64073866D01*
X148885714Y-64073866D02*
X148933333Y-64264342D01*
X148933333Y-64264342D02*
X148980952Y-64359580D01*
X148980952Y-64359580D02*
X149028571Y-64407200D01*
X149028571Y-64407200D02*
X149123809Y-64454819D01*
X149123809Y-64454819D02*
X149219047Y-64454819D01*
X149219047Y-64454819D02*
X149314285Y-64407200D01*
X149314285Y-64407200D02*
X149361904Y-64359580D01*
X149361904Y-64359580D02*
X149409523Y-64264342D01*
X149409523Y-64264342D02*
X149457142Y-64073866D01*
X149457142Y-64073866D02*
X149457142Y-63835771D01*
X149457142Y-63835771D02*
X149409523Y-63645295D01*
X149409523Y-63645295D02*
X149361904Y-63550057D01*
X149361904Y-63550057D02*
X149314285Y-63502438D01*
X149314285Y-63502438D02*
X149219047Y-63454819D01*
X151076189Y-55774819D02*
X150457142Y-55774819D01*
X150457142Y-55774819D02*
X150790475Y-56155771D01*
X150790475Y-56155771D02*
X150647618Y-56155771D01*
X150647618Y-56155771D02*
X150552380Y-56203390D01*
X150552380Y-56203390D02*
X150504761Y-56251009D01*
X150504761Y-56251009D02*
X150457142Y-56346247D01*
X150457142Y-56346247D02*
X150457142Y-56584342D01*
X150457142Y-56584342D02*
X150504761Y-56679580D01*
X150504761Y-56679580D02*
X150552380Y-56727200D01*
X150552380Y-56727200D02*
X150647618Y-56774819D01*
X150647618Y-56774819D02*
X150933332Y-56774819D01*
X150933332Y-56774819D02*
X151028570Y-56727200D01*
X151028570Y-56727200D02*
X151076189Y-56679580D01*
X150028570Y-56679580D02*
X149980951Y-56727200D01*
X149980951Y-56727200D02*
X150028570Y-56774819D01*
X150028570Y-56774819D02*
X150076189Y-56727200D01*
X150076189Y-56727200D02*
X150028570Y-56679580D01*
X150028570Y-56679580D02*
X150028570Y-56774819D01*
X149647618Y-55774819D02*
X149028571Y-55774819D01*
X149028571Y-55774819D02*
X149361904Y-56155771D01*
X149361904Y-56155771D02*
X149219047Y-56155771D01*
X149219047Y-56155771D02*
X149123809Y-56203390D01*
X149123809Y-56203390D02*
X149076190Y-56251009D01*
X149076190Y-56251009D02*
X149028571Y-56346247D01*
X149028571Y-56346247D02*
X149028571Y-56584342D01*
X149028571Y-56584342D02*
X149076190Y-56679580D01*
X149076190Y-56679580D02*
X149123809Y-56727200D01*
X149123809Y-56727200D02*
X149219047Y-56774819D01*
X149219047Y-56774819D02*
X149504761Y-56774819D01*
X149504761Y-56774819D02*
X149599999Y-56727200D01*
X149599999Y-56727200D02*
X149647618Y-56679580D01*
X148742856Y-55774819D02*
X148409523Y-56774819D01*
X148409523Y-56774819D02*
X148076190Y-55774819D01*
X150314285Y-69249104D02*
X149838095Y-69249104D01*
X150409523Y-69534819D02*
X150076190Y-68534819D01*
X150076190Y-68534819D02*
X149742857Y-69534819D01*
X149457142Y-68630057D02*
X149409523Y-68582438D01*
X149409523Y-68582438D02*
X149314285Y-68534819D01*
X149314285Y-68534819D02*
X149076190Y-68534819D01*
X149076190Y-68534819D02*
X148980952Y-68582438D01*
X148980952Y-68582438D02*
X148933333Y-68630057D01*
X148933333Y-68630057D02*
X148885714Y-68725295D01*
X148885714Y-68725295D02*
X148885714Y-68820533D01*
X148885714Y-68820533D02*
X148933333Y-68963390D01*
X148933333Y-68963390D02*
X149504761Y-69534819D01*
X149504761Y-69534819D02*
X148885714Y-69534819D01*
X145161904Y-63502438D02*
X145257142Y-63454819D01*
X145257142Y-63454819D02*
X145399999Y-63454819D01*
X145399999Y-63454819D02*
X145542856Y-63502438D01*
X145542856Y-63502438D02*
X145638094Y-63597676D01*
X145638094Y-63597676D02*
X145685713Y-63692914D01*
X145685713Y-63692914D02*
X145733332Y-63883390D01*
X145733332Y-63883390D02*
X145733332Y-64026247D01*
X145733332Y-64026247D02*
X145685713Y-64216723D01*
X145685713Y-64216723D02*
X145638094Y-64311961D01*
X145638094Y-64311961D02*
X145542856Y-64407200D01*
X145542856Y-64407200D02*
X145399999Y-64454819D01*
X145399999Y-64454819D02*
X145304761Y-64454819D01*
X145304761Y-64454819D02*
X145161904Y-64407200D01*
X145161904Y-64407200D02*
X145114285Y-64359580D01*
X145114285Y-64359580D02*
X145114285Y-64026247D01*
X145114285Y-64026247D02*
X145304761Y-64026247D01*
X144685713Y-64454819D02*
X144685713Y-63454819D01*
X144685713Y-63454819D02*
X144114285Y-64454819D01*
X144114285Y-64454819D02*
X144114285Y-63454819D01*
X143638094Y-64454819D02*
X143638094Y-63454819D01*
X143638094Y-63454819D02*
X143399999Y-63454819D01*
X143399999Y-63454819D02*
X143257142Y-63502438D01*
X143257142Y-63502438D02*
X143161904Y-63597676D01*
X143161904Y-63597676D02*
X143114285Y-63692914D01*
X143114285Y-63692914D02*
X143066666Y-63883390D01*
X143066666Y-63883390D02*
X143066666Y-64026247D01*
X143066666Y-64026247D02*
X143114285Y-64216723D01*
X143114285Y-64216723D02*
X143161904Y-64311961D01*
X143161904Y-64311961D02*
X143257142Y-64407200D01*
X143257142Y-64407200D02*
X143399999Y-64454819D01*
X143399999Y-64454819D02*
X143638094Y-64454819D01*
X144590476Y-68534819D02*
X145066666Y-68534819D01*
X145066666Y-68534819D02*
X145114285Y-69011009D01*
X145114285Y-69011009D02*
X145066666Y-68963390D01*
X145066666Y-68963390D02*
X144971428Y-68915771D01*
X144971428Y-68915771D02*
X144733333Y-68915771D01*
X144733333Y-68915771D02*
X144638095Y-68963390D01*
X144638095Y-68963390D02*
X144590476Y-69011009D01*
X144590476Y-69011009D02*
X144542857Y-69106247D01*
X144542857Y-69106247D02*
X144542857Y-69344342D01*
X144542857Y-69344342D02*
X144590476Y-69439580D01*
X144590476Y-69439580D02*
X144638095Y-69487200D01*
X144638095Y-69487200D02*
X144733333Y-69534819D01*
X144733333Y-69534819D02*
X144971428Y-69534819D01*
X144971428Y-69534819D02*
X145066666Y-69487200D01*
X145066666Y-69487200D02*
X145114285Y-69439580D01*
X144257142Y-68534819D02*
X143923809Y-69534819D01*
X143923809Y-69534819D02*
X143590476Y-68534819D01*
D11*
%TO.C,J5*%
X143400000Y-107200000D02*
X143400000Y-104800000D01*
X143400000Y-104800000D02*
X141000000Y-104800000D01*
X141000000Y-107200000D02*
X143400000Y-107200000D01*
X141000000Y-104800000D02*
X141000000Y-107200000D01*
%TO.C,J6*%
X143400000Y-95200000D02*
X143400000Y-92800000D01*
X143400000Y-92800000D02*
X141000000Y-92800000D01*
X141000000Y-95200000D02*
X143400000Y-95200000D01*
X141000000Y-92800000D02*
X141000000Y-95200000D01*
%TO.C,J4*%
X143400000Y-87200000D02*
X143400000Y-84800000D01*
X143400000Y-84800000D02*
X141000000Y-84800000D01*
X141000000Y-87200000D02*
X143400000Y-87200000D01*
X141000000Y-84800000D02*
X141000000Y-87200000D01*
%TO.C,J9*%
X143400000Y-103200000D02*
X143400000Y-100800000D01*
X143400000Y-100800000D02*
X141000000Y-100800000D01*
X141000000Y-103200000D02*
X143400000Y-103200000D01*
X141000000Y-100800000D02*
X141000000Y-103200000D01*
%TO.C,J7*%
X143400000Y-83200000D02*
X143400000Y-80800000D01*
X143400000Y-80800000D02*
X141000000Y-80800000D01*
X141000000Y-83200000D02*
X143400000Y-83200000D01*
X141000000Y-80800000D02*
X141000000Y-83200000D01*
%TO.C,J10*%
X143400000Y-91200000D02*
X143400000Y-88800000D01*
X143400000Y-88800000D02*
X141000000Y-88800000D01*
X141000000Y-91200000D02*
X143400000Y-91200000D01*
X141000000Y-88800000D02*
X141000000Y-91200000D01*
%TO.C,J8*%
X143400000Y-79200000D02*
X143400000Y-76800000D01*
X143400000Y-76800000D02*
X141000000Y-76800000D01*
X141000000Y-79200000D02*
X143400000Y-79200000D01*
X141000000Y-76800000D02*
X141000000Y-79200000D01*
%TO.C,J2*%
X143400000Y-111200000D02*
X143400000Y-108800000D01*
X143400000Y-108800000D02*
X141000000Y-108800000D01*
X141000000Y-111200000D02*
X143400000Y-111200000D01*
X141000000Y-108800000D02*
X141000000Y-111200000D01*
%TO.C,J3*%
X143400000Y-99200000D02*
X143400000Y-96800000D01*
X143400000Y-96800000D02*
X141000000Y-96800000D01*
X141000000Y-99200000D02*
X143400000Y-99200000D01*
X141000000Y-96800000D02*
X141000000Y-99200000D01*
%TD*%
%LPC*%
D12*
%TO.C,D7*%
X146280000Y-102000000D03*
D13*
X138660000Y-102000000D03*
%TD*%
D12*
%TO.C,D8*%
X146280000Y-90000000D03*
D13*
X138660000Y-90000000D03*
%TD*%
D14*
%TO.C,SW1*%
X156250000Y-77750000D03*
X149750000Y-82250000D03*
X156250000Y-82250000D03*
X149750000Y-77750000D03*
%TD*%
D12*
%TO.C,D9*%
X146280000Y-78000000D03*
D13*
X138660000Y-78000000D03*
%TD*%
D15*
%TO.C,R2*%
X151000000Y-97000000D03*
D13*
X151000000Y-86840000D03*
%TD*%
D12*
%TO.C,D2*%
X146280000Y-98000000D03*
D13*
X138660000Y-98000000D03*
%TD*%
D12*
%TO.C,D1*%
X146280000Y-110000000D03*
D13*
X138660000Y-110000000D03*
%TD*%
D12*
%TO.C,D6*%
X146280000Y-82000000D03*
D13*
X138660000Y-82000000D03*
%TD*%
D12*
%TO.C,D3*%
X146280000Y-86000000D03*
D13*
X138660000Y-86000000D03*
%TD*%
D12*
%TO.C,D4*%
X146280000Y-106000000D03*
D13*
X138660000Y-106000000D03*
%TD*%
D15*
%TO.C,R1*%
X155000000Y-97000000D03*
D13*
X155000000Y-86840000D03*
%TD*%
D15*
%TO.C,R3*%
X151000000Y-110000000D03*
D13*
X151000000Y-99840000D03*
%TD*%
D15*
%TO.C,R5*%
X155000000Y-110000000D03*
D13*
X155000000Y-99840000D03*
%TD*%
D12*
%TO.C,D5*%
X146280000Y-94000000D03*
D13*
X138660000Y-94000000D03*
%TD*%
D16*
%TO.C,J5*%
X142200000Y-106000000D03*
%TD*%
%TO.C,J6*%
X142200000Y-94000000D03*
%TD*%
D17*
%TO.C,J1*%
X149525000Y-57650000D03*
X144475000Y-57650000D03*
X149525000Y-60190000D03*
X144475000Y-60190000D03*
X149525000Y-62730000D03*
X144475000Y-62730000D03*
X149525000Y-65270000D03*
X144475000Y-65270000D03*
X149525000Y-67810000D03*
X144475000Y-67810000D03*
X149525000Y-70350000D03*
X144475000Y-70350000D03*
%TD*%
D16*
%TO.C,J4*%
X142200000Y-86000000D03*
%TD*%
%TO.C,J9*%
X142200000Y-102000000D03*
%TD*%
%TO.C,J7*%
X142200000Y-82000000D03*
%TD*%
%TO.C,J10*%
X142200000Y-90000000D03*
%TD*%
%TO.C,J8*%
X142200000Y-78000000D03*
%TD*%
%TO.C,J2*%
X142200000Y-110000000D03*
%TD*%
%TO.C,J3*%
X142200000Y-98000000D03*
%TD*%
%LPD*%
M02*
