%TF.GenerationSoftware,KiCad,Pcbnew,7.0.7*%
%TF.CreationDate,2024-02-05T11:41:39-08:00*%
%TF.ProjectId,Macro Pad 2 PCB,4d616372-6f20-4506-9164-203220504342,rev?*%
%TF.SameCoordinates,Original*%
%TF.FileFunction,Copper,L2,Bot*%
%TF.FilePolarity,Positive*%
%FSLAX46Y46*%
G04 Gerber Fmt 4.6, Leading zero omitted, Abs format (unit mm)*
G04 Created by KiCad (PCBNEW 7.0.7) date 2024-02-05 11:41:39*
%MOMM*%
%LPD*%
G01*
G04 APERTURE LIST*
%TA.AperFunction,SMDPad,CuDef*%
%ADD10R,2.000000X2.000000*%
%TD*%
%TA.AperFunction,ComponentPad*%
%ADD11R,1.600000X1.600000*%
%TD*%
%TA.AperFunction,ComponentPad*%
%ADD12O,1.600000X1.600000*%
%TD*%
%TA.AperFunction,ComponentPad*%
%ADD13C,1.800000*%
%TD*%
%TA.AperFunction,ComponentPad*%
%ADD14C,1.600000*%
%TD*%
%TA.AperFunction,SMDPad,CuDef*%
%ADD15R,3.150000X1.000000*%
%TD*%
%TA.AperFunction,ViaPad*%
%ADD16C,0.800000*%
%TD*%
%TA.AperFunction,Conductor*%
%ADD17C,0.254000*%
%TD*%
%TA.AperFunction,Conductor*%
%ADD18C,0.381000*%
%TD*%
G04 APERTURE END LIST*
D10*
%TO.P,J2,1,1*%
%TO.N,Net-(D1-A)*%
X142200000Y-110000000D03*
%TD*%
%TO.P,J5,1,1*%
%TO.N,Net-(D4-A)*%
X142200000Y-106000000D03*
%TD*%
%TO.P,J9,1,1*%
%TO.N,Net-(D7-A)*%
X142200000Y-102000000D03*
%TD*%
%TO.P,J3,1,1*%
%TO.N,Net-(D2-A)*%
X142200000Y-98000000D03*
%TD*%
%TO.P,J6,1,1*%
%TO.N,Net-(D5-A)*%
X142200000Y-94000000D03*
%TD*%
%TO.P,J10,1,1*%
%TO.N,Net-(D8-A)*%
X142200000Y-90000000D03*
%TD*%
%TO.P,J4,1,1*%
%TO.N,Net-(D3-A)*%
X142200000Y-86000000D03*
%TD*%
%TO.P,J7,1,1*%
%TO.N,Net-(D6-A)*%
X142200000Y-82000000D03*
%TD*%
%TO.P,J8,1,1*%
%TO.N,Net-(D9-A)*%
X142200000Y-78000000D03*
%TD*%
D11*
%TO.P,D7,1,K*%
%TO.N,R0*%
X146280000Y-102000000D03*
D12*
%TO.P,D7,2,A*%
%TO.N,Net-(D7-A)*%
X138660000Y-102000000D03*
%TD*%
D11*
%TO.P,D8,1,K*%
%TO.N,R1*%
X146280000Y-90000000D03*
D12*
%TO.P,D8,2,A*%
%TO.N,Net-(D8-A)*%
X138660000Y-90000000D03*
%TD*%
D13*
%TO.P,SW1,1,A*%
%TO.N,Net-(U1-PB09_A7_D7_RX)*%
X156250000Y-77750000D03*
%TO.P,SW1,2,A*%
X149750000Y-82250000D03*
%TO.P,SW1,3,B*%
%TO.N,Net-(R5-Pad2)*%
X156250000Y-82250000D03*
%TO.P,SW1,4,B*%
X149750000Y-77750000D03*
%TD*%
D11*
%TO.P,D9,1,K*%
%TO.N,R2*%
X146280000Y-78000000D03*
D12*
%TO.P,D9,2,A*%
%TO.N,Net-(D9-A)*%
X138660000Y-78000000D03*
%TD*%
D14*
%TO.P,R2,1*%
%TO.N,+3.3V*%
X151000000Y-97000000D03*
D12*
%TO.P,R2,2*%
%TO.N,C1*%
X151000000Y-86840000D03*
%TD*%
D11*
%TO.P,D2,1,K*%
%TO.N,R1*%
X146280000Y-98000000D03*
D12*
%TO.P,D2,2,A*%
%TO.N,Net-(D2-A)*%
X138660000Y-98000000D03*
%TD*%
D11*
%TO.P,D1,1,K*%
%TO.N,R0*%
X146280000Y-110000000D03*
D12*
%TO.P,D1,2,A*%
%TO.N,Net-(D1-A)*%
X138660000Y-110000000D03*
%TD*%
D11*
%TO.P,D6,1,K*%
%TO.N,R2*%
X146280000Y-82000000D03*
D12*
%TO.P,D6,2,A*%
%TO.N,Net-(D6-A)*%
X138660000Y-82000000D03*
%TD*%
D11*
%TO.P,D3,1,K*%
%TO.N,R2*%
X146280000Y-86000000D03*
D12*
%TO.P,D3,2,A*%
%TO.N,Net-(D3-A)*%
X138660000Y-86000000D03*
%TD*%
D11*
%TO.P,D4,1,K*%
%TO.N,R0*%
X146280000Y-106000000D03*
D12*
%TO.P,D4,2,A*%
%TO.N,Net-(D4-A)*%
X138660000Y-106000000D03*
%TD*%
D14*
%TO.P,R1,1*%
%TO.N,+3.3V*%
X155000000Y-97000000D03*
D12*
%TO.P,R1,2*%
%TO.N,C0*%
X155000000Y-86840000D03*
%TD*%
D14*
%TO.P,R3,1*%
%TO.N,C2*%
X151000000Y-110000000D03*
D12*
%TO.P,R3,2*%
%TO.N,+3.3V*%
X151000000Y-99840000D03*
%TD*%
D14*
%TO.P,R5,1*%
%TO.N,GND*%
X155000000Y-110000000D03*
D12*
%TO.P,R5,2*%
%TO.N,Net-(R5-Pad2)*%
X155000000Y-99840000D03*
%TD*%
D11*
%TO.P,D5,1,K*%
%TO.N,R1*%
X146280000Y-94000000D03*
D12*
%TO.P,D5,2,A*%
%TO.N,Net-(D5-A)*%
X138660000Y-94000000D03*
%TD*%
D15*
%TO.P,J1,1,Pin_1*%
%TO.N,+5V*%
X149525000Y-57650000D03*
%TO.P,J1,2,Pin_2*%
%TO.N,A0*%
X144475000Y-57650000D03*
%TO.P,J1,3,Pin_3*%
%TO.N,GND*%
X149525000Y-60190000D03*
%TO.P,J1,4,Pin_4*%
%TO.N,A1*%
X144475000Y-60190000D03*
%TO.P,J1,5,Pin_5*%
%TO.N,+3.3V*%
X149525000Y-62730000D03*
%TO.P,J1,6,Pin_6*%
%TO.N,A2*%
X144475000Y-62730000D03*
%TO.P,J1,7,Pin_7*%
%TO.N,C0*%
X149525000Y-65270000D03*
%TO.P,J1,8,Pin_8*%
%TO.N,GND*%
X144475000Y-65270000D03*
%TO.P,J1,9,Pin_9*%
%TO.N,C1*%
X149525000Y-67810000D03*
%TO.P,J1,10,Pin_10*%
%TO.N,DLED*%
X144475000Y-67810000D03*
%TO.P,J1,11,Pin_11*%
%TO.N,C2*%
X149525000Y-70350000D03*
%TO.P,J1,12,Pin_12*%
%TO.N,+5V*%
X144475000Y-70350000D03*
%TD*%
D16*
%TO.N,R0*%
X134500000Y-102000000D03*
%TO.N,R1*%
X135500000Y-90000000D03*
%TO.N,R2*%
X136500000Y-78000000D03*
%TO.N,+5V*%
X152560000Y-55300000D03*
X146920000Y-58920000D03*
X146920000Y-68680000D03*
%TO.N,GND*%
X152760000Y-58010000D03*
%TO.N,C0*%
X152450000Y-63580000D03*
%TO.N,C1*%
X152660000Y-65710000D03*
%TO.N,C2*%
X152580000Y-68170000D03*
%TO.N,DLED*%
X141500000Y-69000000D03*
%TO.N,A0*%
X142010000Y-55920000D03*
%TO.N,A1*%
X141490000Y-57970000D03*
%TO.N,A2*%
X141370000Y-60490000D03*
%TO.N,+3.3V*%
X152830000Y-60730000D03*
%TD*%
D17*
%TO.N,R0*%
X144953000Y-104673000D02*
X146280000Y-106000000D01*
X137173000Y-104673000D02*
X144953000Y-104673000D01*
X134500000Y-102000000D02*
X137173000Y-104673000D01*
%TO.N,Net-(D1-A)*%
X138660000Y-110000000D02*
X142200000Y-110000000D01*
%TO.N,R1*%
X144953000Y-92673000D02*
X146280000Y-94000000D01*
X135500000Y-90000000D02*
X138173000Y-92673000D01*
X138173000Y-92673000D02*
X144953000Y-92673000D01*
%TO.N,Net-(D2-A)*%
X142200000Y-98000000D02*
X138660000Y-98000000D01*
%TO.N,R2*%
X139173000Y-80673000D02*
X144953000Y-80673000D01*
X144953000Y-80673000D02*
X146280000Y-82000000D01*
X136500000Y-78000000D02*
X139173000Y-80673000D01*
%TO.N,Net-(D3-A)*%
X138660000Y-86000000D02*
X142200000Y-86000000D01*
%TO.N,Net-(D4-A)*%
X138660000Y-106000000D02*
X142200000Y-106000000D01*
%TO.N,Net-(D5-A)*%
X142200000Y-94000000D02*
X138660000Y-94000000D01*
%TO.N,Net-(D6-A)*%
X138660000Y-82000000D02*
X142200000Y-82000000D01*
%TO.N,Net-(D7-A)*%
X138660000Y-102000000D02*
X142200000Y-102000000D01*
%TO.N,Net-(D8-A)*%
X142200000Y-90000000D02*
X138660000Y-90000000D01*
%TO.N,Net-(D9-A)*%
X138660000Y-78000000D02*
X142200000Y-78000000D01*
D18*
%TO.N,+5V*%
X151875000Y-55300000D02*
X149525000Y-57650000D01*
X145250000Y-70350000D02*
X144475000Y-70350000D01*
X152560000Y-55300000D02*
X151875000Y-55300000D01*
X149525000Y-57650000D02*
X148190000Y-57650000D01*
X146920000Y-68680000D02*
X145250000Y-70350000D01*
X148190000Y-57650000D02*
X146920000Y-58920000D01*
%TO.N,GND*%
X150580000Y-60190000D02*
X149525000Y-60190000D01*
X149525000Y-60190000D02*
X149209000Y-60190000D01*
X147290000Y-64880000D02*
X146900000Y-65270000D01*
X146900000Y-65270000D02*
X144475000Y-65270000D01*
X147290000Y-62109000D02*
X147290000Y-64880000D01*
X152760000Y-58010000D02*
X150580000Y-60190000D01*
X149209000Y-60190000D02*
X147290000Y-62109000D01*
D17*
%TO.N,C0*%
X152450000Y-63580000D02*
X151215000Y-63580000D01*
X151215000Y-63580000D02*
X149525000Y-65270000D01*
%TO.N,C1*%
X152660000Y-65710000D02*
X151625000Y-65710000D01*
X151625000Y-65710000D02*
X149525000Y-67810000D01*
%TO.N,C2*%
X152580000Y-68170000D02*
X151705000Y-68170000D01*
X151705000Y-68170000D02*
X149525000Y-70350000D01*
%TO.N,DLED*%
X141500000Y-69000000D02*
X142690000Y-67810000D01*
X142690000Y-67810000D02*
X144475000Y-67810000D01*
%TO.N,Net-(R5-Pad2)*%
X156250000Y-82250000D02*
X156250000Y-98590000D01*
X156250000Y-98590000D02*
X155000000Y-99840000D01*
%TO.N,A0*%
X142010000Y-55920000D02*
X142745000Y-55920000D01*
X142745000Y-55920000D02*
X144475000Y-57650000D01*
%TO.N,A1*%
X141490000Y-57970000D02*
X143710000Y-60190000D01*
X143710000Y-60190000D02*
X144475000Y-60190000D01*
%TO.N,A2*%
X141370000Y-60490000D02*
X143610000Y-62730000D01*
X143610000Y-62730000D02*
X144475000Y-62730000D01*
%TO.N,+3.3V*%
X151525000Y-60730000D02*
X149525000Y-62730000D01*
X153873000Y-61773000D02*
X152830000Y-60730000D01*
X152830000Y-60730000D02*
X151525000Y-60730000D01*
X153873000Y-95873000D02*
X153873000Y-61773000D01*
X151000000Y-99840000D02*
X151000000Y-97000000D01*
X155000000Y-97000000D02*
X151000000Y-97000000D01*
X155000000Y-97000000D02*
X153873000Y-95873000D01*
%TD*%
M02*
