M48
; DRILL file {KiCad 7.0.7} date Mon Feb  5 11:41:40 2024
; FORMAT={-:-/ absolute / metric / decimal}
; #@! TF.CreationDate,2024-02-05T11:41:40-08:00
; #@! TF.GenerationSoftware,Kicad,Pcbnew,7.0.7
; #@! TF.FileFunction,Plated,1,2,PTH
FMAT,2
METRIC
; #@! TA.AperFunction,Plated,PTH,ViaDrill
T1C0.400
; #@! TA.AperFunction,Plated,PTH,ComponentDrill
T2C0.800
; #@! TA.AperFunction,Plated,PTH,ComponentDrill
T3C1.000
%
G90
G05
T1
X134.5Y-102.0
X135.5Y-90.0
X136.5Y-78.0
X141.37Y-60.49
X141.49Y-57.97
X141.5Y-69.0
X142.01Y-55.92
X146.92Y-58.92
X146.92Y-68.68
X152.45Y-63.58
X152.56Y-55.3
X152.58Y-68.17
X152.66Y-65.71
X152.76Y-58.01
X152.83Y-60.73
T2
X138.66Y-78.0
X138.66Y-82.0
X138.66Y-86.0
X138.66Y-90.0
X138.66Y-94.0
X138.66Y-98.0
X138.66Y-102.0
X138.66Y-106.0
X138.66Y-110.0
X146.28Y-78.0
X146.28Y-82.0
X146.28Y-86.0
X146.28Y-90.0
X146.28Y-94.0
X146.28Y-98.0
X146.28Y-102.0
X146.28Y-106.0
X146.28Y-110.0
X151.0Y-86.84
X151.0Y-97.0
X151.0Y-99.84
X151.0Y-110.0
X155.0Y-86.84
X155.0Y-97.0
X155.0Y-99.84
X155.0Y-110.0
T3
X149.75Y-77.75
X149.75Y-82.25
X156.25Y-77.75
X156.25Y-82.25
T0
M30
