%TF.GenerationSoftware,KiCad,Pcbnew,(6.0.10)*%
%TF.CreationDate,2023-03-14T21:56:25-07:00*%
%TF.ProjectId,Top PCB,546f7020-5043-4422-9e6b-696361645f70,rev?*%
%TF.SameCoordinates,Original*%
%TF.FileFunction,Soldermask,Top*%
%TF.FilePolarity,Negative*%
%FSLAX46Y46*%
G04 Gerber Fmt 4.6, Leading zero omitted, Abs format (unit mm)*
G04 Created by KiCad (PCBNEW (6.0.10)) date 2023-03-14 21:56:25*
%MOMM*%
%LPD*%
G01*
G04 APERTURE LIST*
%ADD10R,1.600000X1.600000*%
%ADD11O,1.600000X1.600000*%
%ADD12C,1.600000*%
%ADD13C,1.143000*%
%ADD14O,1.016000X2.032000*%
%ADD15O,2.748280X1.998980*%
G04 APERTURE END LIST*
D10*
%TO.C,D9*%
X146280000Y-78000000D03*
D11*
X138660000Y-78000000D03*
%TD*%
D12*
%TO.C,R2*%
X155000000Y-97000000D03*
D11*
X155000000Y-86840000D03*
%TD*%
D12*
%TO.C,R1*%
X151000000Y-97000000D03*
D11*
X151000000Y-86840000D03*
%TD*%
D13*
%TO.C,U1*%
X148348803Y-56530813D03*
X145808803Y-56530813D03*
X148348803Y-53990813D03*
X145808803Y-53990813D03*
D14*
X148360000Y-70995000D03*
X145810000Y-70995000D03*
D15*
X155107680Y-54677180D03*
X155107680Y-57217180D03*
X155107680Y-59757180D03*
X155107680Y-62297180D03*
X155107680Y-64837180D03*
X155107680Y-67377180D03*
X155107680Y-69917180D03*
X138943120Y-69917180D03*
X138943120Y-67377180D03*
X138943120Y-64837180D03*
X138943120Y-62297180D03*
X138943120Y-59757180D03*
X138943120Y-57217180D03*
X138943120Y-54677180D03*
%TD*%
D10*
%TO.C,D7*%
X146280000Y-102000000D03*
D11*
X138660000Y-102000000D03*
%TD*%
D10*
%TO.C,D8*%
X146280000Y-90000000D03*
D11*
X138660000Y-90000000D03*
%TD*%
D10*
%TO.C,D2*%
X146280000Y-98000000D03*
D11*
X138660000Y-98000000D03*
%TD*%
D10*
%TO.C,D1*%
X146280000Y-110000000D03*
D11*
X138660000Y-110000000D03*
%TD*%
D10*
%TO.C,D6*%
X146280000Y-82000000D03*
D11*
X138660000Y-82000000D03*
%TD*%
D10*
%TO.C,D3*%
X146280000Y-86000000D03*
D11*
X138660000Y-86000000D03*
%TD*%
D10*
%TO.C,D4*%
X146280000Y-106000000D03*
D11*
X138660000Y-106000000D03*
%TD*%
D12*
%TO.C,R3*%
X151000000Y-110000000D03*
D11*
X151000000Y-99840000D03*
%TD*%
D12*
%TO.C,R5*%
X155000000Y-110000000D03*
D11*
X155000000Y-99840000D03*
%TD*%
D10*
%TO.C,D5*%
X146280000Y-94000000D03*
D11*
X138660000Y-94000000D03*
%TD*%
M02*
