%TF.GenerationSoftware,KiCad,Pcbnew,(6.0.10)*%
%TF.CreationDate,2023-03-14T21:56:25-07:00*%
%TF.ProjectId,Top PCB,546f7020-5043-4422-9e6b-696361645f70,rev?*%
%TF.SameCoordinates,Original*%
%TF.FileFunction,Soldermask,Bot*%
%TF.FilePolarity,Negative*%
%FSLAX46Y46*%
G04 Gerber Fmt 4.6, Leading zero omitted, Abs format (unit mm)*
G04 Created by KiCad (PCBNEW (6.0.10)) date 2023-03-14 21:56:25*
%MOMM*%
%LPD*%
G01*
G04 APERTURE LIST*
%ADD10R,1.600000X1.600000*%
%ADD11O,1.600000X1.600000*%
%ADD12C,1.800000*%
%ADD13C,1.600000*%
%ADD14R,3.150000X1.000000*%
%ADD15R,2.000000X2.000000*%
G04 APERTURE END LIST*
D10*
%TO.C,D9*%
X146280000Y-78000000D03*
D11*
X138660000Y-78000000D03*
%TD*%
D12*
%TO.C,SW1*%
X156250000Y-77750000D03*
X149750000Y-82250000D03*
X156250000Y-82250000D03*
X149750000Y-77750000D03*
%TD*%
D13*
%TO.C,R2*%
X155000000Y-97000000D03*
D11*
X155000000Y-86840000D03*
%TD*%
D13*
%TO.C,R1*%
X151000000Y-97000000D03*
D11*
X151000000Y-86840000D03*
%TD*%
D14*
%TO.C,J1*%
X149525000Y-57650000D03*
X144475000Y-57650000D03*
X149525000Y-60190000D03*
X144475000Y-60190000D03*
X149525000Y-62730000D03*
X144475000Y-62730000D03*
X149525000Y-65270000D03*
X144475000Y-65270000D03*
X149525000Y-67810000D03*
X144475000Y-67810000D03*
X149525000Y-70350000D03*
X144475000Y-70350000D03*
%TD*%
D10*
%TO.C,D7*%
X146280000Y-102000000D03*
D11*
X138660000Y-102000000D03*
%TD*%
D10*
%TO.C,D8*%
X146280000Y-90000000D03*
D11*
X138660000Y-90000000D03*
%TD*%
D10*
%TO.C,D2*%
X146280000Y-98000000D03*
D11*
X138660000Y-98000000D03*
%TD*%
D10*
%TO.C,D1*%
X146280000Y-110000000D03*
D11*
X138660000Y-110000000D03*
%TD*%
D10*
%TO.C,D6*%
X146280000Y-82000000D03*
D11*
X138660000Y-82000000D03*
%TD*%
D10*
%TO.C,D3*%
X146280000Y-86000000D03*
D11*
X138660000Y-86000000D03*
%TD*%
D10*
%TO.C,D4*%
X146280000Y-106000000D03*
D11*
X138660000Y-106000000D03*
%TD*%
D13*
%TO.C,R3*%
X151000000Y-110000000D03*
D11*
X151000000Y-99840000D03*
%TD*%
D13*
%TO.C,R5*%
X155000000Y-110000000D03*
D11*
X155000000Y-99840000D03*
%TD*%
D10*
%TO.C,D5*%
X146280000Y-94000000D03*
D11*
X138660000Y-94000000D03*
%TD*%
D15*
%TO.C,J5*%
X142200000Y-106000000D03*
%TD*%
%TO.C,J6*%
X142200000Y-94000000D03*
%TD*%
%TO.C,J4*%
X142200000Y-86000000D03*
%TD*%
%TO.C,J9*%
X142200000Y-102000000D03*
%TD*%
%TO.C,J7*%
X142200000Y-82000000D03*
%TD*%
%TO.C,J10*%
X142200000Y-90000000D03*
%TD*%
%TO.C,J8*%
X142200000Y-78000000D03*
%TD*%
%TO.C,J2*%
X142200000Y-110000000D03*
%TD*%
%TO.C,J3*%
X142200000Y-98000000D03*
%TD*%
M02*
