%TF.GenerationSoftware,KiCad,Pcbnew,(6.0.10)*%
%TF.CreationDate,2023-03-14T21:43:23-07:00*%
%TF.ProjectId,Top PCB,546f7020-5043-4422-9e6b-696361645f70,rev?*%
%TF.SameCoordinates,Original*%
%TF.FileFunction,Copper,L1,Top*%
%TF.FilePolarity,Positive*%
%FSLAX46Y46*%
G04 Gerber Fmt 4.6, Leading zero omitted, Abs format (unit mm)*
G04 Created by KiCad (PCBNEW (6.0.10)) date 2023-03-14 21:43:23*
%MOMM*%
%LPD*%
G01*
G04 APERTURE LIST*
%TA.AperFunction,SMDPad,CuDef*%
%ADD10O,2.748280X1.998980*%
%TD*%
%TA.AperFunction,SMDPad,CuDef*%
%ADD11O,1.016000X2.032000*%
%TD*%
%TA.AperFunction,SMDPad,CuDef*%
%ADD12C,1.143000*%
%TD*%
%TA.AperFunction,ComponentPad*%
%ADD13R,1.600000X1.600000*%
%TD*%
%TA.AperFunction,ComponentPad*%
%ADD14O,1.600000X1.600000*%
%TD*%
%TA.AperFunction,ComponentPad*%
%ADD15C,1.800000*%
%TD*%
%TA.AperFunction,ComponentPad*%
%ADD16C,1.600000*%
%TD*%
%TA.AperFunction,ViaPad*%
%ADD17C,0.800000*%
%TD*%
%TA.AperFunction,Conductor*%
%ADD18C,0.254000*%
%TD*%
%TA.AperFunction,Conductor*%
%ADD19C,0.381000*%
%TD*%
G04 APERTURE END LIST*
D10*
%TO.P,U1,1,PA02_A0_D0*%
%TO.N,C0*%
X138943120Y-54677180D03*
%TO.P,U1,2,PA4_A1_D1*%
%TO.N,C1*%
X138943120Y-57217180D03*
%TO.P,U1,3,PA10_A2_D2*%
%TO.N,C2*%
X138943120Y-59757180D03*
%TO.P,U1,4,PA11_A3_D3*%
%TO.N,DLED*%
X138943120Y-62297180D03*
%TO.P,U1,5,PA8_A4_D4_SDA*%
%TO.N,R0*%
X138943120Y-64837180D03*
%TO.P,U1,6,PA9_A5_D5_SCL*%
%TO.N,R1*%
X138943120Y-67377180D03*
%TO.P,U1,7,PB08_A6_D6_TX*%
%TO.N,R2*%
X138943120Y-69917180D03*
%TO.P,U1,8,PB09_A7_D7_RX*%
%TO.N,A2*%
X155107680Y-69917180D03*
%TO.P,U1,9,PA7_A8_D8_SCK*%
%TO.N,A1*%
X155107680Y-67377180D03*
%TO.P,U1,10,PA5_A9_D9_MISO*%
%TO.N,A0*%
X155107680Y-64837180D03*
%TO.P,U1,11,PA6_A10_D10_MOSI*%
%TO.N,Net-(SW1-Pad1)*%
X155107680Y-62297180D03*
%TO.P,U1,12,3V3*%
%TO.N,+3.3V*%
X155107680Y-59757180D03*
%TO.P,U1,13,GND*%
%TO.N,GND*%
X155107680Y-57217180D03*
%TO.P,U1,14,5V*%
%TO.N,+5V*%
X155107680Y-54677180D03*
D11*
%TO.P,U1,15,5V*%
%TO.N,unconnected-(U1-Pad15)*%
X145810000Y-70995000D03*
%TO.P,U1,16,GND*%
%TO.N,unconnected-(U1-Pad16)*%
X148360000Y-70995000D03*
D12*
%TO.P,U1,17,PA31_SWDIO*%
%TO.N,unconnected-(U1-Pad17)*%
X145808803Y-53990813D03*
%TO.P,U1,18,PA30_SWCLK*%
%TO.N,unconnected-(U1-Pad18)*%
X148348803Y-53990813D03*
%TO.P,U1,19,RESET*%
%TO.N,unconnected-(U1-Pad19)*%
X145808803Y-56530813D03*
%TO.P,U1,20,GND*%
%TO.N,unconnected-(U1-Pad20)*%
X148348803Y-56530813D03*
%TD*%
D13*
%TO.P,D7,1,K*%
%TO.N,R0*%
X146280000Y-102000000D03*
D14*
%TO.P,D7,2,A*%
%TO.N,Net-(D7-Pad2)*%
X138660000Y-102000000D03*
%TD*%
D13*
%TO.P,D8,1,K*%
%TO.N,R1*%
X146280000Y-90000000D03*
D14*
%TO.P,D8,2,A*%
%TO.N,Net-(D8-Pad2)*%
X138660000Y-90000000D03*
%TD*%
D15*
%TO.P,SW1,1,A*%
%TO.N,Net-(SW1-Pad1)*%
X156250000Y-77750000D03*
%TO.P,SW1,2,A*%
X149750000Y-82250000D03*
%TO.P,SW1,3,B*%
%TO.N,Net-(R5-Pad1)*%
X156250000Y-82250000D03*
%TO.P,SW1,4,B*%
X149750000Y-77750000D03*
%TD*%
D13*
%TO.P,D9,1,K*%
%TO.N,R2*%
X146280000Y-78000000D03*
D14*
%TO.P,D9,2,A*%
%TO.N,Net-(D9-Pad2)*%
X138660000Y-78000000D03*
%TD*%
%TO.P,R2,2*%
%TO.N,C1*%
X155000000Y-86840000D03*
D16*
%TO.P,R2,1*%
%TO.N,+3.3V*%
X155000000Y-97000000D03*
%TD*%
D13*
%TO.P,D2,1,K*%
%TO.N,R1*%
X146280000Y-98000000D03*
D14*
%TO.P,D2,2,A*%
%TO.N,Net-(D2-Pad2)*%
X138660000Y-98000000D03*
%TD*%
D13*
%TO.P,D1,1,K*%
%TO.N,R0*%
X146280000Y-110000000D03*
D14*
%TO.P,D1,2,A*%
%TO.N,Net-(D1-Pad2)*%
X138660000Y-110000000D03*
%TD*%
D13*
%TO.P,D6,1,K*%
%TO.N,R2*%
X146280000Y-82000000D03*
D14*
%TO.P,D6,2,A*%
%TO.N,Net-(D6-Pad2)*%
X138660000Y-82000000D03*
%TD*%
D13*
%TO.P,D3,1,K*%
%TO.N,R2*%
X146280000Y-86000000D03*
D14*
%TO.P,D3,2,A*%
%TO.N,Net-(D3-Pad2)*%
X138660000Y-86000000D03*
%TD*%
D13*
%TO.P,D4,1,K*%
%TO.N,R0*%
X146280000Y-106000000D03*
D14*
%TO.P,D4,2,A*%
%TO.N,Net-(D4-Pad2)*%
X138660000Y-106000000D03*
%TD*%
D16*
%TO.P,R1,1*%
%TO.N,+3.3V*%
X151000000Y-97000000D03*
D14*
%TO.P,R1,2*%
%TO.N,C0*%
X151000000Y-86840000D03*
%TD*%
D16*
%TO.P,R3,1*%
%TO.N,C2*%
X151000000Y-110000000D03*
D14*
%TO.P,R3,2*%
%TO.N,+3.3V*%
X151000000Y-99840000D03*
%TD*%
D16*
%TO.P,R5,1*%
%TO.N,Net-(R5-Pad1)*%
X155000000Y-110000000D03*
D14*
%TO.P,R5,2*%
%TO.N,+3.3V*%
X155000000Y-99840000D03*
%TD*%
D13*
%TO.P,D5,1,K*%
%TO.N,R1*%
X146280000Y-94000000D03*
D14*
%TO.P,D5,2,A*%
%TO.N,Net-(D5-Pad2)*%
X138660000Y-94000000D03*
%TD*%
D17*
%TO.N,C0*%
X134000000Y-82200000D03*
%TO.N,DLED*%
X142491677Y-66208947D03*
%TO.N,+5V*%
X151200000Y-58900000D03*
%TO.N,GND*%
X152200000Y-61500000D03*
%TO.N,+3.3V*%
X153000000Y-59500000D03*
%TO.N,A0*%
X152300000Y-65200000D03*
%TO.N,A1*%
X152300000Y-67800000D03*
%TO.N,+3.3V*%
X159000000Y-94000000D03*
%TO.N,C0*%
X142000000Y-56000000D03*
%TO.N,C1*%
X142000000Y-58000000D03*
X135000000Y-87000000D03*
%TO.N,C2*%
X142000000Y-61000000D03*
X136000000Y-107000000D03*
%TO.N,A2*%
X152000000Y-70000000D03*
%TD*%
D18*
%TO.N,R0*%
X147861000Y-100419000D02*
X146280000Y-102000000D01*
X147861000Y-74861000D02*
X147861000Y-100419000D01*
X141500000Y-68500000D02*
X147861000Y-74861000D01*
X141500000Y-67394060D02*
X141500000Y-68500000D01*
X138943120Y-64837180D02*
X141500000Y-67394060D01*
%TO.N,C0*%
X134000000Y-59620300D02*
X134000000Y-82200000D01*
%TO.N,+3.3V*%
X159000000Y-62900000D02*
X159000000Y-94000000D01*
X155857180Y-59757180D02*
X159000000Y-62900000D01*
X155107680Y-59757180D02*
X155857180Y-59757180D01*
%TO.N,DLED*%
X142491677Y-65845737D02*
X142491677Y-66208947D01*
X138943120Y-62297180D02*
X142491677Y-65845737D01*
D19*
%TO.N,+5V*%
X151200000Y-58584860D02*
X154696851Y-55088009D01*
X151200000Y-58900000D02*
X151200000Y-58584860D01*
%TO.N,GND*%
X152300000Y-58800000D02*
X152200000Y-58900000D01*
X153882820Y-57217180D02*
X152300000Y-58800000D01*
X152200000Y-58900000D02*
X152200000Y-61500000D01*
X155107680Y-57217180D02*
X153882820Y-57217180D01*
D18*
%TO.N,+3.3V*%
X153257180Y-59757180D02*
X153000000Y-59500000D01*
X155107680Y-59757180D02*
X153257180Y-59757180D01*
%TO.N,A0*%
X152662820Y-64837180D02*
X152300000Y-65200000D01*
X155107680Y-64837180D02*
X152662820Y-64837180D01*
%TO.N,A1*%
X152722820Y-67377180D02*
X152300000Y-67800000D01*
X155107680Y-67377180D02*
X152722820Y-67377180D01*
%TO.N,R0*%
X146280000Y-102000000D02*
X146280000Y-106000000D01*
X146280000Y-106000000D02*
X146280000Y-110000000D01*
%TO.N,R1*%
X147407000Y-75841060D02*
X138943120Y-67377180D01*
X146280000Y-94000000D02*
X146280000Y-98000000D01*
X146280000Y-90000000D02*
X147407000Y-88873000D01*
X146280000Y-90000000D02*
X146280000Y-94000000D01*
X147407000Y-88873000D02*
X147407000Y-75841060D01*
%TO.N,R2*%
X146280000Y-78000000D02*
X146280000Y-75741488D01*
X146280000Y-82000000D02*
X146280000Y-78000000D01*
X138943120Y-69917180D02*
X140455692Y-69917180D01*
X140455692Y-69917180D02*
X141769256Y-71230744D01*
X146280000Y-75741488D02*
X141769256Y-71230744D01*
X146280000Y-86000000D02*
X146280000Y-82000000D01*
D19*
%TO.N,+3.3V*%
X151000000Y-97000000D02*
X151000000Y-99840000D01*
X151000000Y-97000000D02*
X155000000Y-97000000D01*
X155000000Y-97000000D02*
X155000000Y-99840000D01*
%TO.N,GND*%
X155107680Y-57217180D02*
X153782820Y-57217180D01*
D18*
%TO.N,C0*%
X140677180Y-54677180D02*
X142000000Y-56000000D01*
X138943120Y-54677180D02*
X140677180Y-54677180D01*
X134000000Y-59620300D02*
X138943120Y-54677180D01*
%TO.N,C1*%
X138943120Y-57217180D02*
X141217180Y-57217180D01*
X135000000Y-61160300D02*
X138943120Y-57217180D01*
X141217180Y-57217180D02*
X142000000Y-58000000D01*
X135000000Y-87000000D02*
X135000000Y-61160300D01*
%TO.N,C2*%
X140757180Y-59757180D02*
X142000000Y-61000000D01*
X136000000Y-107000000D02*
X136000000Y-62700300D01*
X138943120Y-59757180D02*
X140757180Y-59757180D01*
X136000000Y-62700300D02*
X138943120Y-59757180D01*
%TO.N,Net-(R5-Pad1)*%
X158000000Y-107000000D02*
X158000000Y-84000000D01*
X155000000Y-110000000D02*
X158000000Y-107000000D01*
X158000000Y-84000000D02*
X156250000Y-82250000D01*
%TO.N,A2*%
X152082820Y-69917180D02*
X152000000Y-70000000D01*
X155107680Y-69917180D02*
X152082820Y-69917180D01*
%TO.N,Net-(SW1-Pad1)*%
X156250000Y-77750000D02*
X158000000Y-76000000D01*
X156297180Y-62297180D02*
X155107680Y-62297180D01*
X158000000Y-76000000D02*
X158000000Y-64000000D01*
X158000000Y-64000000D02*
X156297180Y-62297180D01*
%TD*%
M02*
