%TF.GenerationSoftware,KiCad,Pcbnew,(6.0.10)*%
%TF.CreationDate,2023-02-27T14:47:52-08:00*%
%TF.ProjectId,Top PCB,546f7020-5043-4422-9e6b-696361645f70,rev?*%
%TF.SameCoordinates,Original*%
%TF.FileFunction,Legend,Top*%
%TF.FilePolarity,Positive*%
%FSLAX46Y46*%
G04 Gerber Fmt 4.6, Leading zero omitted, Abs format (unit mm)*
G04 Created by KiCad (PCBNEW (6.0.10)) date 2023-02-27 14:47:52*
%MOMM*%
%LPD*%
G01*
G04 APERTURE LIST*
%ADD10C,0.150000*%
%ADD11C,0.066040*%
%ADD12C,0.127000*%
%ADD13C,0.254000*%
%ADD14C,0.120000*%
G04 APERTURE END LIST*
D10*
X207000000Y-58000000D02*
X209000000Y-58000000D01*
X209000000Y-58000000D02*
X209000000Y-108000000D01*
X209000000Y-108000000D02*
X207000000Y-108000000D01*
X207000000Y-108000000D02*
X207000000Y-58000000D01*
X188000000Y-108000000D02*
X190000000Y-108000000D01*
X190000000Y-108000000D02*
X190000000Y-58000000D01*
X190000000Y-58000000D02*
X188000000Y-58000000D01*
X188000000Y-58000000D02*
X188000000Y-108000000D01*
X169000000Y-58000000D02*
X171000000Y-58000000D01*
X171000000Y-58000000D02*
X171000000Y-108000000D01*
X171000000Y-108000000D02*
X169000000Y-108000000D01*
X169000000Y-108000000D02*
X169000000Y-58000000D01*
D11*
%TO.C,U1*%
X144460000Y-72160000D02*
X144460000Y-69620000D01*
D12*
X142509280Y-50371880D02*
X151503420Y-50371880D01*
X151503420Y-50371880D02*
X151503420Y-57725180D01*
D11*
X150429000Y-54380000D02*
X152207000Y-54380000D01*
D12*
X155907780Y-72795000D02*
X155907780Y-51796820D01*
D11*
X150429000Y-58446540D02*
X150429000Y-55777000D01*
X143571000Y-58446540D02*
X143571000Y-55777000D01*
X144460000Y-55015000D02*
X144460000Y-52475000D01*
X144460000Y-52475000D02*
X149540000Y-52475000D01*
X143571000Y-54380000D02*
X143571000Y-51713000D01*
X141793000Y-58446540D02*
X143571000Y-58446540D01*
X141793000Y-58446540D02*
X141793000Y-55777000D01*
D12*
X151503420Y-57725180D02*
X142504200Y-57725180D01*
D11*
X141793000Y-54380000D02*
X143571000Y-54380000D01*
X150175000Y-72160000D02*
X150175000Y-69620000D01*
X141793000Y-54380000D02*
X141793000Y-51713000D01*
D12*
X155907780Y-51796820D02*
X138780560Y-51796820D01*
D11*
X144460000Y-72160000D02*
X150175000Y-72160000D01*
D12*
X138110000Y-72795000D02*
X155907780Y-72795000D01*
D11*
X144460000Y-69620000D02*
X150175000Y-69620000D01*
X150429000Y-58446540D02*
X152207000Y-58446540D01*
X141793000Y-55777000D02*
X143571000Y-55777000D01*
X150429000Y-54380000D02*
X150429000Y-51713000D01*
D12*
X142504200Y-57725180D02*
X142504200Y-50371880D01*
D11*
X152207000Y-58446540D02*
X152207000Y-55777000D01*
X150429000Y-55777000D02*
X152207000Y-55777000D01*
X150429000Y-51713000D02*
X152207000Y-51713000D01*
X152207000Y-54380000D02*
X152207000Y-51713000D01*
D12*
X138780560Y-51796820D02*
X138110000Y-52467380D01*
D11*
X141793000Y-51713000D02*
X143571000Y-51713000D01*
D12*
X138110000Y-52467380D02*
X138110000Y-72795000D01*
D11*
X144460000Y-55015000D02*
X149540000Y-55015000D01*
X149540000Y-55015000D02*
X149540000Y-52475000D01*
D13*
X137348000Y-54634000D02*
G75*
G03*
X137348000Y-54634000I-127000J0D01*
G01*
D14*
%TO.C,D7*%
X143750000Y-103120000D02*
X143750000Y-100880000D01*
X145240000Y-102000000D02*
X144590000Y-102000000D01*
X140350000Y-100880000D02*
X140350000Y-103120000D01*
X144590000Y-100880000D02*
X140350000Y-100880000D01*
X143870000Y-103120000D02*
X143870000Y-100880000D01*
X139700000Y-102000000D02*
X140350000Y-102000000D01*
X143990000Y-103120000D02*
X143990000Y-100880000D01*
X140350000Y-103120000D02*
X144590000Y-103120000D01*
X144590000Y-103120000D02*
X144590000Y-100880000D01*
%TO.C,D8*%
X143990000Y-91120000D02*
X143990000Y-88880000D01*
X143750000Y-91120000D02*
X143750000Y-88880000D01*
X144590000Y-88880000D02*
X140350000Y-88880000D01*
X144590000Y-91120000D02*
X144590000Y-88880000D01*
X143870000Y-91120000D02*
X143870000Y-88880000D01*
X139700000Y-90000000D02*
X140350000Y-90000000D01*
X145240000Y-90000000D02*
X144590000Y-90000000D01*
X140350000Y-88880000D02*
X140350000Y-91120000D01*
X140350000Y-91120000D02*
X144590000Y-91120000D01*
D10*
%TO.C,SW1*%
X150000000Y-77000000D02*
X156000000Y-77000000D01*
X156000000Y-83000000D02*
X150000000Y-83000000D01*
X156000000Y-77000000D02*
X156000000Y-83000000D01*
X150000000Y-83000000D02*
X150000000Y-77000000D01*
X154796051Y-80000000D02*
G75*
G03*
X154796051Y-80000000I-1796051J0D01*
G01*
D14*
%TO.C,D9*%
X144590000Y-76880000D02*
X140350000Y-76880000D01*
X139700000Y-78000000D02*
X140350000Y-78000000D01*
X145240000Y-78000000D02*
X144590000Y-78000000D01*
X140350000Y-79120000D02*
X144590000Y-79120000D01*
X144590000Y-79120000D02*
X144590000Y-76880000D01*
X143990000Y-79120000D02*
X143990000Y-76880000D01*
X140350000Y-76880000D02*
X140350000Y-79120000D01*
X143870000Y-79120000D02*
X143870000Y-76880000D01*
X143750000Y-79120000D02*
X143750000Y-76880000D01*
%TO.C,R2*%
X153630000Y-88650000D02*
X153630000Y-95190000D01*
X156370000Y-95190000D02*
X156370000Y-88650000D01*
X155000000Y-95960000D02*
X155000000Y-95190000D01*
X153630000Y-95190000D02*
X156370000Y-95190000D01*
X156370000Y-88650000D02*
X153630000Y-88650000D01*
X155000000Y-87880000D02*
X155000000Y-88650000D01*
%TO.C,D2*%
X143870000Y-99120000D02*
X143870000Y-96880000D01*
X140350000Y-99120000D02*
X144590000Y-99120000D01*
X140350000Y-96880000D02*
X140350000Y-99120000D01*
X143750000Y-99120000D02*
X143750000Y-96880000D01*
X143990000Y-99120000D02*
X143990000Y-96880000D01*
X139700000Y-98000000D02*
X140350000Y-98000000D01*
X144590000Y-96880000D02*
X140350000Y-96880000D01*
X145240000Y-98000000D02*
X144590000Y-98000000D01*
X144590000Y-99120000D02*
X144590000Y-96880000D01*
%TO.C,D1*%
X140350000Y-111120000D02*
X144590000Y-111120000D01*
X140350000Y-108880000D02*
X140350000Y-111120000D01*
X143750000Y-111120000D02*
X143750000Y-108880000D01*
X143870000Y-111120000D02*
X143870000Y-108880000D01*
X144590000Y-111120000D02*
X144590000Y-108880000D01*
X144590000Y-108880000D02*
X140350000Y-108880000D01*
X143990000Y-111120000D02*
X143990000Y-108880000D01*
X139700000Y-110000000D02*
X140350000Y-110000000D01*
X145240000Y-110000000D02*
X144590000Y-110000000D01*
%TO.C,D6*%
X143990000Y-83120000D02*
X143990000Y-80880000D01*
X139700000Y-82000000D02*
X140350000Y-82000000D01*
X143750000Y-83120000D02*
X143750000Y-80880000D01*
X140350000Y-83120000D02*
X144590000Y-83120000D01*
X140350000Y-80880000D02*
X140350000Y-83120000D01*
X144590000Y-83120000D02*
X144590000Y-80880000D01*
X143870000Y-83120000D02*
X143870000Y-80880000D01*
X144590000Y-80880000D02*
X140350000Y-80880000D01*
X145240000Y-82000000D02*
X144590000Y-82000000D01*
%TO.C,D3*%
X144590000Y-87120000D02*
X144590000Y-84880000D01*
X139700000Y-86000000D02*
X140350000Y-86000000D01*
X140350000Y-84880000D02*
X140350000Y-87120000D01*
X143990000Y-87120000D02*
X143990000Y-84880000D01*
X143750000Y-87120000D02*
X143750000Y-84880000D01*
X143870000Y-87120000D02*
X143870000Y-84880000D01*
X145240000Y-86000000D02*
X144590000Y-86000000D01*
X140350000Y-87120000D02*
X144590000Y-87120000D01*
X144590000Y-84880000D02*
X140350000Y-84880000D01*
%TO.C,D4*%
X144590000Y-104880000D02*
X140350000Y-104880000D01*
X143750000Y-107120000D02*
X143750000Y-104880000D01*
X139700000Y-106000000D02*
X140350000Y-106000000D01*
X140350000Y-104880000D02*
X140350000Y-107120000D01*
X145240000Y-106000000D02*
X144590000Y-106000000D01*
X143870000Y-107120000D02*
X143870000Y-104880000D01*
X144590000Y-107120000D02*
X144590000Y-104880000D01*
X143990000Y-107120000D02*
X143990000Y-104880000D01*
X140350000Y-107120000D02*
X144590000Y-107120000D01*
%TO.C,R1*%
X151000000Y-87880000D02*
X151000000Y-88650000D01*
X152370000Y-95190000D02*
X152370000Y-88650000D01*
X152370000Y-88650000D02*
X149630000Y-88650000D01*
X149630000Y-88650000D02*
X149630000Y-95190000D01*
X151000000Y-95960000D02*
X151000000Y-95190000D01*
X149630000Y-95190000D02*
X152370000Y-95190000D01*
%TO.C,R3*%
X152370000Y-101650000D02*
X149630000Y-101650000D01*
X149630000Y-101650000D02*
X149630000Y-108190000D01*
X149630000Y-108190000D02*
X152370000Y-108190000D01*
X152370000Y-108190000D02*
X152370000Y-101650000D01*
X151000000Y-108960000D02*
X151000000Y-108190000D01*
X151000000Y-100880000D02*
X151000000Y-101650000D01*
%TO.C,R5*%
X155000000Y-100880000D02*
X155000000Y-101650000D01*
X155000000Y-108960000D02*
X155000000Y-108190000D01*
X156370000Y-108190000D02*
X156370000Y-101650000D01*
X156370000Y-101650000D02*
X153630000Y-101650000D01*
X153630000Y-101650000D02*
X153630000Y-108190000D01*
X153630000Y-108190000D02*
X156370000Y-108190000D01*
%TO.C,D5*%
X145240000Y-94000000D02*
X144590000Y-94000000D01*
X140350000Y-95120000D02*
X144590000Y-95120000D01*
X144590000Y-92880000D02*
X140350000Y-92880000D01*
X144590000Y-95120000D02*
X144590000Y-92880000D01*
X139700000Y-94000000D02*
X140350000Y-94000000D01*
X140350000Y-92880000D02*
X140350000Y-95120000D01*
X143750000Y-95120000D02*
X143750000Y-92880000D01*
X143870000Y-95120000D02*
X143870000Y-92880000D01*
X143990000Y-95120000D02*
X143990000Y-92880000D01*
%TD*%
M02*
