M48
; DRILL file {KiCad (6.0.10)} date Mon Feb 27 17:13:17 2023
; FORMAT={-:-/ absolute / metric / decimal}
; #@! TF.CreationDate,2023-02-27T17:13:17-08:00
; #@! TF.GenerationSoftware,Kicad,Pcbnew,(6.0.10)
; #@! TF.FileFunction,Plated,1,2,PTH
FMAT,2
METRIC
; #@! TA.AperFunction,Plated,PTH,ViaDrill
T1C0.400
; #@! TA.AperFunction,Plated,PTH,ComponentDrill
T2C0.800
; #@! TA.AperFunction,Plated,PTH,ComponentDrill
T3C1.000
%
G90
G05
T1
X134.0Y-83.0
X135.0Y-87.0
X136.0Y-107.0
X141.769Y-71.231
X142.0Y-56.0
X142.0Y-58.0
X142.0Y-61.0
X142.0Y-65.0
X142.0Y-68.0
X147.0Y-64.0
X147.0Y-71.0
X152.0Y-56.0
X152.0Y-59.0
X152.0Y-64.0
X152.0Y-67.0
X152.0Y-70.0
X159.0Y-94.0
T2
X138.66Y-78.0
X138.66Y-82.0
X138.66Y-86.0
X138.66Y-90.0
X138.66Y-94.0
X138.66Y-98.0
X138.66Y-102.0
X138.66Y-106.0
X138.66Y-110.0
X146.28Y-78.0
X146.28Y-82.0
X146.28Y-86.0
X146.28Y-90.0
X146.28Y-94.0
X146.28Y-98.0
X146.28Y-102.0
X146.28Y-106.0
X146.28Y-110.0
X151.0Y-86.84
X151.0Y-97.0
X151.0Y-99.84
X151.0Y-110.0
X155.0Y-86.84
X155.0Y-97.0
X155.0Y-99.84
X155.0Y-110.0
T3
X149.75Y-77.75
X149.75Y-82.25
X156.25Y-77.75
X156.25Y-82.25
T0
M30
