%TF.GenerationSoftware,KiCad,Pcbnew,(6.0.10)*%
%TF.CreationDate,2023-03-14T21:56:25-07:00*%
%TF.ProjectId,Top PCB,546f7020-5043-4422-9e6b-696361645f70,rev?*%
%TF.SameCoordinates,Original*%
%TF.FileFunction,Copper,L2,Bot*%
%TF.FilePolarity,Positive*%
%FSLAX46Y46*%
G04 Gerber Fmt 4.6, Leading zero omitted, Abs format (unit mm)*
G04 Created by KiCad (PCBNEW (6.0.10)) date 2023-03-14 21:56:25*
%MOMM*%
%LPD*%
G01*
G04 APERTURE LIST*
%TA.AperFunction,ComponentPad*%
%ADD10R,1.600000X1.600000*%
%TD*%
%TA.AperFunction,ComponentPad*%
%ADD11O,1.600000X1.600000*%
%TD*%
%TA.AperFunction,ComponentPad*%
%ADD12C,1.800000*%
%TD*%
%TA.AperFunction,ComponentPad*%
%ADD13C,1.600000*%
%TD*%
%TA.AperFunction,SMDPad,CuDef*%
%ADD14R,3.150000X1.000000*%
%TD*%
%TA.AperFunction,SMDPad,CuDef*%
%ADD15R,2.000000X2.000000*%
%TD*%
%TA.AperFunction,ViaPad*%
%ADD16C,0.800000*%
%TD*%
%TA.AperFunction,Conductor*%
%ADD17C,0.254000*%
%TD*%
%TA.AperFunction,Conductor*%
%ADD18C,0.381000*%
%TD*%
G04 APERTURE END LIST*
D10*
%TO.P,D9,1,K*%
%TO.N,R2*%
X146280000Y-78000000D03*
D11*
%TO.P,D9,2,A*%
%TO.N,Net-(D9-Pad2)*%
X138660000Y-78000000D03*
%TD*%
D12*
%TO.P,SW1,1,A*%
%TO.N,Net-(SW1-Pad1)*%
X156250000Y-77750000D03*
%TO.P,SW1,2,A*%
X149750000Y-82250000D03*
%TO.P,SW1,3,B*%
%TO.N,Net-(R5-Pad1)*%
X156250000Y-82250000D03*
%TO.P,SW1,4,B*%
X149750000Y-77750000D03*
%TD*%
D13*
%TO.P,R2,1*%
%TO.N,+3.3V*%
X155000000Y-97000000D03*
D11*
%TO.P,R2,2*%
%TO.N,C1*%
X155000000Y-86840000D03*
%TD*%
D13*
%TO.P,R1,1*%
%TO.N,+3.3V*%
X151000000Y-97000000D03*
D11*
%TO.P,R1,2*%
%TO.N,C0*%
X151000000Y-86840000D03*
%TD*%
D14*
%TO.P,J1,1,Pin_1*%
%TO.N,+3.3V*%
X149525000Y-57650000D03*
%TO.P,J1,2,Pin_2*%
%TO.N,C0*%
X144475000Y-57650000D03*
%TO.P,J1,3,Pin_3*%
%TO.N,+5V*%
X149525000Y-60190000D03*
%TO.P,J1,4,Pin_4*%
%TO.N,C1*%
X144475000Y-60190000D03*
%TO.P,J1,5,Pin_5*%
%TO.N,GND*%
X149525000Y-62730000D03*
%TO.P,J1,6,Pin_6*%
%TO.N,C2*%
X144475000Y-62730000D03*
%TO.P,J1,7,Pin_7*%
%TO.N,A0*%
X149525000Y-65270000D03*
%TO.P,J1,8,Pin_8*%
%TO.N,GND*%
X144475000Y-65270000D03*
%TO.P,J1,9,Pin_9*%
%TO.N,A1*%
X149525000Y-67810000D03*
%TO.P,J1,10,Pin_10*%
%TO.N,DLED*%
X144475000Y-67810000D03*
%TO.P,J1,11,Pin_11*%
%TO.N,A2*%
X149525000Y-70350000D03*
%TO.P,J1,12,Pin_12*%
%TO.N,+5V*%
X144475000Y-70350000D03*
%TD*%
D10*
%TO.P,D7,1,K*%
%TO.N,R0*%
X146280000Y-102000000D03*
D11*
%TO.P,D7,2,A*%
%TO.N,Net-(D7-Pad2)*%
X138660000Y-102000000D03*
%TD*%
D10*
%TO.P,D8,1,K*%
%TO.N,R1*%
X146280000Y-90000000D03*
D11*
%TO.P,D8,2,A*%
%TO.N,Net-(D8-Pad2)*%
X138660000Y-90000000D03*
%TD*%
D10*
%TO.P,D2,1,K*%
%TO.N,R1*%
X146280000Y-98000000D03*
D11*
%TO.P,D2,2,A*%
%TO.N,Net-(D2-Pad2)*%
X138660000Y-98000000D03*
%TD*%
D10*
%TO.P,D1,1,K*%
%TO.N,R0*%
X146280000Y-110000000D03*
D11*
%TO.P,D1,2,A*%
%TO.N,Net-(D1-Pad2)*%
X138660000Y-110000000D03*
%TD*%
D10*
%TO.P,D6,1,K*%
%TO.N,R2*%
X146280000Y-82000000D03*
D11*
%TO.P,D6,2,A*%
%TO.N,Net-(D6-Pad2)*%
X138660000Y-82000000D03*
%TD*%
D10*
%TO.P,D3,1,K*%
%TO.N,R2*%
X146280000Y-86000000D03*
D11*
%TO.P,D3,2,A*%
%TO.N,Net-(D3-Pad2)*%
X138660000Y-86000000D03*
%TD*%
D10*
%TO.P,D4,1,K*%
%TO.N,R0*%
X146280000Y-106000000D03*
D11*
%TO.P,D4,2,A*%
%TO.N,Net-(D4-Pad2)*%
X138660000Y-106000000D03*
%TD*%
D13*
%TO.P,R3,1*%
%TO.N,C2*%
X151000000Y-110000000D03*
D11*
%TO.P,R3,2*%
%TO.N,+3.3V*%
X151000000Y-99840000D03*
%TD*%
D13*
%TO.P,R5,1*%
%TO.N,Net-(R5-Pad1)*%
X155000000Y-110000000D03*
D11*
%TO.P,R5,2*%
%TO.N,+3.3V*%
X155000000Y-99840000D03*
%TD*%
D10*
%TO.P,D5,1,K*%
%TO.N,R1*%
X146280000Y-94000000D03*
D11*
%TO.P,D5,2,A*%
%TO.N,Net-(D5-Pad2)*%
X138660000Y-94000000D03*
%TD*%
D15*
%TO.P,J5,1,1*%
%TO.N,Net-(D4-Pad2)*%
X142200000Y-106000000D03*
%TD*%
%TO.P,J6,1,1*%
%TO.N,Net-(D5-Pad2)*%
X142200000Y-94000000D03*
%TD*%
%TO.P,J4,1,1*%
%TO.N,Net-(D3-Pad2)*%
X142200000Y-86000000D03*
%TD*%
%TO.P,J9,1,1*%
%TO.N,Net-(D7-Pad2)*%
X142200000Y-102000000D03*
%TD*%
%TO.P,J7,1,1*%
%TO.N,Net-(D6-Pad2)*%
X142200000Y-82000000D03*
%TD*%
%TO.P,J10,1,1*%
%TO.N,Net-(D8-Pad2)*%
X142200000Y-90000000D03*
%TD*%
%TO.P,J8,1,1*%
%TO.N,Net-(D9-Pad2)*%
X142200000Y-78000000D03*
%TD*%
%TO.P,J2,1,1*%
%TO.N,Net-(D1-Pad2)*%
X142200000Y-110000000D03*
%TD*%
%TO.P,J3,1,1*%
%TO.N,Net-(D2-Pad2)*%
X142200000Y-98000000D03*
%TD*%
D16*
%TO.N,+5V*%
X151200000Y-58900000D03*
%TO.N,GND*%
X152200000Y-61500000D03*
%TO.N,C0*%
X134000000Y-82200000D03*
X142000000Y-56000000D03*
%TO.N,C1*%
X142000000Y-58000000D03*
X135000000Y-87000000D03*
%TO.N,C2*%
X142000000Y-61000000D03*
X136000000Y-107000000D03*
%TO.N,DLED*%
X142491677Y-66208947D03*
%TO.N,A0*%
X152300000Y-65200000D03*
%TO.N,A1*%
X152300000Y-67800000D03*
%TO.N,A2*%
X152000000Y-70000000D03*
%TO.N,+3.3V*%
X153000000Y-59500000D03*
X159000000Y-94000000D03*
%TD*%
D17*
%TO.N,Net-(D1-Pad2)*%
X142200000Y-110000000D02*
X138660000Y-110000000D01*
%TO.N,Net-(D2-Pad2)*%
X142200000Y-98000000D02*
X138660000Y-98000000D01*
%TO.N,Net-(D3-Pad2)*%
X142200000Y-86000000D02*
X138660000Y-86000000D01*
%TO.N,Net-(D4-Pad2)*%
X142200000Y-106000000D02*
X138660000Y-106000000D01*
%TO.N,Net-(D5-Pad2)*%
X142200000Y-94000000D02*
X138660000Y-94000000D01*
%TO.N,Net-(D6-Pad2)*%
X142200000Y-82000000D02*
X138660000Y-82000000D01*
%TO.N,Net-(D7-Pad2)*%
X142200000Y-102000000D02*
X138660000Y-102000000D01*
%TO.N,Net-(D8-Pad2)*%
X142200000Y-90000000D02*
X138660000Y-90000000D01*
%TO.N,Net-(D9-Pad2)*%
X142200000Y-78000000D02*
X138660000Y-78000000D01*
D18*
%TO.N,+5V*%
X143550000Y-70350000D02*
X141300000Y-68100000D01*
X141300000Y-68100000D02*
X141300000Y-65589000D01*
X147000000Y-63061000D02*
X147000000Y-62200000D01*
X141300000Y-65589000D02*
X142889000Y-64000000D01*
X147000000Y-62200000D02*
X149010000Y-60190000D01*
X142889000Y-64000000D02*
X146061000Y-64000000D01*
X149910000Y-60190000D02*
X151200000Y-58900000D01*
X149525000Y-60190000D02*
X149910000Y-60190000D01*
X146061000Y-64000000D02*
X147000000Y-63061000D01*
X144475000Y-70350000D02*
X143550000Y-70350000D01*
X149010000Y-60190000D02*
X149525000Y-60190000D01*
D17*
%TO.N,GND*%
X144475000Y-65270000D02*
X146130000Y-65270000D01*
X146130000Y-65270000D02*
X148670000Y-62730000D01*
X149525000Y-62730000D02*
X150970000Y-62730000D01*
X148670000Y-62730000D02*
X149525000Y-62730000D01*
X150970000Y-62730000D02*
X152200000Y-61500000D01*
%TO.N,C0*%
X143650000Y-57650000D02*
X144475000Y-57650000D01*
X148160000Y-84000000D02*
X151000000Y-86840000D01*
X142000000Y-56000000D02*
X143650000Y-57650000D01*
X134000000Y-82200000D02*
X135800000Y-84000000D01*
X135800000Y-84000000D02*
X148160000Y-84000000D01*
%TO.N,C1*%
X144190000Y-60190000D02*
X144475000Y-60190000D01*
X135967000Y-87967000D02*
X135000000Y-87000000D01*
X142000000Y-58000000D02*
X144190000Y-60190000D01*
X153873000Y-87967000D02*
X135967000Y-87967000D01*
X155000000Y-86840000D02*
X153873000Y-87967000D01*
%TO.N,C2*%
X149000000Y-108000000D02*
X137000000Y-108000000D01*
X142000000Y-61000000D02*
X143730000Y-62730000D01*
X143730000Y-62730000D02*
X144475000Y-62730000D01*
X137000000Y-108000000D02*
X136000000Y-107000000D01*
X151000000Y-110000000D02*
X149000000Y-108000000D01*
%TO.N,DLED*%
X144092730Y-67810000D02*
X142491677Y-66208947D01*
X144475000Y-67810000D02*
X144092730Y-67810000D01*
%TO.N,A0*%
X152300000Y-65200000D02*
X152230000Y-65270000D01*
X152230000Y-65270000D02*
X149525000Y-65270000D01*
%TO.N,A1*%
X152290000Y-67810000D02*
X149525000Y-67810000D01*
X152300000Y-67800000D02*
X152290000Y-67810000D01*
X148810000Y-67810000D02*
X149525000Y-67810000D01*
%TO.N,A2*%
X152000000Y-70000000D02*
X151650000Y-70350000D01*
X151650000Y-70350000D02*
X149525000Y-70350000D01*
D18*
%TO.N,+3.3V*%
X159000000Y-94000000D02*
X159000000Y-95000000D01*
X159000000Y-95000000D02*
X157000000Y-97000000D01*
X157000000Y-97000000D02*
X155000000Y-97000000D01*
D17*
X153000000Y-59500000D02*
X151150000Y-57650000D01*
X151150000Y-57650000D02*
X149525000Y-57650000D01*
%TD*%
M02*
