%TF.GenerationSoftware,KiCad,Pcbnew,(6.0.10)*%
%TF.CreationDate,2023-03-14T21:56:25-07:00*%
%TF.ProjectId,Top PCB,546f7020-5043-4422-9e6b-696361645f70,rev?*%
%TF.SameCoordinates,Original*%
%TF.FileFunction,Legend,Bot*%
%TF.FilePolarity,Positive*%
%FSLAX46Y46*%
G04 Gerber Fmt 4.6, Leading zero omitted, Abs format (unit mm)*
G04 Created by KiCad (PCBNEW (6.0.10)) date 2023-03-14 21:56:25*
%MOMM*%
%LPD*%
G01*
G04 APERTURE LIST*
%ADD10C,0.150000*%
%ADD11C,0.120000*%
G04 APERTURE END LIST*
D10*
X144566666Y-61817142D02*
X144614285Y-61864761D01*
X144757142Y-61912380D01*
X144852380Y-61912380D01*
X144995238Y-61864761D01*
X145090476Y-61769523D01*
X145138095Y-61674285D01*
X145185714Y-61483809D01*
X145185714Y-61340952D01*
X145138095Y-61150476D01*
X145090476Y-61055238D01*
X144995238Y-60960000D01*
X144852380Y-60912380D01*
X144757142Y-60912380D01*
X144614285Y-60960000D01*
X144566666Y-61007619D01*
X144185714Y-61007619D02*
X144138095Y-60960000D01*
X144042857Y-60912380D01*
X143804761Y-60912380D01*
X143709523Y-60960000D01*
X143661904Y-61007619D01*
X143614285Y-61102857D01*
X143614285Y-61198095D01*
X143661904Y-61340952D01*
X144233333Y-61912380D01*
X143614285Y-61912380D01*
X144566666Y-59277142D02*
X144614285Y-59324761D01*
X144757142Y-59372380D01*
X144852380Y-59372380D01*
X144995238Y-59324761D01*
X145090476Y-59229523D01*
X145138095Y-59134285D01*
X145185714Y-58943809D01*
X145185714Y-58800952D01*
X145138095Y-58610476D01*
X145090476Y-58515238D01*
X144995238Y-58420000D01*
X144852380Y-58372380D01*
X144757142Y-58372380D01*
X144614285Y-58420000D01*
X144566666Y-58467619D01*
X143614285Y-59372380D02*
X144185714Y-59372380D01*
X143900000Y-59372380D02*
X143900000Y-58372380D01*
X143995238Y-58515238D01*
X144090476Y-58610476D01*
X144185714Y-58658095D01*
X150314285Y-66706666D02*
X149838095Y-66706666D01*
X150409523Y-66992380D02*
X150076190Y-65992380D01*
X149742857Y-66992380D01*
X148885714Y-66992380D02*
X149457142Y-66992380D01*
X149171428Y-66992380D02*
X149171428Y-65992380D01*
X149266666Y-66135238D01*
X149361904Y-66230476D01*
X149457142Y-66278095D01*
X150361904Y-60960000D02*
X150457142Y-60912380D01*
X150600000Y-60912380D01*
X150742857Y-60960000D01*
X150838095Y-61055238D01*
X150885714Y-61150476D01*
X150933333Y-61340952D01*
X150933333Y-61483809D01*
X150885714Y-61674285D01*
X150838095Y-61769523D01*
X150742857Y-61864761D01*
X150600000Y-61912380D01*
X150504761Y-61912380D01*
X150361904Y-61864761D01*
X150314285Y-61817142D01*
X150314285Y-61483809D01*
X150504761Y-61483809D01*
X149885714Y-61912380D02*
X149885714Y-60912380D01*
X149314285Y-61912380D01*
X149314285Y-60912380D01*
X148838095Y-61912380D02*
X148838095Y-60912380D01*
X148600000Y-60912380D01*
X148457142Y-60960000D01*
X148361904Y-61055238D01*
X148314285Y-61150476D01*
X148266666Y-61340952D01*
X148266666Y-61483809D01*
X148314285Y-61674285D01*
X148361904Y-61769523D01*
X148457142Y-61864761D01*
X148600000Y-61912380D01*
X148838095Y-61912380D01*
X149790476Y-58372380D02*
X150266666Y-58372380D01*
X150314285Y-58848571D01*
X150266666Y-58800952D01*
X150171428Y-58753333D01*
X149933333Y-58753333D01*
X149838095Y-58800952D01*
X149790476Y-58848571D01*
X149742857Y-58943809D01*
X149742857Y-59181904D01*
X149790476Y-59277142D01*
X149838095Y-59324761D01*
X149933333Y-59372380D01*
X150171428Y-59372380D01*
X150266666Y-59324761D01*
X150314285Y-59277142D01*
X149457142Y-58372380D02*
X149123809Y-59372380D01*
X148790476Y-58372380D01*
X146019047Y-66992380D02*
X146019047Y-65992380D01*
X145780952Y-65992380D01*
X145638095Y-66040000D01*
X145542857Y-66135238D01*
X145495238Y-66230476D01*
X145447619Y-66420952D01*
X145447619Y-66563809D01*
X145495238Y-66754285D01*
X145542857Y-66849523D01*
X145638095Y-66944761D01*
X145780952Y-66992380D01*
X146019047Y-66992380D01*
X144542857Y-66992380D02*
X145019047Y-66992380D01*
X145019047Y-65992380D01*
X144209523Y-66468571D02*
X143876190Y-66468571D01*
X143733333Y-66992380D02*
X144209523Y-66992380D01*
X144209523Y-65992380D01*
X143733333Y-65992380D01*
X143304761Y-66992380D02*
X143304761Y-65992380D01*
X143066666Y-65992380D01*
X142923809Y-66040000D01*
X142828571Y-66135238D01*
X142780952Y-66230476D01*
X142733333Y-66420952D01*
X142733333Y-66563809D01*
X142780952Y-66754285D01*
X142828571Y-66849523D01*
X142923809Y-66944761D01*
X143066666Y-66992380D01*
X143304761Y-66992380D01*
X144666666Y-56857142D02*
X144714285Y-56904761D01*
X144857142Y-56952380D01*
X144952380Y-56952380D01*
X145095238Y-56904761D01*
X145190476Y-56809523D01*
X145238095Y-56714285D01*
X145285714Y-56523809D01*
X145285714Y-56380952D01*
X145238095Y-56190476D01*
X145190476Y-56095238D01*
X145095238Y-56000000D01*
X144952380Y-55952380D01*
X144857142Y-55952380D01*
X144714285Y-56000000D01*
X144666666Y-56047619D01*
X144047619Y-55952380D02*
X143952380Y-55952380D01*
X143857142Y-56000000D01*
X143809523Y-56047619D01*
X143761904Y-56142857D01*
X143714285Y-56333333D01*
X143714285Y-56571428D01*
X143761904Y-56761904D01*
X143809523Y-56857142D01*
X143857142Y-56904761D01*
X143952380Y-56952380D01*
X144047619Y-56952380D01*
X144142857Y-56904761D01*
X144190476Y-56857142D01*
X144238095Y-56761904D01*
X144285714Y-56571428D01*
X144285714Y-56333333D01*
X144238095Y-56142857D01*
X144190476Y-56047619D01*
X144142857Y-56000000D01*
X144047619Y-55952380D01*
X150314285Y-64166666D02*
X149838095Y-64166666D01*
X150409523Y-64452380D02*
X150076190Y-63452380D01*
X149742857Y-64452380D01*
X149219047Y-63452380D02*
X149123809Y-63452380D01*
X149028571Y-63500000D01*
X148980952Y-63547619D01*
X148933333Y-63642857D01*
X148885714Y-63833333D01*
X148885714Y-64071428D01*
X148933333Y-64261904D01*
X148980952Y-64357142D01*
X149028571Y-64404761D01*
X149123809Y-64452380D01*
X149219047Y-64452380D01*
X149314285Y-64404761D01*
X149361904Y-64357142D01*
X149409523Y-64261904D01*
X149457142Y-64071428D01*
X149457142Y-63833333D01*
X149409523Y-63642857D01*
X149361904Y-63547619D01*
X149314285Y-63500000D01*
X149219047Y-63452380D01*
X151076190Y-55772380D02*
X150457142Y-55772380D01*
X150790476Y-56153333D01*
X150647619Y-56153333D01*
X150552380Y-56200952D01*
X150504761Y-56248571D01*
X150457142Y-56343809D01*
X150457142Y-56581904D01*
X150504761Y-56677142D01*
X150552380Y-56724761D01*
X150647619Y-56772380D01*
X150933333Y-56772380D01*
X151028571Y-56724761D01*
X151076190Y-56677142D01*
X150028571Y-56677142D02*
X149980952Y-56724761D01*
X150028571Y-56772380D01*
X150076190Y-56724761D01*
X150028571Y-56677142D01*
X150028571Y-56772380D01*
X149647619Y-55772380D02*
X149028571Y-55772380D01*
X149361904Y-56153333D01*
X149219047Y-56153333D01*
X149123809Y-56200952D01*
X149076190Y-56248571D01*
X149028571Y-56343809D01*
X149028571Y-56581904D01*
X149076190Y-56677142D01*
X149123809Y-56724761D01*
X149219047Y-56772380D01*
X149504761Y-56772380D01*
X149600000Y-56724761D01*
X149647619Y-56677142D01*
X148742857Y-55772380D02*
X148409523Y-56772380D01*
X148076190Y-55772380D01*
X150314285Y-69246666D02*
X149838095Y-69246666D01*
X150409523Y-69532380D02*
X150076190Y-68532380D01*
X149742857Y-69532380D01*
X149457142Y-68627619D02*
X149409523Y-68580000D01*
X149314285Y-68532380D01*
X149076190Y-68532380D01*
X148980952Y-68580000D01*
X148933333Y-68627619D01*
X148885714Y-68722857D01*
X148885714Y-68818095D01*
X148933333Y-68960952D01*
X149504761Y-69532380D01*
X148885714Y-69532380D01*
X145161904Y-63500000D02*
X145257142Y-63452380D01*
X145400000Y-63452380D01*
X145542857Y-63500000D01*
X145638095Y-63595238D01*
X145685714Y-63690476D01*
X145733333Y-63880952D01*
X145733333Y-64023809D01*
X145685714Y-64214285D01*
X145638095Y-64309523D01*
X145542857Y-64404761D01*
X145400000Y-64452380D01*
X145304761Y-64452380D01*
X145161904Y-64404761D01*
X145114285Y-64357142D01*
X145114285Y-64023809D01*
X145304761Y-64023809D01*
X144685714Y-64452380D02*
X144685714Y-63452380D01*
X144114285Y-64452380D01*
X144114285Y-63452380D01*
X143638095Y-64452380D02*
X143638095Y-63452380D01*
X143400000Y-63452380D01*
X143257142Y-63500000D01*
X143161904Y-63595238D01*
X143114285Y-63690476D01*
X143066666Y-63880952D01*
X143066666Y-64023809D01*
X143114285Y-64214285D01*
X143161904Y-64309523D01*
X143257142Y-64404761D01*
X143400000Y-64452380D01*
X143638095Y-64452380D01*
X144590476Y-68532380D02*
X145066666Y-68532380D01*
X145114285Y-69008571D01*
X145066666Y-68960952D01*
X144971428Y-68913333D01*
X144733333Y-68913333D01*
X144638095Y-68960952D01*
X144590476Y-69008571D01*
X144542857Y-69103809D01*
X144542857Y-69341904D01*
X144590476Y-69437142D01*
X144638095Y-69484761D01*
X144733333Y-69532380D01*
X144971428Y-69532380D01*
X145066666Y-69484761D01*
X145114285Y-69437142D01*
X144257142Y-68532380D02*
X143923809Y-69532380D01*
X143590476Y-68532380D01*
D11*
%TO.C,J5*%
X143400000Y-104800000D02*
X141000000Y-104800000D01*
X143400000Y-107200000D02*
X143400000Y-104800000D01*
X141000000Y-104800000D02*
X141000000Y-107200000D01*
X141000000Y-107200000D02*
X143400000Y-107200000D01*
%TO.C,J6*%
X143400000Y-92800000D02*
X141000000Y-92800000D01*
X143400000Y-95200000D02*
X143400000Y-92800000D01*
X141000000Y-92800000D02*
X141000000Y-95200000D01*
X141000000Y-95200000D02*
X143400000Y-95200000D01*
%TO.C,J4*%
X143400000Y-87200000D02*
X143400000Y-84800000D01*
X141000000Y-84800000D02*
X141000000Y-87200000D01*
X143400000Y-84800000D02*
X141000000Y-84800000D01*
X141000000Y-87200000D02*
X143400000Y-87200000D01*
%TO.C,J9*%
X141000000Y-100800000D02*
X141000000Y-103200000D01*
X141000000Y-103200000D02*
X143400000Y-103200000D01*
X143400000Y-100800000D02*
X141000000Y-100800000D01*
X143400000Y-103200000D02*
X143400000Y-100800000D01*
%TO.C,J7*%
X141000000Y-83200000D02*
X143400000Y-83200000D01*
X143400000Y-80800000D02*
X141000000Y-80800000D01*
X141000000Y-80800000D02*
X141000000Y-83200000D01*
X143400000Y-83200000D02*
X143400000Y-80800000D01*
%TO.C,J10*%
X143400000Y-88800000D02*
X141000000Y-88800000D01*
X143400000Y-91200000D02*
X143400000Y-88800000D01*
X141000000Y-91200000D02*
X143400000Y-91200000D01*
X141000000Y-88800000D02*
X141000000Y-91200000D01*
%TO.C,J8*%
X143400000Y-79200000D02*
X143400000Y-76800000D01*
X143400000Y-76800000D02*
X141000000Y-76800000D01*
X141000000Y-79200000D02*
X143400000Y-79200000D01*
X141000000Y-76800000D02*
X141000000Y-79200000D01*
%TO.C,J2*%
X143400000Y-111200000D02*
X143400000Y-108800000D01*
X141000000Y-108800000D02*
X141000000Y-111200000D01*
X141000000Y-111200000D02*
X143400000Y-111200000D01*
X143400000Y-108800000D02*
X141000000Y-108800000D01*
%TO.C,J3*%
X143400000Y-96800000D02*
X141000000Y-96800000D01*
X141000000Y-96800000D02*
X141000000Y-99200000D01*
X141000000Y-99200000D02*
X143400000Y-99200000D01*
X143400000Y-99200000D02*
X143400000Y-96800000D01*
%TD*%
M02*
