%TF.GenerationSoftware,KiCad,Pcbnew,(6.0.10)*%
%TF.CreationDate,2023-02-27T14:47:52-08:00*%
%TF.ProjectId,Top PCB,546f7020-5043-4422-9e6b-696361645f70,rev?*%
%TF.SameCoordinates,Original*%
%TF.FileFunction,Copper,L2,Bot*%
%TF.FilePolarity,Positive*%
%FSLAX46Y46*%
G04 Gerber Fmt 4.6, Leading zero omitted, Abs format (unit mm)*
G04 Created by KiCad (PCBNEW (6.0.10)) date 2023-02-27 14:47:52*
%MOMM*%
%LPD*%
G01*
G04 APERTURE LIST*
%TA.AperFunction,ComponentPad*%
%ADD10R,1.600000X1.600000*%
%TD*%
%TA.AperFunction,ComponentPad*%
%ADD11O,1.600000X1.600000*%
%TD*%
%TA.AperFunction,ComponentPad*%
%ADD12C,1.800000*%
%TD*%
%TA.AperFunction,ComponentPad*%
%ADD13C,1.600000*%
%TD*%
%TA.AperFunction,SMDPad,CuDef*%
%ADD14R,3.150000X1.000000*%
%TD*%
%TA.AperFunction,ViaPad*%
%ADD15C,0.800000*%
%TD*%
%TA.AperFunction,Conductor*%
%ADD16C,0.254000*%
%TD*%
%TA.AperFunction,Conductor*%
%ADD17C,0.381000*%
%TD*%
G04 APERTURE END LIST*
D10*
%TO.P,D7,1,K*%
%TO.N,R0*%
X146280000Y-102000000D03*
D11*
%TO.P,D7,2,A*%
%TO.N,Net-(D7-Pad2)*%
X138660000Y-102000000D03*
%TD*%
D10*
%TO.P,D8,1,K*%
%TO.N,R1*%
X146280000Y-90000000D03*
D11*
%TO.P,D8,2,A*%
%TO.N,Net-(D8-Pad2)*%
X138660000Y-90000000D03*
%TD*%
D12*
%TO.P,SW1,1,A*%
%TO.N,Net-(SW1-Pad1)*%
X156250000Y-77750000D03*
%TO.P,SW1,2,A*%
X149750000Y-82250000D03*
%TO.P,SW1,3,B*%
%TO.N,Net-(R5-Pad1)*%
X156250000Y-82250000D03*
%TO.P,SW1,4,B*%
X149750000Y-77750000D03*
%TD*%
D10*
%TO.P,D9,1,K*%
%TO.N,R2*%
X146280000Y-78000000D03*
D11*
%TO.P,D9,2,A*%
%TO.N,Net-(D9-Pad2)*%
X138660000Y-78000000D03*
%TD*%
D13*
%TO.P,R2,1*%
%TO.N,+5V*%
X155000000Y-97000000D03*
D11*
%TO.P,R2,2*%
%TO.N,C1*%
X155000000Y-86840000D03*
%TD*%
D10*
%TO.P,D2,1,K*%
%TO.N,R1*%
X146280000Y-98000000D03*
D11*
%TO.P,D2,2,A*%
%TO.N,Net-(D2-Pad2)*%
X138660000Y-98000000D03*
%TD*%
D10*
%TO.P,D1,1,K*%
%TO.N,R0*%
X146280000Y-110000000D03*
D11*
%TO.P,D1,2,A*%
%TO.N,Net-(D1-Pad2)*%
X138660000Y-110000000D03*
%TD*%
D10*
%TO.P,D6,1,K*%
%TO.N,R2*%
X146280000Y-82000000D03*
D11*
%TO.P,D6,2,A*%
%TO.N,Net-(D6-Pad2)*%
X138660000Y-82000000D03*
%TD*%
D10*
%TO.P,D3,1,K*%
%TO.N,R2*%
X146280000Y-86000000D03*
D11*
%TO.P,D3,2,A*%
%TO.N,Net-(D3-Pad2)*%
X138660000Y-86000000D03*
%TD*%
D10*
%TO.P,D4,1,K*%
%TO.N,R0*%
X146280000Y-106000000D03*
D11*
%TO.P,D4,2,A*%
%TO.N,Net-(D4-Pad2)*%
X138660000Y-106000000D03*
%TD*%
D13*
%TO.P,R1,1*%
%TO.N,+5V*%
X151000000Y-97000000D03*
D11*
%TO.P,R1,2*%
%TO.N,C0*%
X151000000Y-86840000D03*
%TD*%
D13*
%TO.P,R3,1*%
%TO.N,C2*%
X151000000Y-110000000D03*
D11*
%TO.P,R3,2*%
%TO.N,+5V*%
X151000000Y-99840000D03*
%TD*%
D13*
%TO.P,R5,1*%
%TO.N,Net-(R5-Pad1)*%
X155000000Y-110000000D03*
D11*
%TO.P,R5,2*%
%TO.N,+5V*%
X155000000Y-99840000D03*
%TD*%
D10*
%TO.P,D5,1,K*%
%TO.N,R1*%
X146280000Y-94000000D03*
D11*
%TO.P,D5,2,A*%
%TO.N,Net-(D5-Pad2)*%
X138660000Y-94000000D03*
%TD*%
D14*
%TO.P,J1,1,Pin_1*%
%TO.N,+5V*%
X149525000Y-57650000D03*
%TO.P,J1,2,Pin_2*%
%TO.N,C0*%
X144475000Y-57650000D03*
%TO.P,J1,3,Pin_3*%
%TO.N,GND*%
X149525000Y-60190000D03*
%TO.P,J1,4,Pin_4*%
%TO.N,C1*%
X144475000Y-60190000D03*
%TO.P,J1,5,Pin_5*%
%TO.N,A0*%
X149525000Y-62730000D03*
%TO.P,J1,6,Pin_6*%
%TO.N,C2*%
X144475000Y-62730000D03*
%TO.P,J1,7,Pin_7*%
%TO.N,A1*%
X149525000Y-65270000D03*
%TO.P,J1,8,Pin_8*%
%TO.N,R0*%
X144475000Y-65270000D03*
%TO.P,J1,9,Pin_9*%
%TO.N,DLED*%
X149525000Y-67810000D03*
%TO.P,J1,10,Pin_10*%
%TO.N,R1*%
X144475000Y-67810000D03*
%TO.P,J1,11,Pin_11*%
%TO.N,A2*%
X149525000Y-70350000D03*
%TO.P,J1,12,Pin_12*%
%TO.N,R2*%
X144475000Y-70350000D03*
%TD*%
D15*
%TO.N,DLED*%
X147000000Y-64000000D03*
%TO.N,R1*%
X142000000Y-68000000D03*
%TO.N,R0*%
X142000000Y-65000000D03*
X147000000Y-71000000D03*
%TO.N,R2*%
X141769256Y-71230744D03*
%TO.N,+5V*%
X152000000Y-56000000D03*
X159000000Y-94000000D03*
%TO.N,GND*%
X152000000Y-59000000D03*
%TO.N,C0*%
X142000000Y-56000000D03*
X134000000Y-83000000D03*
%TO.N,C1*%
X142000000Y-58000000D03*
X135000000Y-87000000D03*
%TO.N,C2*%
X142000000Y-61000000D03*
X136000000Y-107000000D03*
%TO.N,A0*%
X152000000Y-64000000D03*
%TO.N,A1*%
X152000000Y-67000000D03*
%TO.N,A2*%
X152000000Y-70000000D03*
%TD*%
D16*
%TO.N,DLED*%
X148810000Y-67810000D02*
X149525000Y-67810000D01*
X147000000Y-64000000D02*
X147000000Y-66000000D01*
X147000000Y-66000000D02*
X148810000Y-67810000D01*
%TO.N,R1*%
X142190000Y-67810000D02*
X142000000Y-68000000D01*
X144475000Y-67810000D02*
X142190000Y-67810000D01*
%TO.N,R0*%
X142270000Y-65270000D02*
X142000000Y-65000000D01*
X144475000Y-65270000D02*
X142270000Y-65270000D01*
X145270000Y-65270000D02*
X144475000Y-65270000D01*
X147000000Y-67000000D02*
X145270000Y-65270000D01*
X147000000Y-71000000D02*
X147000000Y-67000000D01*
%TO.N,R2*%
X142650000Y-70350000D02*
X144475000Y-70350000D01*
X141769256Y-71230744D02*
X142650000Y-70350000D01*
D17*
%TO.N,+5V*%
X151175000Y-56000000D02*
X149525000Y-57650000D01*
X159000000Y-94000000D02*
X159000000Y-95000000D01*
X159000000Y-95000000D02*
X157000000Y-97000000D01*
X157000000Y-97000000D02*
X155000000Y-97000000D01*
X152000000Y-56000000D02*
X151175000Y-56000000D01*
%TO.N,GND*%
X152000000Y-59000000D02*
X150715000Y-59000000D01*
X150715000Y-59000000D02*
X149525000Y-60190000D01*
D16*
%TO.N,C0*%
X143650000Y-57650000D02*
X144475000Y-57650000D01*
X151000000Y-86840000D02*
X149033000Y-84873000D01*
X142000000Y-56000000D02*
X143650000Y-57650000D01*
X135873000Y-84873000D02*
X134000000Y-83000000D01*
X149033000Y-84873000D02*
X135873000Y-84873000D01*
%TO.N,C1*%
X144190000Y-60190000D02*
X144475000Y-60190000D01*
X135967000Y-87967000D02*
X135000000Y-87000000D01*
X142000000Y-58000000D02*
X144190000Y-60190000D01*
X153873000Y-87967000D02*
X135967000Y-87967000D01*
X155000000Y-86840000D02*
X153873000Y-87967000D01*
%TO.N,C2*%
X149000000Y-108000000D02*
X137000000Y-108000000D01*
X142000000Y-61000000D02*
X143730000Y-62730000D01*
X143730000Y-62730000D02*
X144475000Y-62730000D01*
X137000000Y-108000000D02*
X136000000Y-107000000D01*
X151000000Y-110000000D02*
X149000000Y-108000000D01*
%TO.N,A0*%
X150730000Y-62730000D02*
X149525000Y-62730000D01*
X152000000Y-64000000D02*
X150730000Y-62730000D01*
%TO.N,A1*%
X150270000Y-65270000D02*
X149525000Y-65270000D01*
X152000000Y-67000000D02*
X150270000Y-65270000D01*
%TO.N,A2*%
X152000000Y-70000000D02*
X151650000Y-70350000D01*
X151650000Y-70350000D02*
X149525000Y-70350000D01*
%TD*%
M02*
